<svg xmlns="http://www.w3.org/2000/svg" xmlns:xlink="http://www.w3.org/1999/xlink" viewBox="3874.513 3396.026 180 115">
  <defs>
    <style>
      .cls-1, .cls-26, .cls-28, .cls-40, .cls-41, .cls-42, .cls-43 {
        fill: none;
      }

      .cls-11, .cls-19, .cls-2, .cls-20, .cls-25, .cls-9 {
        fill: #fff;
      }

      .cls-2, .cls-26, .cls-4 {
        stroke: #999;
      }

      .cls-2, .cls-4 {
        stroke-width: 0.5px;
      }

      .cls-3 {
        fill: #b3b3b3;
      }

      .cls-4, .cls-5, .cls-6 {
        fill: #e6e6e6;
      }

      .cls-39, .cls-7 {
        fill: #999;
      }

      .cls-27, .cls-37, .cls-7 {
        font-size: 1px;
        font-family: ArialRoundedMTBold, Arial Rounded MT;
      }

      .cls-27, .cls-8 {
        fill: #333;
      }

      .cls-9 {
        stroke: #666;
        stroke-width: 2px;
      }

      .cls-10 {
        fill: #436cdb;
      }

      .cls-11 {
        font-size: 3px;
        font-family: YuGothicUI-Bold, Yu Gothic UI;
        font-weight: 700;
      }

      .cls-12 {
        fill: #db4343;
      }

      .cls-13 {
        fill: #feb50d;
      }

      .cls-14 {
        fill: #f5c972;
      }

      .cls-15 {
        fill: #331a00;
      }

      .cls-16 {
        fill: #1a0d00;
      }

      .cls-17 {
        fill: #e2994d;
      }

      .cls-18 {
        fill: #af906c;
      }

      .cls-20 {
        stroke: #331a00;
      }

      .cls-21 {
        fill: #ccc;
      }

      .cls-22 {
        fill: #666;
      }

      .cls-23 {
        fill: #4d4d4d;
      }

      .cls-24 {
        clip-path: url(#clip-path);
      }

      .cls-25 {
        stroke: #ccc;
      }

      .cls-26, .cls-28 {
        stroke-width: 3px;
      }

      .cls-28 {
        stroke: #314e8a;
      }

      .cls-29 {
        fill: #314e8a;
      }

      .cls-30 {
        fill: #96c9ba;
      }

      .cls-31 {
        fill: #b8c6c6;
      }

      .cls-32, .cls-36 {
        fill: #040000;
      }

      .cls-32 {
        opacity: 0.1;
      }

      .cls-33 {
        fill: #b4b3b3;
      }

      .cls-34 {
        fill: #f2f2f2;
      }

      .cls-35 {
        fill: #88bbc0;
      }

      .cls-36 {
        opacity: 0.06;
      }

      .cls-37 {
        fill: #707070;
      }

      .cls-38, .cls-39 {
        stroke: none;
      }

      .cls-40 {
        clip-path: url(#clip);
      }

      .cls-41 {
        clip-path: url(#clip-2);
      }

      .cls-42 {
        clip-path: url(#clip-3);
      }

      .cls-43 {
        clip-path: url(#clip-4);
      }
    </style>
    <clipPath id="clip-path">
      <rect class="cls-1" width="107.981" height="29.494"/>
    </clipPath>
    <clipPath id="clip">
      <use xlink:href="#fill"/>
    </clipPath>
    <clipPath id="clip-2">
      <use xlink:href="#fill-2"/>
    </clipPath>
    <clipPath id="clip-3">
      <use xlink:href="#fill-3"/>
    </clipPath>
    <clipPath id="clip-4">
      <use xlink:href="#fill-4"/>
    </clipPath>
  </defs>
  <g id="グループ化_80" data-name="グループ化 80" transform="translate(2894 -464)">
    <g id="グループ化_79" data-name="グループ化 79" transform="translate(980.513 3860.026)">
      <g id="display" transform="translate(0 0)">
        <g id="長方形_57" data-name="長方形 57" class="cls-2" transform="translate(0 0)">
          <rect class="cls-38" width="180" height="115"/>
          <rect class="cls-1" x="0.25" y="0.25" width="179.5" height="114.5"/>
        </g>
        <g id="グループ化_68" data-name="グループ化 68" transform="translate(0.485 4.387)">
          <g id="グループ化_65" data-name="グループ化 65" transform="translate(0)">
            <path id="パス_65" data-name="パス 65" class="cls-3" d="M-8.319.062c.353,0,4.652,0,4.652,0C-2.84.056-2.633.316-2.411.621L-.679,3.254c.308.485.056.47-.645.475h-4.53A1.037,1.037,0,0,1-6.8,3.2s0,0-.808-1.381S-8.672.061-8.319.062Z" transform="translate(40.166 0.434)"/>
            <g id="タブ">
              <g id="長方形_125" data-name="長方形 125" class="cls-4" transform="translate(0.002 4.875)">
                <rect class="cls-38" width="179.025" height="4.875"/>
                <rect class="cls-1" x="0.25" y="0.25" width="178.525" height="4.375"/>
              </g>
              <g id="パス_66" data-name="パス 66" class="cls-5" transform="translate(-1.991)">
                <path class="cls-38" d="M 2.42284631729126 9.503758430480957 L 7.742972373962402 0.2500040233135223 L 31.83475875854492 0.2500040233135223 L 37.61688232421875 9.500051498413086 L 2.42284631729126 9.503758430480957 Z"/>
                <path class="cls-39" d="M 2.854981660842896 9.25371265411377 L 37.16581344604492 9.250099182128906 L 31.69620513916016 0.5000039935112 L 7.88762378692627 0.5000039935112 L 2.854981660842896 9.25371265411377 M 1.990726947784424 9.753804206848145 L 7.598336696624756 4.01077249989612e-06 L 31.97330665588379 4.01077249989612e-06 L 38.06794738769531 9.750003814697266 L 1.990726947784424 9.753804206848145 Z"/>
              </g>
              <rect id="長方形_126" data-name="長方形 126" class="cls-6" width="179.025" height="4.753" transform="translate(0.002 4.991)"/>
            </g>
            <g id="グループ化_66" data-name="グループ化 66" transform="translate(0 6.112)">
              <g id="長方形_125-2" data-name="長方形 125" class="cls-4" transform="translate(0 0.226)">
                <rect class="cls-38" width="179.027" height="4.875"/>
                <rect class="cls-1" x="0.25" y="0.25" width="178.527" height="4.375"/>
              </g>
              <rect id="長方形_126-2" data-name="長方形 126" class="cls-6" width="179.027" height="4.997"/>
            </g>
          </g>
          <g id="グループ化_67" data-name="グループ化 67" transform="translate(15.721 5.844)">
            <g id="長方形_127" data-name="長方形 127" class="cls-2">
              <rect class="cls-38" width="156.487" height="4.387" rx="1"/>
              <rect class="cls-1" x="0.25" y="0.25" width="155.987" height="3.887" rx="0.75"/>
            </g>
            <text id="https:_xxxxxxx.xxxx.co.jp_xxxxxxxxxx" data-name="https://xxxxxxx.xxxx.co.jp/xxxxxxxxxx" class="cls-7" transform="translate(1.95 1.975)"><tspan x="0" y="0">https://xxxxxxx.xxxx.co.jp/xxxxxxxxxx</tspan></text>
          </g>
          <g id="reload" transform="translate(12.37 3.662) rotate(49)">
            <rect id="長方形_130" data-name="長方形 130" class="cls-6" width="4.387" height="4.387" transform="translate(0.007 3.318) rotate(-49)"/>
            <path id="パス_66-2" data-name="パス 66" class="cls-8" d="M2.451.622a.142.142,0,0,0-.166.23A1.26,1.26,0,1,1,.351,2.27,1.26,1.26,0,0,1,1.36.627l.008,0L1.374.9a.077.077,0,0,0,.132.051l.4-.421a.077.077,0,0,0,0-.108l-.421-.4a.077.077,0,0,0-.108,0,.078.078,0,0,0-.021.055l.006.267a.142.142,0,0,0-.044,0A1.543,1.543,0,1,0,2.451.622Z" transform="translate(1.504 1.198)"/>
          </g>
          <g id="矢印アイコン_左2" data-name="矢印アイコン　左2" transform="translate(1.096 5.844)">
            <rect id="長方形_128" data-name="長方形 128" class="cls-6" width="3.839" height="3.654" transform="translate(0 0)"/>
            <path id="パス_67" data-name="パス 67" class="cls-8" d="M2.739,13.416H.847l.76-.716a.227.227,0,0,0,0-.332.256.256,0,0,0-.349,0L.073,13.484a.227.227,0,0,0,0,.334L1.26,14.936a.256.256,0,0,0,.349,0,.227.227,0,0,0,0-.332l-.76-.716H2.739a.235.235,0,1,0,0-.47Z" transform="translate(0.427 -11.892)"/>
          </g>
          <g id="矢印アイコン_左2-2" data-name="矢印アイコン　左2" transform="translate(5.483 5.844)">
            <rect id="長方形_129" data-name="長方形 129" class="cls-6" width="3.839" height="3.654" transform="translate(0 0)"/>
            <path id="パス_67-2" data-name="パス 67" class="cls-3" d="M.247,13.416H2.138l-.76-.716a.227.227,0,0,1,0-.332.256.256,0,0,1,.349,0l1.187,1.118a.227.227,0,0,1,0,.334L1.725,14.936a.256.256,0,0,1-.349,0,.227.227,0,0,1,0-.332l.76-.716H.247a.235.235,0,1,1,0-.47Z" transform="translate(0.427 -11.855)"/>
          </g>
          <g id="三点リーダーアイコン2" transform="translate(173.671 5.844)">
            <rect id="長方形_131" data-name="長方形 131" class="cls-6" width="0.786" height="3.654" transform="translate(0 0)"/>
            <ellipse id="楕円形_35" data-name="楕円形 35" class="cls-8" cx="0.066" cy="0.306" rx="0.066" ry="0.306" transform="translate(0.306 0.406)"/>
            <path id="パス_68" data-name="パス 68" class="cls-8" d="M.066,0C.1,0,.132.137.132.306S.1.612.066.612,0,.475,0,.306.029,0,.066,0Z" transform="translate(0.306 1.521)"/>
            <path id="パス_69" data-name="パス 69" class="cls-8" d="M.066,0C.1,0,.132.137.132.306S.1.612.066.612,0,.475,0,.306.029,0,.066,0Z" transform="translate(0.306 2.637)"/>
          </g>
          <g id="星アイコン8" transform="translate(168.065 6.575)">
            <path id="パス_70" data-name="パス 70" class="cls-8" d="M2.435,11.376a.217.217,0,0,0-.01-.066h0a.217.217,0,0,0-.207-.15H1.609l-.185-.577a.217.217,0,0,0-.413,0l.094.03-.094-.03-.185.577H.216a.217.217,0,0,0-.207.15h0a.217.217,0,0,0,.08.243h0l.493.354-.19.577h0a.217.217,0,0,0,.078.243h0a.217.217,0,0,0,.256,0h0l.49-.359.49.359h0a.217.217,0,0,0,.256,0h0a.217.217,0,0,0,.079-.243l-.19-.577.493-.354h0A.217.217,0,0,0,2.435,11.376Zm-.205.016h0l-.552.4a.1.1,0,0,0-.036.111l.213.645v.006a.02.02,0,0,1-.008.016h0a.02.02,0,0,1-.012,0,.02.02,0,0,1-.012,0h0l-.548-.4a.1.1,0,0,0-.116,0l-.548.4a.02.02,0,0,1-.012,0,.02.02,0,0,1-.012,0,.02.02,0,0,1-.008-.016v-.006h0L.793,11.9a.1.1,0,0,0-.036-.111l-.552-.4h0A.02.02,0,0,1,.2,11.376V11.37a.02.02,0,0,1,.019-.014H.9a.1.1,0,0,0,.094-.068l.207-.646a.02.02,0,0,1,.038,0l.207.646a.1.1,0,0,0,.094.068h.681a.02.02,0,0,1,.019.014v.006A.02.02,0,0,1,2.23,11.392Z" transform="translate(0.001 -10.431)"/>
          </g>
        </g>
        <g id="長方形_134" data-name="長方形 134" class="cls-9" transform="translate(16.937 60.2)">
          <rect class="cls-38" width="146.25" height="48.75" rx="20"/>
          <rect class="cls-1" x="1" y="1" width="144.25" height="46.75" rx="19"/>
        </g>
        <g id="グループ化_69" data-name="グループ化 69" transform="translate(31.562 65.075)">
          <g id="ok" transform="translate(19.5 0)">
            <rect id="長方形_132" data-name="長方形 132" class="cls-10" width="31.687" height="9.75" rx="4.875" transform="translate(0 0)"/>
            <text id="OK-2" data-name="OK" class="cls-11" transform="translate(10.969 3)"><tspan x="0" y="0">OK</tspan></text>
          </g>
          <g id="ok-3" data-name="ok" transform="translate(85.312 0)">
            <rect id="長方形_132-2" data-name="長方形 132" class="cls-10" width="31.687" height="9.75" rx="4.875" transform="translate(0 0)"/>
            <text id="OK-4" data-name="OK" class="cls-11" transform="translate(10.969 3)"><tspan x="0" y="0">OK</tspan></text>
          </g>
          <g id="ok-5" data-name="ok" transform="translate(19.5 13.406)">
            <rect id="長方形_132-3" data-name="長方形 132" class="cls-10" width="31.687" height="9.75" rx="4.875"/>
            <text id="OK-6" data-name="OK" class="cls-11" transform="translate(10.969 3)"><tspan x="0" y="0">OK</tspan></text>
          </g>
          <g id="ok-7" data-name="ok" transform="translate(85.312 14.625)">
            <rect id="長方形_132-4" data-name="長方形 132" class="cls-12" width="31.687" height="9.75" rx="4.875" transform="translate(0 0)"/>
            <text id="FAILURE" class="cls-11" transform="translate(2.194 3)"><tspan x="0" y="0">FAILURE</tspan></text>
          </g>
          <g id="ok-8" data-name="ok" transform="translate(19.5 28.031)">
            <rect id="長方形_132-5" data-name="長方形 132" class="cls-13" width="31.687" height="9.75" rx="4.875"/>
            <text id="WARN" class="cls-11" transform="translate(5.119 3)"><tspan x="0" y="0">WARN</tspan></text>
          </g>
          <g id="ok-9" data-name="ok" transform="translate(85.312 29.25)">
            <rect id="長方形_132-6" data-name="長方形 132" class="cls-10" width="31.687" height="9.75" rx="4.875" transform="translate(0 0)"/>
            <text id="OK-10" data-name="OK" class="cls-11" transform="translate(10.969 3)"><tspan x="0" y="0">OK</tspan></text>
          </g>
          <g id="無料の設定アイコン" transform="translate(0 0)">
            <path id="パス_72" data-name="パス 72" class="cls-8" d="M7.037,4.849a.372.372,0,0,1,.323-.279l.492-.033a.293.293,0,0,0,.269-.288V3.871a.293.293,0,0,0-.269-.288L7.36,3.551a.337.337,0,0,1-.309-.2c-.022-.1,0-.418.122-.5l.409-.274a.293.293,0,0,0,.089-.384l-.189-.327a.293.293,0,0,0-.377-.114l-.443.218A.336.336,0,0,1,6.3,1.953c-.068-.074-.211-.362-.146-.5l.218-.443A.294.294,0,0,0,6.254.638L5.927.45a.293.293,0,0,0-.384.089L5.269.948c-.083.123-.193.209-.246.19l-.049-.015-.125-.039A.373.373,0,0,1,4.57.761L4.537.269A.293.293,0,0,0,4.249,0H3.871a.293.293,0,0,0-.288.269L3.551.761a.337.337,0,0,1-.2.309c-.1.022-.418,0-.5-.122L2.577.539A.293.293,0,0,0,2.194.45L1.867.638a.294.294,0,0,0-.114.377l.218.443a.337.337,0,0,1-.016.366c-.075.068-.362.211-.5.146l-.443-.218a.293.293,0,0,0-.377.114L.45,2.194a.293.293,0,0,0,.089.384l.409.274c.123.083.209.193.19.246l-.015.049-.039.126a.373.373,0,0,1-.323.279l-.492.033A.293.293,0,0,0,0,3.871v.378a.293.293,0,0,0,.269.288l.492.033a.336.336,0,0,1,.309.2c.022.1,0,.418-.122.5l-.409.274a.293.293,0,0,0-.089.384l.189.327a.293.293,0,0,0,.377.114l.443-.218a.337.337,0,0,1,.366.016c.068.074.211.362.146.5l-.218.443a.293.293,0,0,0,.114.377l.327.189a.293.293,0,0,0,.384-.089l.275-.409c.082-.123.193-.209.245-.19L3.146,7l.126.039a.372.372,0,0,1,.279.323l.033.492a.293.293,0,0,0,.288.269h.378a.293.293,0,0,0,.288-.269L4.57,7.36a.337.337,0,0,1,.2-.309c.1-.022.418,0,.5.122l.274.409a.293.293,0,0,0,.384.089l.327-.189a.293.293,0,0,0,.114-.377l-.218-.443A.337.337,0,0,1,6.167,6.3c.074-.068.362-.211.5-.146l.443.218a.293.293,0,0,0,.377-.114l.189-.327a.293.293,0,0,0-.089-.384l-.409-.275c-.123-.082-.209-.193-.19-.245L7,4.975Zm-2.23-.474a.816.816,0,0,1-.294.357.788.788,0,0,1-.211.1.818.818,0,0,1-.556-.027.817.817,0,0,1-.357-.294.791.791,0,0,1-.1-.211.818.818,0,0,1,.027-.556.818.818,0,0,1,.294-.357.8.8,0,0,1,.211-.1.818.818,0,0,1,.556.027.816.816,0,0,1,.357.294.8.8,0,0,1,.1.211.818.818,0,0,1-.027.556Z"/>
          </g>
          <g id="電池のフリーアイコン素材" transform="translate(0 29.981)">
            <path id="パス_73" data-name="パス 73" class="cls-8" d="M74.455,199.305h1.87l-1.87-2.229Z" transform="translate(-73.274 -195.535)"/>
            <path id="パス_74" data-name="パス 74" class="cls-8" d="M95.558,174.381l2.173,2.589h2.153l-2.173-2.589Z" transform="translate(-94.042 -173.2)"/>
            <path id="パス_75" data-name="パス 75" class="cls-8" d="M273.242,176.481v-2.1H271.48Z" transform="translate(-267.174 -173.2)"/>
            <path id="パス_76" data-name="パス 76" class="cls-8" d="M7.248,100.995V99.924H0v4.951H7.248V103.8h.872v-2.809Zm-.733,2.076v1.071H.733v-3.485H6.515v1.071h.872v1.343Z" transform="translate(0 -99.924)"/>
          </g>
          <g id="iconsvg20404" transform="translate(2.194 13.406)">
            <path id="パス_77" data-name="パス 77" class="cls-8" d="M30.047,67.689a.1.1,0,0,0-.082-.047h-.846a.1.1,0,0,0-.082.047l-.423.732a.1.1,0,0,0,0,.095l.423.732a.1.1,0,0,0,.082.047h.846a.1.1,0,0,0,.082-.047l.423-.732a.1.1,0,0,0,0-.095Zm-.5,1.346a.566.566,0,1,1,.566-.566A.566.566,0,0,1,29.542,69.035Z" transform="translate(-28.601 -61.908)"/>
            <path id="パス_78" data-name="パス 78" class="cls-8" d="M34.933,72.4a.376.376,0,1,0,.376.376A.376.376,0,0,0,34.933,72.4Z" transform="translate(-33.992 -66.216)"/>
            <path id="パス_79" data-name="パス 79" class="cls-8" d="M33.683,54.512a.1.1,0,0,0-.12-.06l-.942.316a.095.095,0,0,0,.06.18l.942-.316A.1.1,0,0,0,33.683,54.512Z" transform="translate(-32.181 -49.965)"/>
            <path id="パス_80" data-name="パス 80" class="cls-8" d="M33.683,50.512a.1.1,0,0,0-.12-.06l-.942.316a.095.095,0,0,0,.06.18l.942-.316A.1.1,0,0,0,33.683,50.512Z" transform="translate(-32.181 -46.344)"/>
            <path id="パス_81" data-name="パス 81" class="cls-8" d="M33.683,46.512a.1.1,0,0,0-.12-.06l-.942.316a.095.095,0,0,0,.06.18l.942-.316A.1.1,0,0,0,33.683,46.512Z" transform="translate(-32.181 -42.725)"/>
            <path id="パス_82" data-name="パス 82" class="cls-8" d="M33.683,41.512a.1.1,0,0,0-.12-.06l-.942.316a.095.095,0,0,0,.06.18l.942-.316A.1.1,0,0,0,33.683,41.512Z" transform="translate(-32.181 -38.198)"/>
            <path id="パス_83" data-name="パス 83" class="cls-8" d="M33.683,36.512a.1.1,0,0,0-.12-.06l-.942.316a.095.095,0,0,0,.06.18l.942-.316A.1.1,0,0,0,33.683,36.512Z" transform="translate(-32.181 -33.673)"/>
            <path id="パス_84" data-name="パス 84" class="cls-8" d="M34.587,57.784l-.664.19a.1.1,0,0,0-.069.091V58.4a.1.1,0,0,0,.095.095h.664a.1.1,0,0,0,.095-.095v-.522a.095.095,0,0,0-.121-.091Z" transform="translate(-33.356 -52.982)"/>
            <path id="パス_85" data-name="パス 85" class="cls-8" d="M33.949,27.283a.094.094,0,0,0,.037-.008l.664-.284a.1.1,0,0,0,.057-.087v-.7a.1.1,0,0,0-.095-.095h-.664a.1.1,0,0,0-.095.095v.98a.095.095,0,0,0,.095.095Z" transform="translate(-33.356 -24.319)"/>
            <path id="パス_86" data-name="パス 86" class="cls-8" d="M29.949,16.729H31.34a.1.1,0,0,0,.095-.095v-.759a.1.1,0,0,0-.095-.095H29.949a.1.1,0,0,0-.095.095v.759A.1.1,0,0,0,29.949,16.729Z" transform="translate(-29.735 -14.966)"/>
            <path id="パス_87" data-name="パス 87" class="cls-8" d="M62.183,45.931a.1.1,0,0,0-.12-.06l-.942.316a.095.095,0,0,0,.06.18l.942-.316A.1.1,0,0,0,62.183,45.931Z" transform="translate(-57.977 -42.198)"/>
            <path id="パス_88" data-name="パス 88" class="cls-8" d="M62.183,41.931a.1.1,0,0,0-.12-.06l-.942.316a.095.095,0,0,0,.06.18l.942-.316A.1.1,0,0,0,62.183,41.931Z" transform="translate(-57.977 -38.577)"/>
            <path id="パス_89" data-name="パス 89" class="cls-8" d="M62.183,37.931a.1.1,0,0,0-.12-.06l-.942.316a.095.095,0,0,0,.06.18l.942-.316A.1.1,0,0,0,62.183,37.931Z" transform="translate(-57.977 -34.958)"/>
            <path id="パス_90" data-name="パス 90" class="cls-8" d="M62.183,32.931a.1.1,0,0,0-.12-.06l-.942.316a.095.095,0,0,0,.06.18l.942-.316A.1.1,0,0,0,62.183,32.931Z" transform="translate(-57.977 -30.431)"/>
            <path id="パス_91" data-name="パス 91" class="cls-8" d="M62.183,27.931a.1.1,0,0,0-.12-.06l-.942.316a.095.095,0,0,0,.06.18l.942-.316A.1.1,0,0,0,62.183,27.931Z" transform="translate(-57.977 -25.906)"/>
            <path id="パス_92" data-name="パス 92" class="cls-8" d="M63.087,49.2l-.664.19a.1.1,0,0,0-.069.091v.332a.1.1,0,0,0,.095.095h.664a.1.1,0,0,0,.095-.095v-.522a.1.1,0,0,0-.038-.076A.1.1,0,0,0,63.087,49.2Z" transform="translate(-59.152 -45.215)"/>
            <path id="パス_93" data-name="パス 93" class="cls-8" d="M62.449,18.7a.094.094,0,0,0,.037-.008l.664-.285a.1.1,0,0,0,.057-.087v-.7a.1.1,0,0,0-.095-.095h-.664a.1.1,0,0,0-.095.095v.98a.095.095,0,0,0,.095.095Z" transform="translate(-59.152 -16.552)"/>
            <path id="パス_94" data-name="パス 94" class="cls-8" d="M58.449,8.148H59.84a.1.1,0,0,0,.095-.095V7.294A.1.1,0,0,0,59.84,7.2H58.449a.1.1,0,0,0-.095.095v.759A.1.1,0,0,0,58.449,8.148Z" transform="translate(-55.531 -7.199)"/>
            <path id="パス_95" data-name="パス 95" class="cls-8" d="M57.432,58.64a1.028,1.028,0,1,0-1.1,0l-.377.653a.1.1,0,0,0,0,.095l.423.732a.1.1,0,0,0,.082.047H57.3a.1.1,0,0,0,.082-.047l.423-.732a.1.1,0,0,0,0-.095Zm-.551,1.077a.376.376,0,1,1,.376-.376A.376.376,0,0,1,56.882,59.717Zm0-1.484a.457.457,0,1,1,.457-.457A.458.458,0,0,1,56.882,58.233Z" transform="translate(-53.269 -52.048)"/>
            <ellipse id="楕円形_36" data-name="楕円形 36" class="cls-8" cx="0.267" cy="0.267" rx="0.267" ry="0.267" transform="translate(3.346 5.461)"/>
          </g>
          <g id="電球のアイコン素材" transform="translate(68.25 0)">
            <path id="パス_96" data-name="パス 96" class="cls-8" d="M126.19,157.131l-3.38,1.118c-.01,0-.019.009-.029.013a.422.422,0,0,0-.043.019.385.385,0,0,0-.034.022c-.011.008-.023.015-.034.024s-.021.02-.031.03-.019.019-.027.029-.016.023-.024.034-.015.023-.022.035-.011.025-.016.037a.418.418,0,0,0-.015.039c0,.013-.006.027-.009.041s-.006.026-.007.04,0,.031,0,.047,0,.021,0,.031,0,0,0,.007,0,.027.008.041a.427.427,0,0,0,.01.045s0,0,0,.006a.472.472,0,0,0,.024.056l.008.015a.458.458,0,0,0,.037.057l.016.018a.4.4,0,0,0,.036.037l.021.017a.433.433,0,0,0,.042.029l.022.013a.491.491,0,0,0,.06.026l.009,0a.431.431,0,0,0,.075.016l.019,0,.038,0,.024,0h.012a.592.592,0,0,1,.471.169,1.138,1.138,0,0,1,.227.305h-.169a.342.342,0,0,0-.342.343v1.055a.342.342,0,0,0,.342.342h.3v.13a.124.124,0,0,0,0,.249v.124a.124.124,0,0,0,0,.249v.267c0,.249.149.273.4.273,0,0,.05.149.522.149s.522-.149.522-.149c.249,0,.4-.025.4-.273v-.27a.124.124,0,0,0,0-.244v-.129a.124.124,0,0,0,0-.244V161.3h.329a.342.342,0,0,0,.342-.342V159.9a.342.342,0,0,0-.342-.343h-.15a.973.973,0,0,1,.4-.469.428.428,0,0,0-.41-.752,1.936,1.936,0,0,0-.9,1.221H124.6a2.223,2.223,0,0,0-.475-.84l2.334-.772a.428.428,0,0,0-.269-.813Z" transform="translate(-122.516 -154.617)"/>
            <path id="パス_97" data-name="パス 97" class="cls-8" d="M122.872,72.351a.432.432,0,0,0,.135-.022l3.38-1.119a.428.428,0,0,0-.269-.813l-3.38,1.118a.428.428,0,0,0,.134.835Z" transform="translate(-122.443 -69.26)"/>
            <path id="パス_98" data-name="パス 98" class="cls-8" d="M140.732,1.639a.432.432,0,0,0,.135-.022l2.366-.783a.428.428,0,1,0-.269-.813L140.6.8a.428.428,0,0,0,.134.835Z" transform="translate(-140.02 0.001)"/>
          </g>
          <g id="CPUアイコン3" transform="translate(65.812 29.006)">
            <path id="パス_99" data-name="パス 99" class="cls-8" d="M132.4.238A.238.238,0,0,0,132.161,0h-.087a.238.238,0,0,0-.238.238V.9h.563Z" transform="translate(-129.745)"/>
            <path id="パス_100" data-name="パス 100" class="cls-8" d="M203.355.238A.238.238,0,0,0,203.117,0h-.087a.238.238,0,0,0-.238.238V.9h.563Z" transform="translate(-199.576)"/>
            <path id="パス_101" data-name="パス 101" class="cls-8" d="M274.3.238A.238.238,0,0,0,274.064,0h-.087a.238.238,0,0,0-.238.238V.9h.563Z" transform="translate(-269.397)"/>
            <path id="パス_102" data-name="パス 102" class="cls-8" d="M345.249.238A.238.238,0,0,0,345.011,0h-.087a.238.238,0,0,0-.238.238V.9h.563Z" transform="translate(-339.219)"/>
            <path id="パス_103" data-name="パス 103" class="cls-8" d="M131.836,456.207a.238.238,0,0,0,.238.238h.087a.238.238,0,0,0,.238-.238v-.658h-.563Z" transform="translate(-129.745 -448.325)"/>
            <path id="パス_104" data-name="パス 104" class="cls-8" d="M202.792,456.207a.238.238,0,0,0,.238.238h.087a.238.238,0,0,0,.238-.238v-.658h-.563Z" transform="translate(-199.576 -448.325)"/>
            <path id="パス_105" data-name="パス 105" class="cls-8" d="M273.739,456.207a.238.238,0,0,0,.238.238h.087a.238.238,0,0,0,.238-.238v-.658h-.563Z" transform="translate(-269.397 -448.325)"/>
            <path id="パス_106" data-name="パス 106" class="cls-8" d="M344.686,456.207a.238.238,0,0,0,.238.238h.087a.238.238,0,0,0,.238-.238v-.658h-.563Z" transform="translate(-339.219 -448.325)"/>
            <path id="パス_107" data-name="パス 107" class="cls-8" d="M456.208,131.836h-.658v.563h.658a.238.238,0,0,0,.238-.238v-.087A.238.238,0,0,0,456.208,131.836Z" transform="translate(-448.325 -129.745)"/>
            <path id="パス_108" data-name="パス 108" class="cls-8" d="M456.208,202.793h-.658v.563h.658a.238.238,0,0,0,.238-.238v-.087A.238.238,0,0,0,456.208,202.793Z" transform="translate(-448.325 -199.577)"/>
            <path id="パス_109" data-name="パス 109" class="cls-8" d="M456.208,273.739h-.658v.563h.658a.238.238,0,0,0,.238-.238v-.087A.238.238,0,0,0,456.208,273.739Z" transform="translate(-448.325 -269.397)"/>
            <path id="パス_110" data-name="パス 110" class="cls-8" d="M456.208,344.686h-.658v.563h.658a.238.238,0,0,0,.238-.238v-.087A.238.238,0,0,0,456.208,344.686Z" transform="translate(-448.325 -339.219)"/>
            <path id="パス_111" data-name="パス 111" class="cls-8" d="M0,132.073v.087a.238.238,0,0,0,.238.238H.9v-.563H.238A.238.238,0,0,0,0,132.073Z" transform="translate(0 -129.744)"/>
            <path id="パス_112" data-name="パス 112" class="cls-8" d="M0,203.031v.087a.238.238,0,0,0,.238.238H.9v-.563H.238A.238.238,0,0,0,0,203.031Z" transform="translate(0 -199.577)"/>
            <path id="パス_113" data-name="パス 113" class="cls-8" d="M0,273.977v.087a.238.238,0,0,0,.238.238H.9v-.563H.238A.238.238,0,0,0,0,273.977Z" transform="translate(0 -269.397)"/>
            <path id="パス_114" data-name="パス 114" class="cls-8" d="M0,344.924v.087a.238.238,0,0,0,.238.238H.9v-.563H.238A.238.238,0,0,0,0,344.924Z" transform="translate(0 -339.219)"/>
            <path id="パス_115" data-name="パス 115" class="cls-8" d="M78.628,84.255h5.627V78.628H78.628Zm4.725-4.967a.264.264,0,1,1-.264.264A.264.264,0,0,1,83.353,79.287Zm0,3.824a.264.264,0,1,1-.264.264A.264.264,0,0,1,83.353,83.112Zm-3.048-2.807h2.273v2.273H80.305Zm-.776-1.018a.264.264,0,1,1-.264.264A.264.264,0,0,1,79.529,79.287Zm0,3.824a.264.264,0,1,1-.264.264A.264.264,0,0,1,79.529,83.112Z" transform="translate(-77.381 -77.381)"/>
          </g>
          <g id="無料の設定歯車アイコン" transform="translate(65.812 14.625)">
            <path id="パス_71" data-name="パス 71" class="cls-8" d="M7.926,3.331,7.04,3.29a.208.208,0,0,1-.183-.129l-.183-.439A.209.209,0,0,1,6.713,2.5l.6-.656A.209.209,0,0,0,7.3,1.557L6.567.821A.209.209,0,0,0,6.279.814l-.655.6A.209.209,0,0,1,5.4,1.45l-.439-.182a.208.208,0,0,1-.128-.183L4.794.2A.209.209,0,0,0,4.586,0H3.543a.209.209,0,0,0-.209.2l-.041.886a.208.208,0,0,1-.128.183l-.439.182a.209.209,0,0,1-.221-.039L1.85.814a.209.209,0,0,0-.289.007l-.736.737a.209.209,0,0,0-.007.288l.6.656a.208.208,0,0,1,.038.221l-.182.439a.209.209,0,0,1-.183.129L.2,3.331a.209.209,0,0,0-.2.209V4.581a.209.209,0,0,0,.2.209l.886.041a.209.209,0,0,1,.183.129l.182.439a.208.208,0,0,1-.038.221l-.6.655a.209.209,0,0,0,.006.289l.737.737a.209.209,0,0,0,.288.007l.655-.6a.209.209,0,0,1,.221-.039l.439.182a.209.209,0,0,1,.128.184l.041.886a.209.209,0,0,0,.209.2H4.585a.209.209,0,0,0,.208-.2l.041-.886a.209.209,0,0,1,.128-.184L5.4,6.67a.209.209,0,0,1,.221.039l.655.6A.209.209,0,0,0,6.567,7.3L7.3,6.563a.21.21,0,0,0,.007-.289l-.6-.655A.208.208,0,0,1,6.674,5.4l.183-.439a.208.208,0,0,1,.183-.129l.886-.041a.209.209,0,0,0,.2-.209V3.539A.209.209,0,0,0,7.926,3.331ZM4.064,5.387A1.326,1.326,0,1,1,5.39,4.06,1.326,1.326,0,0,1,4.064,5.387Z" transform="translate(-0.004 0)"/>
          </g>
        </g>
        <g id="グループ化_72" data-name="グループ化 72" transform="translate(16.937 24.221)">
          <path id="長方形_47" data-name="長方形 47" class="cls-14" d="M10,0h1.068a10,10,0,0,1,10,10V24.077a0,0,0,0,1,0,0H0a0,0,0,0,1,0,0V10A10,10,0,0,1,10,0Z" transform="translate(0 1.204)"/>
          <rect id="長方形_48" data-name="長方形 48" class="cls-15" width="21.068" height="2.408" transform="translate(0 22.873)"/>
          <rect id="長方形_49" data-name="長方形 49" class="cls-16" width="18.66" height="16.854" rx="8.427" transform="translate(1.204 2.408)"/>
          <path id="長方形_50" data-name="長方形 50" class="cls-15" d="M1.2,0h9.631a1.2,1.2,0,0,1,1.2,1.2v0a0,0,0,0,1,0,0H0a0,0,0,0,1,0,0v0A1.2,1.2,0,0,1,1.2,0Z" transform="translate(4.514 0)"/>
          <g id="グループ化_16" data-name="グループ化 16" transform="translate(1.746 19.623)">
            <rect id="長方形_15" data-name="長方形 15" class="cls-17" width="6.982" height="2.829" rx="1.415" transform="translate(0)"/>
            <rect id="長方形_16" data-name="長方形 16" class="cls-18" width="6.38" height="2.227" rx="1.114" transform="translate(0.301 0.301)"/>
            <rect id="長方形_17" data-name="長方形 17" class="cls-19" width="2.408" height="0.241" transform="translate(0.602 0.542)"/>
            <rect id="長方形_18" data-name="長方形 18" class="cls-19" width="4.815" height="0.241" transform="translate(0.602 1.505)"/>
            <rect id="長方形_19" data-name="長方形 19" class="cls-19" width="2.408" height="0.241" transform="translate(0.602 1.023)"/>
            <rect id="長方形_20" data-name="長方形 20" class="cls-19" width="4.815" height="0.241" transform="translate(0.602 1.986)"/>
            <rect id="長方形_21" data-name="長方形 21" class="cls-19" width="0.843" height="0.241" transform="translate(5.598 1.505)"/>
            <rect id="長方形_22" data-name="長方形 22" class="cls-19" width="0.843" height="0.241" transform="translate(5.598 1.986)"/>
            <ellipse id="楕円形_4" data-name="楕円形 4" class="cls-19" cx="0.391" cy="0.391" rx="0.391" ry="0.391" transform="translate(4.514 0.482)"/>
            <g id="グループ化_6" data-name="グループ化 6" transform="translate(4.876 0.542)">
              <g id="長方形_23" data-name="長方形 23" class="cls-20">
                <rect id="fill" class="cls-38" width="0.06" height="0.361"/>
                <path class="cls-40" d="M0,-0.13884061574935913h0.06019323691725731M0.5,0v0.36115938425064087M0.06019323691725731,0.5h-0.06019323691725731M-0.4398067630827427,0.36115938425064087v-0.36115938425064087"/>
              </g>
              <g id="長方形_24" data-name="長方形 24" class="cls-20" transform="translate(0.361 0.301) rotate(90)">
                <rect id="fill-2" class="cls-38" width="0.06" height="0.361"/>
                <path class="cls-41" d="M0,-0.13884055614471436h0.06019323691725731M0.5,0v0.36115944385528564M0.06019323691725731,0.5h-0.06019323691725731M-0.4398067630827427,0.36115944385528564v-0.36115944385528564"/>
              </g>
            </g>
            <ellipse id="楕円形_5" data-name="楕円形 5" class="cls-19" cx="0.391" cy="0.391" rx="0.391" ry="0.391" transform="translate(5.598 0.482)"/>
            <g id="グループ化_7" data-name="グループ化 7" transform="translate(5.959 0.542)">
              <g id="長方形_23-2" data-name="長方形 23" class="cls-20">
                <rect id="fill-3" class="cls-38" width="0.06" height="0.361"/>
                <path class="cls-42" d="M0,-0.13884061574935913h0.06019323691725731M0.5,0v0.36115938425064087M0.06019323691725731,0.5h-0.06019323691725731M-0.4398067630827427,0.36115938425064087v-0.36115938425064087"/>
              </g>
              <g id="長方形_24-2" data-name="長方形 24" class="cls-20" transform="translate(0.361 0.301) rotate(90)">
                <rect id="fill-4" class="cls-38" width="0.06" height="0.361"/>
                <path class="cls-43" d="M0,-0.13884055614471436h0.06019323691725731M0.5,0v0.36115944385528564M0.06019323691725731,0.5h-0.06019323691725731M-0.4398067630827427,0.36115944385528564v-0.36115944385528564"/>
              </g>
            </g>
          </g>
          <path id="パス_12" data-name="パス 12" class="cls-21" d="M0,.012,11.786,0l-.108.614H0Z" transform="translate(8.273 5.738) rotate(-10)"/>
          <g id="無料の設定歯車アイコン-2" data-name="無料の設定歯車アイコン" transform="translate(3.371 10.594)">
            <path id="パス_2" data-name="パス 2" class="cls-21" d="M5.876,2.469l-.657-.03a.154.154,0,0,1-.136-.1l-.135-.326a.155.155,0,0,1,.029-.164l.443-.486a.155.155,0,0,0,0-.214L4.869.608a.155.155,0,0,0-.214,0l-.486.443a.155.155,0,0,1-.164.029L3.68.94A.154.154,0,0,1,3.585.8L3.554.148A.155.155,0,0,0,3.4,0H2.627a.155.155,0,0,0-.155.148L2.443.8a.154.154,0,0,1-.1.136l-.326.135a.155.155,0,0,1-.164-.029L1.372.6a.155.155,0,0,0-.214,0l-.546.546a.155.155,0,0,0,0,.214l.443.486a.154.154,0,0,1,.028.164l-.135.326a.155.155,0,0,1-.136.1l-.656.03A.155.155,0,0,0,0,2.623V3.4a.155.155,0,0,0,.148.155l.656.03a.155.155,0,0,1,.136.1L1.079,4a.154.154,0,0,1-.028.164l-.443.486a.155.155,0,0,0,0,.214l.546.546a.155.155,0,0,0,.214,0l.486-.443a.155.155,0,0,1,.164-.029l.326.135a.155.155,0,0,1,.1.136l.03.656a.155.155,0,0,0,.155.148H3.4a.155.155,0,0,0,.154-.148l.03-.656a.155.155,0,0,1,.1-.136l.326-.135a.155.155,0,0,1,.164.029l.486.443a.155.155,0,0,0,.214,0l.546-.546a.155.155,0,0,0,0-.214l-.443-.486A.155.155,0,0,1,4.948,4l.135-.326a.154.154,0,0,1,.136-.1l.657-.03A.155.155,0,0,0,6.023,3.4V2.623A.155.155,0,0,0,5.876,2.469ZM3.014,3.993A.983.983,0,1,1,4,3.01.983.983,0,0,1,3.014,3.993Z" transform="translate(-0.004 0)"/>
          </g>
          <path id="前面オブジェクトで型抜き_5" data-name="前面オブジェクトで型抜き 5" class="cls-22" d="M2.41,3.04H0V2.87a.217.217,0,0,1,.2-.213l.365-.024A.276.276,0,0,0,.8,2.425l.029-.093L.844,2.3C.858,2.257.795,2.175.7,2.114l-.3-.2a.217.217,0,0,1-.066-.284l.14-.242a.216.216,0,0,1,.188-.106A.206.206,0,0,1,.753,1.3l.328.161a.141.141,0,0,0,.062.012.586.586,0,0,0,.3-.12.249.249,0,0,0,.012-.271L1.3.753a.217.217,0,0,1,.085-.28l.242-.14a.209.209,0,0,1,.1-.028A.218.218,0,0,1,1.91.4l.2.3a.409.409,0,0,0,.3.1A.349.349,0,0,0,2.485.793.249.249,0,0,0,2.632.564L2.656.2A.217.217,0,0,1,2.87,0h.28a.217.217,0,0,1,.213.2l.024.365A.276.276,0,0,0,3.594.8l.093.029.036.011.012,0c.042,0,.116-.061.17-.143l.2-.3a.218.218,0,0,1,.18-.094.209.209,0,0,1,.1.028l.242.14a.217.217,0,0,1,.085.28l-.161.328a.275.275,0,0,0,.017.2.583.583,0,0,0,.091.167.176.176,0,0,0,.13.045.326.326,0,0,0,.141-.033L5.267,1.3a.206.206,0,0,1,.092-.021.217.217,0,0,1,.188.106l.14.242a.217.217,0,0,1-.066.284l-.3.2c-.09.061-.108.293-.09.371a.249.249,0,0,0,.229.147l.364.024a.217.217,0,0,1,.2.213v.17H3.609c0-.01,0-.02,0-.03a.591.591,0,0,0-.1-.335.606.606,0,0,0-.265-.218.6.6,0,0,0-.568.055.608.608,0,0,0-.218.265.591.591,0,0,0-.047.233c0,.01,0,.02,0,.03Z" transform="translate(2.468 16.252)"/>
          <path id="パス_14" data-name="パス 14" class="cls-21" d="M.078,0l4.27.02.488.288L0,.291Z" transform="translate(6.559 8.518) rotate(-22)"/>
          <ellipse id="楕円形_22" data-name="楕円形 22" class="cls-8" cx="1.204" cy="1.204" rx="1.204" ry="1.204" transform="translate(5.177 12.4)"/>
          <ellipse id="楕円形_23" data-name="楕円形 23" class="cls-21" cx="0.602" cy="0.602" rx="0.602" ry="0.602" transform="translate(5.779 13.002)"/>
          <ellipse id="楕円形_24" data-name="楕円形 24" class="cls-21" cx="2.709" cy="2.709" rx="2.709" ry="2.709" transform="translate(3.13 3.672)"/>
          <ellipse id="楕円形_25" data-name="楕円形 25" class="cls-22" cx="2.107" cy="2.107" rx="2.107" ry="2.107" transform="translate(3.732 4.214)"/>
          <ellipse id="楕円形_26" data-name="楕円形 26" class="cls-21" cx="0.903" cy="0.903" rx="0.903" ry="0.903" transform="translate(4.936 5.417)"/>
          <g id="グループ化_17" data-name="グループ化 17" transform="translate(5.598 7.885)">
            <ellipse id="楕円形_14" data-name="楕円形 14" class="cls-21" cx="0.903" cy="0.903" rx="0.903" ry="0.903" transform="translate(0 0)"/>
            <ellipse id="楕円形_15" data-name="楕円形 15" class="cls-8" cx="0.602" cy="0.602" rx="0.602" ry="0.602" transform="translate(0.301 0.301)"/>
            <ellipse id="楕円形_16" data-name="楕円形 16" class="cls-21" cx="0.301" cy="0.301" rx="0.301" ry="0.301" transform="translate(0.602 0.602)"/>
          </g>
          <rect id="長方形_52" data-name="長方形 52" class="cls-21" width="0.301" height="3.612" transform="matrix(0.966, -0.259, 0.259, 0.966, 5.241, 4.617)"/>
          <path id="パス_15" data-name="パス 15" class="cls-21" d="M.078,0l4.27.02.488.288L0,.291Z" transform="matrix(0.966, -0.259, 0.259, 0.966, 1.126, 4.861)"/>
          <g id="グループ化_18" data-name="グループ化 18" transform="translate(4.274 3.01)">
            <ellipse id="楕円形_14-2" data-name="楕円形 14" class="cls-21" cx="0.903" cy="0.903" rx="0.903" ry="0.903" transform="translate(0 0)"/>
            <ellipse id="楕円形_15-2" data-name="楕円形 15" class="cls-8" cx="0.602" cy="0.602" rx="0.602" ry="0.602" transform="translate(0.301 0.301)"/>
            <ellipse id="楕円形_16-2" data-name="楕円形 16" class="cls-21" cx="0.301" cy="0.301" rx="0.301" ry="0.301" transform="translate(0.602 0.602)"/>
          </g>
          <g id="グループ化_19" data-name="グループ化 19" transform="translate(8.487 4.815)">
            <ellipse id="楕円形_6" data-name="楕円形 6" class="cls-22" cx="5.417" cy="5.417" rx="5.417" ry="5.417" transform="translate(0 0)"/>
            <g id="無料の設定歯車アイコン-3" data-name="無料の設定歯車アイコン" transform="translate(0.602 0.602)">
              <path id="パス_2-2" data-name="パス 2" class="cls-21" d="M9.4,3.95,8.348,3.9a.247.247,0,0,1-.217-.152l-.216-.521a.248.248,0,0,1,.046-.262l.709-.777a.248.248,0,0,0-.008-.342L7.788.974A.248.248,0,0,0,7.446.966l-.777.709a.248.248,0,0,1-.262.046L5.886,1.5a.247.247,0,0,1-.152-.218L5.685.236A.248.248,0,0,0,5.438,0H4.2a.248.248,0,0,0-.247.236l-.048,1.05a.247.247,0,0,1-.152.218l-.521.216a.247.247,0,0,1-.262-.046L2.193.966a.248.248,0,0,0-.342.008l-.873.874a.248.248,0,0,0-.008.342l.709.777a.247.247,0,0,1,.045.262l-.216.521a.247.247,0,0,1-.218.152L.24,3.95A.248.248,0,0,0,0,4.2V5.434a.248.248,0,0,0,.236.247l1.05.049a.247.247,0,0,1,.218.152l.216.521a.247.247,0,0,1-.045.262L.97,7.442a.248.248,0,0,0,.008.342l.874.874a.248.248,0,0,0,.342.008l.777-.709a.248.248,0,0,1,.262-.046l.521.216a.247.247,0,0,1,.152.218l.048,1.05a.248.248,0,0,0,.247.236H5.438a.248.248,0,0,0,.247-.236l.049-1.05a.247.247,0,0,1,.152-.218l.521-.216a.248.248,0,0,1,.262.046l.777.709a.248.248,0,0,0,.342-.008l.873-.874a.249.249,0,0,0,.008-.342l-.709-.777A.247.247,0,0,1,7.915,6.4l.216-.521a.247.247,0,0,1,.217-.152L9.4,5.681a.248.248,0,0,0,.236-.247V4.2A.247.247,0,0,0,9.4,3.95ZM4.82,6.388A1.573,1.573,0,1,1,6.392,4.816,1.573,1.573,0,0,1,4.82,6.388Z" transform="translate(-0.004)"/>
            </g>
            <ellipse id="楕円形_7" data-name="楕円形 7" class="cls-8" cx="1.204" cy="1.204" rx="1.204" ry="1.204" transform="translate(4.214 4.214)"/>
            <ellipse id="楕円形_8" data-name="楕円形 8" class="cls-21" cx="0.602" cy="0.602" rx="0.602" ry="0.602" transform="translate(4.815 4.815)"/>
          </g>
          <g id="グループ化_20" data-name="グループ化 20" transform="translate(11.136 14.808)">
            <rect id="長方形_25" data-name="長方形 25" class="cls-22" width="5.417" height="3.612" transform="translate(0 0.843)"/>
            <path id="長方形_26" data-name="長方形 26" class="cls-21" d="M1.806,0H3.612A1.806,1.806,0,0,1,5.417,1.806v0a0,0,0,0,1,0,0H0a0,0,0,0,1,0,0v0A1.806,1.806,0,0,1,1.806,0Z" transform="translate(0 0)"/>
            <path id="パス_4" data-name="パス 4" class="cls-21" d="M0,0H1.835V.3H0Z" transform="translate(5.357 0.843)"/>
            <path id="パス_5" data-name="パス 5" class="cls-21" d="M0,0,3.578.006v.3L0,.3Z" transform="translate(6.886 4.451) rotate(-90)"/>
          </g>
          <path id="長方形_53" data-name="長方形 53" class="cls-23" d="M0,0H9.21a0,0,0,0,1,0,0V0A2.588,2.588,0,0,1,6.621,2.588H2.588A2.588,2.588,0,0,1,0,0V0A0,0,0,0,1,0,0Z" transform="translate(5.959 2.408)"/>
        </g>
      </g>
      <g id="グループ化_77" data-name="グループ化 77" transform="translate(46.187 22.662)">
        <g id="グループ化_74" data-name="グループ化 74">
          <g id="リピートグリッド_9" data-name="リピートグリッド 9" class="cls-24" transform="translate(8.775 1.462)">
            <g transform="translate(-1134 -3061)">
              <g id="長方形_134-2" data-name="長方形 134" class="cls-25" transform="translate(1134 3061)">
                <rect class="cls-38" width="443" height="25"/>
                <rect class="cls-1" x="0.5" y="0.5" width="442" height="24"/>
              </g>
            </g>
            <g transform="translate(-1134 -3037)">
              <g id="長方形_134-3" data-name="長方形 134" class="cls-25" transform="translate(1134 3061)">
                <rect class="cls-38" width="443" height="25"/>
                <rect class="cls-1" x="0.5" y="0.5" width="442" height="24"/>
              </g>
            </g>
          </g>
          <line id="線_28" data-name="線 28" class="cls-26" y2="29.25" transform="translate(9.141 1.584)"/>
          <line id="線_29" data-name="線 29" class="cls-26" x1="107.981" transform="translate(8.775 30.712)"/>
          <text id="_20_" data-name="20%" class="cls-27" transform="translate(1.706 24.644)"><tspan x="0" y="0">20%</tspan></text>
          <text id="_40_" data-name="40%" class="cls-27" transform="translate(1.706 18.55)"><tspan x="0" y="0">40%</tspan></text>
          <text id="_60_" data-name="60%" class="cls-27" transform="translate(1.706 12.456)"><tspan x="0" y="0">60%</tspan></text>
          <text id="_80_" data-name="80%" class="cls-27" transform="translate(1.706 7.094)"><tspan x="0" y="0">80%</tspan></text>
          <text id="_100_" data-name="100%" class="cls-27" transform="translate(0 1)"><tspan x="0" y="0">100%</tspan></text>
          <text id="_0_" data-name="0%" class="cls-27" transform="translate(3.656 30.737)"><tspan x="0" y="0">0%</tspan></text>
        </g>
        <g id="グループ化_73" data-name="グループ化 73" transform="translate(10.969 6.094)">
          <line id="線_11" data-name="線 11" class="cls-28" y1="10.237" x2="9.75" transform="translate(0.609 2.803)"/>
          <line id="線_12" data-name="線 12" class="cls-28" x2="6.094" y2="17.55" transform="translate(10.359 2.803)"/>
          <line id="線_13" data-name="線 13" class="cls-28" y1="10.237" x2="6.094" transform="translate(16.453 10.116)"/>
          <line id="線_14" data-name="線 14" class="cls-28" x1="2.437" y1="6.581" transform="translate(22.547 10.116)"/>
          <line id="線_15" data-name="線 15" class="cls-28" x2="9.506" y2="2.437" transform="translate(24.984 16.697)"/>
          <line id="線_16" data-name="線 16" class="cls-28" x1="5.119" y2="6.094" transform="translate(34.491 13.041)"/>
          <line id="線_17" data-name="線 17" class="cls-28" x2="4.875" transform="translate(39.609 13.041)"/>
          <line id="線_18" data-name="線 18" class="cls-28" x1="8.044" y2="7.069" transform="translate(44.484 5.972)"/>
          <line id="線_19" data-name="線 19" class="cls-28" x2="7.8" y2="3.656" transform="translate(52.528 5.972)"/>
          <line id="線_20" data-name="線 20" class="cls-28" x1="3.169" y1="7.556" transform="translate(60.328 9.628)"/>
          <line id="線_21" data-name="線 21" class="cls-28" y1="5.606" x2="6.581" transform="translate(63.497 11.578)"/>
          <line id="線_22" data-name="線 22" class="cls-28" x1="3.169" y1="3.656" transform="translate(70.078 11.578)"/>
          <line id="線_23" data-name="線 23" class="cls-28" y1="14.381" x2="7.312" transform="translate(73.247 0.853)"/>
          <line id="線_24" data-name="線 24" class="cls-28" x1="4.631" y1="15.844" transform="translate(80.559 0.853)"/>
          <line id="線_25" data-name="線 25" class="cls-28" y1="7.8" x2="4.631" transform="translate(85.191 8.897)"/>
          <line id="線_26" data-name="線 26" class="cls-28" x1="3.169" y1="5.606" transform="translate(89.822 8.897)"/>
          <line id="線_27" data-name="線 27" class="cls-28" y1="8.531" x2="9.506" transform="translate(92.991 5.972)"/>
          <ellipse id="楕円形_41" data-name="楕円形 41" class="cls-29" cx="0.853" cy="0.853" rx="0.853" ry="0.853" transform="translate(9.506 1.95)"/>
          <ellipse id="楕円形_42" data-name="楕円形 42" class="cls-29" cx="0.853" cy="0.853" rx="0.853" ry="0.853" transform="translate(15.6 19.256)"/>
          <ellipse id="楕円形_43" data-name="楕円形 43" class="cls-29" cx="0.853" cy="0.853" rx="0.853" ry="0.853" transform="translate(21.694 9.262)"/>
          <ellipse id="楕円形_44" data-name="楕円形 44" class="cls-29" cx="0.853" cy="0.853" rx="0.853" ry="0.853" transform="translate(24.131 15.844)"/>
          <ellipse id="楕円形_45" data-name="楕円形 45" class="cls-29" cx="0.853" cy="0.853" rx="0.853" ry="0.853" transform="translate(33.637 18.281)"/>
          <ellipse id="楕円形_46" data-name="楕円形 46" class="cls-29" cx="0.853" cy="0.853" rx="0.853" ry="0.853" transform="translate(38.756 12.187)"/>
          <ellipse id="楕円形_47" data-name="楕円形 47" class="cls-29" cx="0.853" cy="0.853" rx="0.853" ry="0.853" transform="translate(43.631 12.187)"/>
          <ellipse id="楕円形_48" data-name="楕円形 48" class="cls-29" cx="0.853" cy="0.853" rx="0.853" ry="0.853" transform="translate(51.675 5.119)"/>
          <ellipse id="楕円形_49" data-name="楕円形 49" class="cls-29" cx="0.853" cy="0.853" rx="0.853" ry="0.853" transform="translate(59.475 8.775)"/>
          <ellipse id="楕円形_50" data-name="楕円形 50" class="cls-29" cx="0.853" cy="0.853" rx="0.853" ry="0.853" transform="translate(62.644 16.087)"/>
          <ellipse id="楕円形_51" data-name="楕円形 51" class="cls-29" cx="0.853" cy="0.853" rx="0.853" ry="0.853" transform="translate(69.225 10.725)"/>
          <ellipse id="楕円形_52" data-name="楕円形 52" class="cls-29" cx="0.853" cy="0.853" rx="0.853" ry="0.853" transform="translate(72.394 14.381)"/>
          <ellipse id="楕円形_53" data-name="楕円形 53" class="cls-29" cx="0.853" cy="0.853" rx="0.853" ry="0.853" transform="translate(79.706)"/>
          <ellipse id="楕円形_54" data-name="楕円形 54" class="cls-29" cx="0.853" cy="0.853" rx="0.853" ry="0.853" transform="translate(84.337 15.6)"/>
          <ellipse id="楕円形_55" data-name="楕円形 55" class="cls-29" cx="0.853" cy="0.853" rx="0.853" ry="0.853" transform="translate(88.969 8.044)"/>
          <ellipse id="楕円形_56" data-name="楕円形 56" class="cls-29" cx="0.853" cy="0.853" rx="0.853" ry="0.853" transform="translate(92.137 13.65)"/>
          <ellipse id="楕円形_57" data-name="楕円形 57" class="cls-29" cx="0.853" cy="0.853" rx="0.853" ry="0.853" transform="translate(101.644 5.119)"/>
          <ellipse id="楕円形_58" data-name="楕円形 58" class="cls-29" cx="0.853" cy="0.853" rx="0.853" ry="0.853" transform="translate(0 11.944)"/>
        </g>
      </g>
      <g id="グループ化_78" data-name="グループ化 78" transform="translate(27.919 5.851)">
        <path id="パス_124" data-name="パス 124" class="cls-8" d="M.243,0A.244.244,0,0,1,.487.243V2.681a.244.244,0,0,1-.487,0V.243A.244.244,0,0,1,.243,0Z" transform="translate(0 0.349) rotate(-45)"/>
        <path id="パス_125" data-name="パス 125" class="cls-8" d="M.25,0A.244.244,0,0,1,.493.244V2.682a.244.244,0,1,1-.487,0V.244A.244.244,0,0,1,.25,0Z" transform="translate(2.064 0) rotate(45)"/>
      </g>
    </g>
    <g id="f_f_traffic_29_svg_f_traffic_29_2nbg" transform="translate(987.457 3865.138)">
      <path id="パス_56" data-name="パス 56" class="cls-1" d="M305.2,164.945l-.1.1.1.064Z" transform="translate(-302.888 -163.751)"/>
      <g id="グループ化_55" data-name="グループ化 55" transform="translate(0 0)">
        <g id="グループ化_54" data-name="グループ化 54">
          <g id="グループ化_49" data-name="グループ化 49" transform="translate(0.714)">
            <g id="グループ化_48" data-name="グループ化 48">
              <path id="パス_57" data-name="パス 57" class="cls-30" d="M209.959,38.522v1.591a.276.276,0,0,1-.149.244.26.26,0,0,1-.065.024.25.25,0,0,1-.062.007.271.271,0,0,1-.127-.031.276.276,0,0,1-.149-.244V38.522a.277.277,0,0,1,.276-.276.267.267,0,0,1,.105.022h0a.268.268,0,0,1,.04.021l.013.009.012.009.024.022a.151.151,0,0,1,.016.018.2.2,0,0,1,.016.02.186.186,0,0,1,.012.02l.007.012a.187.187,0,0,1,.014.033c0,.006,0,.011.006.017s0,.012,0,.018a.184.184,0,0,1,0,.025A.236.236,0,0,1,209.959,38.522Z" transform="translate(-208.606 -37.969)"/>
              <path id="パス_58" data-name="パス 58" class="cls-30" d="M99.219,38.522v1.591a.271.271,0,0,1-.058.167.268.268,0,0,1-.091.077.272.272,0,0,1-.253,0,.276.276,0,0,1-.149-.244V38.522h0a.277.277,0,0,1,.275-.275h0A.277.277,0,0,1,99.219,38.522Z" transform="translate(-98.668 -37.969)"/>
              <path id="パス_59" data-name="パス 59" class="cls-31" d="M319.572.309V2.268a.319.319,0,0,1-.022.119.275.275,0,0,1-.031.062.34.34,0,0,1-.287.159.324.324,0,0,1-.105-.017.34.34,0,0,1-.225-.248.322.322,0,0,1-.009-.074V.309a.31.31,0,0,1,0-.051A.335.335,0,0,1,318.969.1a.262.262,0,0,1,.024-.026.333.333,0,0,1,.1-.07h.276a.349.349,0,0,1,.125.1.336.336,0,0,1,.072.162A.394.394,0,0,1,319.572.309Z" transform="translate(-317.299 0.001)"/>
            </g>
            <path id="パス_60" data-name="パス 60" class="cls-32" d="M319.571,13.536v.043l0,0a.117.117,0,0,1-.061.018h-.55a.117.117,0,0,1-.061-.018l0,0v-.043a.306.306,0,0,1,0-.051.334.334,0,0,1,.072-.162h.527a.336.336,0,0,1,.072.162A.389.389,0,0,1,319.571,13.536Z" transform="translate(-317.298 -13.227)"/>
            <path id="パス_61" data-name="パス 61" class="cls-31" d="M313.007.113V.164a.114.114,0,0,1-.113.113h-.55a.114.114,0,0,1-.113-.113V.113A.113.113,0,0,1,312.344,0h.55A.114.114,0,0,1,313.007.113Z" transform="translate(-310.685 0)"/>
          </g>
          <path id="パス_62" data-name="パス 62" class="cls-33" d="M3.706,149.652l-.011.141h0l-.014.2-.012.164-.024.323-.04.546-.01.13H.154l-.074-1L.055,149.8l-.042-.568,0-.023v0L0,149.062l.116.071.6.368.244.151h0l-.016-.439h0l-.006-.15.328.207.25.158.338.212.022.014v-.59l.192.124.241.155.482.311h0l.016-.441.006-.149.175.116Z" transform="translate(0 -147.983)"/>
          <path id="パス_63" data-name="パス 63" class="cls-34" d="M5.174,170.181l-.015.2-.012.164-.024.323-.04.546h0l-.01.13-.01.126H1.642l-.008-.111v-.015l-.074-1-.026-.347-.043-.568,0-.023h0v0l.016.01.687.42.25.153-.006-.142-.016-.44h0l.322.2.25.157.338.211.022.014V169.6h0l.192.123.2.125.045.029.477.3.005-.142.016-.441.181.119.708.464h0Z" transform="translate(-1.478 -168.369)"/>
          <g id="グループ化_53" data-name="グループ化 53" transform="translate(0.324 2.102)">
            <g id="グループ化_50" data-name="グループ化 50">
              <rect id="長方形_98" data-name="長方形 98" class="cls-35" width="0.884" height="0.286"/>
              <rect id="長方形_99" data-name="長方形 99" class="cls-35" width="0.884" height="0.286" transform="translate(0 0.347)"/>
            </g>
            <g id="グループ化_51" data-name="グループ化 51" transform="translate(1.109)">
              <rect id="長方形_100" data-name="長方形 100" class="cls-35" width="0.884" height="0.286"/>
              <rect id="長方形_101" data-name="長方形 101" class="cls-35" width="0.884" height="0.286" transform="translate(0 0.347)"/>
            </g>
            <g id="グループ化_52" data-name="グループ化 52" transform="translate(2.218)">
              <rect id="長方形_102" data-name="長方形 102" class="cls-35" width="0.884" height="0.286"/>
              <rect id="長方形_103" data-name="長方形 103" class="cls-35" width="0.884" height="0.286" transform="translate(0 0.347)"/>
            </g>
          </g>
        </g>
        <path id="パス_64" data-name="パス 64" class="cls-36" d="M257.892,1.669l-.01.143-.015.2-.012.164-.064.869h0l-.01.13-.01.126h-1.732V.285a.269.269,0,0,1,.085.036l.013.009.012.009.024.022a.153.153,0,0,1,.016.018l.016.02a.189.189,0,0,1,.012.02l.007.012a.189.189,0,0,1,.014.033c0,.006,0,.011.006.017s0,.012,0,.018a.189.189,0,0,1,0,.025.239.239,0,0,1,0,.028V1.2l.241.155V.31a.313.313,0,0,1,0-.051.111.111,0,0,1-.052-.095V.113A.113.113,0,0,1,256.559,0h.55a.114.114,0,0,1,.113.113V.164a.113.113,0,0,1-.052.095.389.389,0,0,1,0,.051v.884Z" transform="translate(-254.186 0)"/>
      </g>
    </g>
    <text id="Factory_IoT" data-name="Factory × IoT" class="cls-37" transform="translate(992.819 3866.87)"><tspan x="0" y="0">Factory × IoT</tspan></text>
  </g>
</svg>
