<svg xmlns="http://www.w3.org/2000/svg" xmlns:xlink="http://www.w3.org/1999/xlink" viewBox="3865.513 3337.026 738.462 471.795">
  <defs>
    <style>
      .cls-1, .cls-27, .cls-29, .cls-33, .cls-34, .cls-35, .cls-36 {
        fill: none;
      }

      .cls-10, .cls-12, .cls-2, .cls-20, .cls-21, .cls-26, .cls-7 {
        fill: #fff;
      }

      .cls-2, .cls-27, .cls-4, .cls-7 {
        stroke: #999;
      }

      .cls-10, .cls-2 {
        stroke-width: 2px;
      }

      .cls-3 {
        fill: #b3b3b3;
      }

      .cls-4, .cls-5, .cls-6 {
        fill: #e6e6e6;
      }

      .cls-4, .cls-7 {
        stroke-width: 0.5px;
      }

      .cls-32, .cls-8 {
        fill: #999;
      }

      .cls-8 {
        font-size: 10px;
      }

      .cls-28, .cls-8 {
        font-family: ArialRoundedMTBold, Arial Rounded MT;
      }

      .cls-28, .cls-9 {
        fill: #333;
      }

      .cls-10 {
        stroke: #666;
      }

      .cls-11 {
        fill: #436cdb;
      }

      .cls-12 {
        font-size: 30px;
        font-family: YuGothicUI-Bold, Yu Gothic UI;
        font-weight: 700;
      }

      .cls-13 {
        fill: #db4343;
      }

      .cls-14 {
        fill: #feb50d;
      }

      .cls-15 {
        fill: #f5c972;
      }

      .cls-16 {
        fill: #331a00;
      }

      .cls-17 {
        fill: #1a0d00;
      }

      .cls-18 {
        fill: #e2994d;
      }

      .cls-19 {
        fill: #af906c;
      }

      .cls-21 {
        stroke: #331a00;
      }

      .cls-22 {
        fill: #ccc;
      }

      .cls-23 {
        fill: #666;
      }

      .cls-24 {
        fill: #4d4d4d;
      }

      .cls-25 {
        clip-path: url(#clip-path);
      }

      .cls-26 {
        stroke: #ccc;
      }

      .cls-27, .cls-29 {
        stroke-width: 3px;
      }

      .cls-28 {
        font-size: 12px;
      }

      .cls-29 {
        stroke: #314e8a;
      }

      .cls-30 {
        fill: #314e8a;
      }

      .cls-31, .cls-32 {
        stroke: none;
      }

      .cls-33 {
        clip-path: url(#clip);
      }

      .cls-34 {
        clip-path: url(#clip-2);
      }

      .cls-35 {
        clip-path: url(#clip-3);
      }

      .cls-36 {
        clip-path: url(#clip-4);
      }
    </style>
    <clipPath id="clip-path">
      <rect class="cls-1" width="443" height="121"/>
    </clipPath>
    <clipPath id="clip">
      <use xlink:href="#fill"/>
    </clipPath>
    <clipPath id="clip-2">
      <use xlink:href="#fill-2"/>
    </clipPath>
    <clipPath id="clip-3">
      <use xlink:href="#fill-3"/>
    </clipPath>
    <clipPath id="clip-4">
      <use xlink:href="#fill-4"/>
    </clipPath>
  </defs>
  <g id="グループ化_79" data-name="グループ化 79" transform="translate(2885 -523)">
    <g id="display" transform="translate(586 1760)">
      <g id="長方形_57" data-name="長方形 57" class="cls-2" transform="translate(394.513 2100.026)">
        <rect class="cls-31" width="738.462" height="471.795"/>
        <rect class="cls-1" x="1" y="1" width="736.462" height="469.795"/>
      </g>
      <g id="グループ化_68" data-name="グループ化 68" transform="translate(-534 -790)">
        <g id="グループ化_65" data-name="グループ化 65" transform="translate(0 10)">
          <path id="パス_65" data-name="パス 65" class="cls-3" d="M-7.841.063c1.448,0,19.084,0,19.084,0C14.639.038,15.487,1.1,16.4,2.353l7.1,10.806c1.264,1.991.23,1.927-2.648,1.95,0,0-15.72,0-18.584,0a4.255,4.255,0,0,1-3.882-2.181c-.014-.006-.014-.006-3.314-5.667S-9.288.058-7.841.063Z" transform="translate(1069 2900)"/>
          <g id="タブ">
            <g id="長方形_125" data-name="長方形 125" class="cls-4" transform="translate(930.513 2918.026)">
              <rect class="cls-31" width="734.462" height="20"/>
              <rect class="cls-1" x="0.25" y="0.25" width="733.962" height="19.5"/>
            </g>
            <g id="パス_66" data-name="パス 66" class="cls-5" transform="translate(928.513 2898.026)">
              <path class="cls-31" d="M 2.422841787338257 39.76558685302734 L 25.14095878601074 0.2499943226575851 L 124.8577880859375 0.2499943226575851 L 149.5489349365234 39.75004196166992 L 2.422841787338257 39.76558685302734 Z"/>
              <path class="cls-32" d="M 2.854960203170776 39.51554107666016 L 149.0978698730469 39.50008773803711 L 124.7192230224609 0.4999924898147583 L 25.28559303283691 0.4999924898147583 L 2.854960203170776 39.51554107666016 M 1.990721344947815 40.01563262939453 L 24.9963207244873 -7.499999810534064e-06 L 124.9963226318359 -7.499999810534064e-06 L 150 39.99999237060547 L 1.990721344947815 40.01563262939453 Z"/>
            </g>
            <rect id="長方形_126" data-name="長方形 126" class="cls-6" width="734.462" height="19.5" transform="translate(930.513 2918.5)"/>
          </g>
          <g id="グループ化_66" data-name="グループ化 66" transform="translate(1.991 6)">
            <g id="長方形_125-2" data-name="長方形 125" class="cls-4" transform="translate(928.513 2918.026)">
              <rect class="cls-31" width="734.471" height="20"/>
              <rect class="cls-1" x="0.25" y="0.25" width="733.971" height="19.5"/>
            </g>
            <rect id="長方形_126-2" data-name="長方形 126" class="cls-6" width="734.471" height="20.5" transform="translate(928.513 2917.1)"/>
          </g>
        </g>
        <g id="グループ化_67" data-name="グループ化 67">
          <g id="長方形_127" data-name="長方形 127" class="cls-7" transform="translate(995 2932)">
            <rect class="cls-31" width="642" height="18" rx="1"/>
            <rect class="cls-1" x="0.25" y="0.25" width="641.5" height="17.5" rx="0.75"/>
          </g>
          <text id="https:_xxxxxxx.xxxx.co.jp_xxxxxxxxxx" data-name="https://xxxxxxx.xxxx.co.jp/xxxxxxxxxx" class="cls-8" transform="translate(1003 2945)"><tspan x="0" y="0">https://xxxxxxx.xxxx.co.jp/xxxxxxxxxx</tspan></text>
        </g>
        <g id="reload" transform="translate(978.709 2927.632) rotate(49)">
          <rect id="長方形_130" data-name="長方形 130" class="cls-6" width="18" height="18" transform="translate(-1.761 8.684) rotate(-49)"/>
          <path id="パス_66-2" data-name="パス 66" class="cls-9" d="M14.434,2.541a.581.581,0,0,0-.68.943A5.168,5.168,0,1,1,9.96,2.56a.274.274,0,0,0,.032-.008L10.016,3.7a.315.315,0,0,0,.541.211l1.653-1.725a.315.315,0,0,0-.009-.445L10.476.088a.315.315,0,0,0-.444.01.319.319,0,0,0-.088.224l.023,1.094a.581.581,0,0,0-.18,0,6.329,6.329,0,1,0,4.648,1.129Z" transform="translate(0 0)"/>
        </g>
        <g id="矢印アイコン_左2" data-name="矢印アイコン　左2" transform="translate(937 2921.702)">
          <rect id="長方形_128" data-name="長方形 128" class="cls-6" width="18" height="18" transform="translate(-2 10.298)"/>
          <path id="パス_67" data-name="パス 67" class="cls-9" d="M12.843,17.8H3.974l3.564-3.526A1.158,1.158,0,1,0,5.91,12.632L.344,18.138a1.157,1.157,0,0,0,0,1.646L5.91,25.291a1.157,1.157,0,0,0,1.628-1.646L3.974,20.119h8.869a1.157,1.157,0,1,0,0-2.315Z" transform="translate(0)"/>
        </g>
        <g id="矢印アイコン_左2-2" data-name="矢印アイコン　左2" transform="translate(955 2921.885)">
          <rect id="長方形_129" data-name="長方形 129" class="cls-6" width="18" height="18" transform="translate(-2 10.115)"/>
          <path id="パス_67-2" data-name="パス 67" class="cls-3" d="M1.157,17.8h8.869L6.462,14.278A1.158,1.158,0,1,1,8.09,12.632l5.567,5.506a1.157,1.157,0,0,1,0,1.646L8.09,25.291a1.157,1.157,0,0,1-1.628-1.646l3.564-3.526H1.157a1.157,1.157,0,1,1,0-2.315Z" transform="translate(0)"/>
        </g>
        <g id="三点リーダーアイコン2" transform="translate(1449.091 2934)">
          <rect id="長方形_131" data-name="長方形 131" class="cls-6" width="18" height="18" transform="translate(193.909 -2)"/>
          <circle id="楕円形_35" data-name="楕円形 35" class="cls-9" cx="1.506" cy="1.506" r="1.506" transform="translate(200.909 0)"/>
          <path id="パス_68" data-name="パス 68" class="cls-9" d="M1.506,0A1.506,1.506,0,1,1,0,1.506,1.506,1.506,0,0,1,1.506,0Z" transform="translate(200.909 5.494)"/>
          <path id="パス_69" data-name="パス 69" class="cls-9" d="M1.506,0A1.506,1.506,0,1,1,0,1.506,1.506,1.506,0,0,1,1.506,0Z" transform="translate(200.909 10.987)"/>
        </g>
        <g id="星アイコン8" transform="translate(1620.001 2924.569)">
          <path id="パス_70" data-name="パス 70" class="cls-9" d="M12,15.085a1.068,1.068,0,0,0-.051-.327h0a1.069,1.069,0,0,0-1.017-.741h-3l-.913-2.844a1.069,1.069,0,0,0-2.035,0l.462.148-.462-.148-.913,2.844h-3a1.069,1.069,0,0,0-1.017.741h0a1.069,1.069,0,0,0,.395,1.2h0L2.875,17.7l-.936,2.84h0a1.068,1.068,0,0,0,.386,1.2h0a1.069,1.069,0,0,0,1.26,0h0L6,19.967l2.413,1.768h0a1.069,1.069,0,0,0,1.259,0h0a1.069,1.069,0,0,0,.387-1.2L9.123,17.7l2.43-1.745h0A1.069,1.069,0,0,0,12,15.085Zm-1.011.08h0l-2.72,1.953a.484.484,0,0,0-.178.546l1.047,3.178,0,.031a.1.1,0,0,1-.041.08h0a.1.1,0,0,1-.058.019.1.1,0,0,1-.059-.019h0l-2.7-1.978a.486.486,0,0,0-.574,0l-2.7,1.978a.1.1,0,0,1-.058.019.1.1,0,0,1-.058-.019.1.1,0,0,1-.041-.08l0-.03h0l1.047-3.178a.484.484,0,0,0-.178-.546L1.01,15.165h0a.1.1,0,0,1-.041-.08l0-.03a.1.1,0,0,1,.094-.068H4.422a.485.485,0,0,0,.462-.337l1.021-3.181a.1.1,0,0,1,.188,0l1.021,3.18a.485.485,0,0,0,.462.337H10.93a.1.1,0,0,1,.094.068l0,.03A.1.1,0,0,1,10.988,15.165Z" transform="translate(0)"/>
        </g>
      </g>
      <g id="長方形_134" data-name="長方形 134" class="cls-10" transform="translate(464 2347)">
        <rect class="cls-31" width="600" height="200" rx="20"/>
        <rect class="cls-1" x="1" y="1" width="598" height="198" rx="19"/>
      </g>
      <g id="グループ化_69" data-name="グループ化 69" transform="translate(-601 -690)">
        <g id="ok" transform="translate(104 55)">
          <rect id="長方形_132" data-name="長方形 132" class="cls-11" width="130" height="40" rx="10" transform="translate(1101 3002)"/>
          <text id="OK-2" data-name="OK" class="cls-12" transform="translate(1146 3034)"><tspan x="0" y="0">OK</tspan></text>
        </g>
        <g id="ok-3" data-name="ok" transform="translate(374 55)">
          <rect id="長方形_132-2" data-name="長方形 132" class="cls-11" width="130" height="40" rx="10" transform="translate(1101 3002)"/>
          <text id="OK-4" data-name="OK" class="cls-12" transform="translate(1146 3034)"><tspan x="0" y="0">OK</tspan></text>
        </g>
        <g id="ok-5" data-name="ok" transform="translate(104 110)">
          <rect id="長方形_132-3" data-name="長方形 132" class="cls-11" width="130" height="40" rx="10" transform="translate(1101 3002)"/>
          <text id="OK-6" data-name="OK" class="cls-12" transform="translate(1146 3034)"><tspan x="0" y="0">OK</tspan></text>
        </g>
        <g id="ok-7" data-name="ok" transform="translate(374 115)">
          <rect id="長方形_132-4" data-name="長方形 132" class="cls-13" width="130" height="40" rx="10" transform="translate(1101 3002)"/>
          <text id="FAILURE" class="cls-12" transform="translate(1110 3034)"><tspan x="0" y="0">FAILURE</tspan></text>
        </g>
        <g id="ok-8" data-name="ok" transform="translate(104 170)">
          <rect id="長方形_132-5" data-name="長方形 132" class="cls-14" width="130" height="40" rx="10" transform="translate(1101 3002)"/>
          <text id="WARN" class="cls-12" transform="translate(1122 3034)"><tspan x="0" y="0">WARN</tspan></text>
        </g>
        <g id="ok-9" data-name="ok" transform="translate(374 175)">
          <rect id="長方形_132-6" data-name="長方形 132" class="cls-11" width="130" height="40" rx="10" transform="translate(1101 3002)"/>
          <text id="OK-10" data-name="OK" class="cls-12" transform="translate(1146 3034)"><tspan x="0" y="0">OK</tspan></text>
        </g>
        <g id="無料の設定アイコン" transform="translate(1125 3057)">
          <path id="パス_72" data-name="パス 72" class="cls-9" d="M34.661,23.884A1.833,1.833,0,0,1,36.25,22.51l2.424-.162A1.444,1.444,0,0,0,40,20.93V19.07a1.444,1.444,0,0,0-1.326-1.417l-2.422-.161a1.658,1.658,0,0,1-1.522-.978c-.107-.488-.006-2.061.6-2.468l2.015-1.35a1.445,1.445,0,0,0,.439-1.89l-.93-1.611A1.445,1.445,0,0,0,35,8.63L32.817,9.7a1.657,1.657,0,0,1-1.8-.081c-.336-.366-1.04-1.785-.718-2.439L31.37,5a1.446,1.446,0,0,0-.564-1.858l-1.611-.93a1.445,1.445,0,0,0-1.89.439L25.952,4.67c-.406.608-.951,1.03-1.21.936l-.24-.074-.618-.193A1.835,1.835,0,0,1,22.51,3.75l-.162-2.424A1.444,1.444,0,0,0,20.93,0H19.07a1.444,1.444,0,0,0-1.417,1.326L17.49,3.748a1.658,1.658,0,0,1-.977,1.522c-.488.107-2.061.006-2.468-.6L12.7,2.654a1.445,1.445,0,0,0-1.89-.439l-1.611.93A1.446,1.446,0,0,0,8.63,5L9.7,7.183a1.658,1.658,0,0,1-.081,1.8c-.367.336-1.785,1.04-2.439.718L5,8.63a1.444,1.444,0,0,0-1.857.564l-.93,1.611a1.445,1.445,0,0,0,.439,1.89L4.67,14.047c.608.406,1.029.952.937,1.21l-.076.24-.193.619A1.839,1.839,0,0,1,3.75,17.491l-2.424.161A1.443,1.443,0,0,0,0,19.07v1.86a1.443,1.443,0,0,0,1.326,1.417l2.422.162a1.656,1.656,0,0,1,1.522.977c.107.488.006,2.061-.6,2.468L2.654,27.3a1.445,1.445,0,0,0-.439,1.89l.93,1.611A1.445,1.445,0,0,0,5,31.37L7.183,30.3a1.658,1.658,0,0,1,1.8.081c.334.366,1.04,1.785.718,2.439L8.63,35a1.444,1.444,0,0,0,.564,1.857l1.611.93a1.445,1.445,0,0,0,1.89-.439l1.353-2.017c.405-.608.95-1.03,1.209-.937l.24.076.619.193A1.834,1.834,0,0,1,17.49,36.25l.162,2.424A1.444,1.444,0,0,0,19.07,40h1.86a1.444,1.444,0,0,0,1.417-1.326l.161-2.422a1.658,1.658,0,0,1,.978-1.522c.488-.107,2.061-.006,2.468.6l1.35,2.017a1.445,1.445,0,0,0,1.89.439l1.611-.93A1.445,1.445,0,0,0,31.37,35L30.3,32.817a1.658,1.658,0,0,1,.081-1.8c.366-.336,1.785-1.04,2.439-.718L35,31.37a1.445,1.445,0,0,0,1.858-.564l.93-1.611a1.445,1.445,0,0,0-.439-1.89L35.33,25.952c-.608-.405-1.029-.951-.937-1.209l.076-.24ZM23.676,21.55a4.018,4.018,0,0,1-1.45,1.758,3.88,3.88,0,0,1-1.038.5,4.03,4.03,0,0,1-2.738-.133,4.026,4.026,0,0,1-1.758-1.45,3.9,3.9,0,0,1-.5-1.038,4.03,4.03,0,0,1,.133-2.738,4.028,4.028,0,0,1,1.45-1.759,3.914,3.914,0,0,1,1.038-.5,4.03,4.03,0,0,1,2.738.133,4.018,4.018,0,0,1,1.758,1.45,3.915,3.915,0,0,1,.5,1.038,4.03,4.03,0,0,1-.133,2.738Z"/>
        </g>
        <g id="電池のフリーアイコン素材" transform="translate(1125 3080.076)">
          <path id="パス_73" data-name="パス 73" class="cls-9" d="M74.455,208.056h9.211l-9.211-10.98Z" transform="translate(-68.638 -89.562)"/>
          <path id="パス_74" data-name="パス 74" class="cls-9" d="M95.558,174.381l10.7,12.753h10.6l-10.7-12.753Z" transform="translate(-88.093 -68.64)"/>
          <path id="パス_75" data-name="パス 75" class="cls-9" d="M280.157,184.723V174.381H271.48Z" transform="translate(-250.271 -68.64)"/>
          <path id="パス_76" data-name="パス 76" class="cls-9" d="M35.7,105.2V99.924H0v24.387H35.7v-5.275H40V105.2Zm-3.61,10.226V120.7H3.61V103.535H32.093v5.275h4.3v6.615Z"/>
        </g>
        <g id="iconsvg20404" transform="translate(1105.399 3104.801)">
          <path id="パス_77" data-name="パス 77" class="cls-9" d="M35.723,67.876a.466.466,0,0,0-.4-.234H31.153a.467.467,0,0,0-.4.234l-2.085,3.608a.466.466,0,0,0,0,.467l2.085,3.607a.467.467,0,0,0,.4.234h4.165a.466.466,0,0,0,.4-.234l2.084-3.607a.466.466,0,0,0,0-.467ZM33.236,74.5a2.786,2.786,0,1,1,2.786-2.787A2.79,2.79,0,0,1,33.236,74.5Z" transform="translate(0 -32.2)"/>
          <path id="パス_78" data-name="パス 78" class="cls-9" d="M36.409,72.4a1.852,1.852,0,1,0,1.852,1.851A1.854,1.854,0,0,0,36.409,72.4Z" transform="translate(-3.173 -34.735)"/>
          <path id="パス_79" data-name="パス 79" class="cls-9" d="M38.1,54.766a.468.468,0,0,0-.592-.294l-4.638,1.557a.468.468,0,0,0,.3.886l4.638-1.557A.468.468,0,0,0,38.1,54.766Z" transform="translate(-2.107 -25.171)"/>
          <path id="パス_80" data-name="パス 80" class="cls-9" d="M38.1,50.766a.467.467,0,0,0-.592-.294l-4.638,1.557a.468.468,0,0,0,.3.886l4.638-1.557A.468.468,0,0,0,38.1,50.766Z" transform="translate(-2.107 -23.039)"/>
          <path id="パス_81" data-name="パス 81" class="cls-9" d="M38.1,46.766a.468.468,0,0,0-.592-.294l-4.638,1.557a.468.468,0,0,0,.3.886l4.638-1.557A.468.468,0,0,0,38.1,46.766Z" transform="translate(-2.107 -20.909)"/>
          <path id="パス_82" data-name="パス 82" class="cls-9" d="M38.1,41.766a.467.467,0,0,0-.592-.294l-4.638,1.557a.468.468,0,0,0,.3.886l4.638-1.557A.468.468,0,0,0,38.1,41.766Z" transform="translate(-2.107 -18.245)"/>
          <path id="パス_83" data-name="パス 83" class="cls-9" d="M38.1,36.766a.468.468,0,0,0-.592-.294l-4.638,1.557a.468.468,0,0,0,.3.886l4.638-1.557A.468.468,0,0,0,38.1,36.766Z" transform="translate(-2.107 -15.581)"/>
          <path id="パス_84" data-name="パス 84" class="cls-9" d="M37.464,57.8l-3.271.935a.468.468,0,0,0-.339.45v1.635a.467.467,0,0,0,.467.467h3.271a.467.467,0,0,0,.467-.467v-2.57a.467.467,0,0,0-.6-.45Z" transform="translate(-2.799 -26.946)"/>
          <path id="パス_85" data-name="パス 85" class="cls-9" d="M34.321,31.876a.461.461,0,0,0,.184-.038l3.271-1.4a.467.467,0,0,0,.283-.429V26.58a.467.467,0,0,0-.467-.467H34.321a.467.467,0,0,0-.467.467v4.829a.467.467,0,0,0,.467.467Z" transform="translate(-2.799 -10.076)"/>
          <path id="パス_86" data-name="パス 86" class="cls-9" d="M30.321,20.453h6.853a.467.467,0,0,0,.467-.467V16.247a.467.467,0,0,0-.467-.467H30.321a.467.467,0,0,0-.467.467v3.738A.467.467,0,0,0,30.321,20.453Z" transform="translate(-0.668 -4.571)"/>
          <path id="パス_87" data-name="パス 87" class="cls-9" d="M66.6,46.185a.468.468,0,0,0-.592-.294l-4.638,1.557a.468.468,0,0,0,.3.886l4.638-1.557A.468.468,0,0,0,66.6,46.185Z" transform="translate(-17.29 -20.599)"/>
          <path id="パス_88" data-name="パス 88" class="cls-9" d="M66.6,42.185a.467.467,0,0,0-.592-.294l-4.638,1.557a.468.468,0,0,0,.3.886l4.638-1.557A.468.468,0,0,0,66.6,42.185Z" transform="translate(-17.29 -18.468)"/>
          <path id="パス_89" data-name="パス 89" class="cls-9" d="M66.6,38.185a.468.468,0,0,0-.592-.294l-4.638,1.557a.468.468,0,0,0,.3.886l4.638-1.557A.468.468,0,0,0,66.6,38.185Z" transform="translate(-17.29 -16.338)"/>
          <path id="パス_90" data-name="パス 90" class="cls-9" d="M66.6,33.185a.467.467,0,0,0-.592-.294l-4.638,1.557a.468.468,0,0,0,.3.886l4.638-1.557A.468.468,0,0,0,66.6,33.185Z" transform="translate(-17.29 -13.674)"/>
          <path id="パス_91" data-name="パス 91" class="cls-9" d="M66.6,28.185a.468.468,0,0,0-.592-.294l-4.638,1.557a.468.468,0,0,0,.3.886l4.638-1.557A.468.468,0,0,0,66.6,28.185Z" transform="translate(-17.29 -11.01)"/>
          <path id="パス_92" data-name="パス 92" class="cls-9" d="M65.964,49.217l-3.271.935a.468.468,0,0,0-.339.45v1.635a.467.467,0,0,0,.467.467h3.271a.467.467,0,0,0,.467-.467v-2.57a.469.469,0,0,0-.186-.373A.474.474,0,0,0,65.964,49.217Z" transform="translate(-17.981 -22.375)"/>
          <path id="パス_93" data-name="パス 93" class="cls-9" d="M62.821,23.3a.461.461,0,0,0,.184-.038l3.271-1.4a.467.467,0,0,0,.283-.429V18a.467.467,0,0,0-.467-.467H62.821a.467.467,0,0,0-.467.467v4.829a.467.467,0,0,0,.467.467Z" transform="translate(-17.981 -5.505)"/>
          <path id="パス_94" data-name="パス 94" class="cls-9" d="M58.821,11.872h6.853a.467.467,0,0,0,.467-.467V7.666a.467.467,0,0,0-.467-.467H58.821a.467.467,0,0,0-.467.467V11.4A.467.467,0,0,0,58.821,11.872Z" transform="translate(-15.85)"/>
          <path id="パス_95" data-name="パス 95" class="cls-9" d="M63.628,66.069a5.062,5.062,0,1,0-5.426,0l-1.858,3.218a.466.466,0,0,0,0,.467l2.084,3.607a.466.466,0,0,0,.4.234H63a.466.466,0,0,0,.4-.234l2.084-3.607a.466.466,0,0,0,0-.467Zm-2.713,5.3a1.852,1.852,0,1,1,1.852-1.853A1.854,1.854,0,0,1,60.916,71.373Zm0-7.311a2.252,2.252,0,1,1,2.252-2.252A2.254,2.254,0,0,1,60.916,64.062Z" transform="translate(-14.519 -26.396)"/>
          <circle id="楕円形_36" data-name="楕円形 36" class="cls-9" cx="1.317" cy="1.317" r="1.317" transform="translate(45.08 34.097)"/>
        </g>
        <g id="電球のアイコン素材" transform="translate(1282.557 3057)">
          <path id="パス_96" data-name="パス 96" class="cls-9" d="M140.607,157.216l-16.648,5.509c-.05.017-.093.043-.142.062a2.083,2.083,0,0,0-.212.1,1.886,1.886,0,0,0-.168.11c-.056.039-.115.076-.167.12s-.1.1-.151.148-.092.092-.133.142-.079.112-.117.168-.076.111-.107.171-.054.121-.079.182a2.073,2.073,0,0,0-.076.194c-.02.065-.031.134-.045.2s-.028.129-.035.2,0,.155,0,.232c0,.053-.007.1,0,.155,0,.011,0,.021.006.033.007.067.024.134.038.2a2.117,2.117,0,0,0,.049.222c0,.01,0,.021.007.029a2.335,2.335,0,0,0,.116.277c.012.024.026.049.039.073a2.26,2.26,0,0,0,.182.281c.026.032.054.06.081.09a1.94,1.94,0,0,0,.178.182c.033.029.067.059.1.085a2.124,2.124,0,0,0,.205.142c.037.022.071.045.109.066a2.43,2.43,0,0,0,.294.129c.016,0,.029.013.045.018a2.111,2.111,0,0,0,.371.081c.031,0,.062.006.094.009.061.006.125.015.187.015.039,0,.077-.007.116-.009a.467.467,0,0,1,.059,0,2.918,2.918,0,0,1,2.319.831,5.607,5.607,0,0,1,1.119,1.5H127.4a1.687,1.687,0,0,0-1.687,1.688v5.2a1.687,1.687,0,0,0,1.687,1.687h1.5v.641a.613.613,0,0,0,0,1.226v.612a.612.612,0,0,0,0,1.224v1.317c0,1.224.735,1.346,1.959,1.346,0,0,.245.735,2.571.735S136,184.1,136,184.1c1.224,0,1.958-.122,1.958-1.346v-1.329a.612.612,0,0,0,0-1.2v-.636a.612.612,0,0,0,0-1.2v-.654h1.619a1.687,1.687,0,0,0,1.687-1.687v-5.2a1.687,1.687,0,0,0-1.687-1.688h-.739a4.794,4.794,0,0,1,1.968-2.311,2.109,2.109,0,0,0-2.019-3.7,9.536,9.536,0,0,0-4.416,6.014h-1.593a10.948,10.948,0,0,0-2.34-4.139l11.5-3.8a2.109,2.109,0,0,0-1.326-4Z" transform="translate(-0.068 -144.835)"/>
          <path id="パス_97" data-name="パス 97" class="cls-9" d="M124.553,80.1a2.127,2.127,0,0,0,.663-.106l16.649-5.51a2.109,2.109,0,1,0-1.326-4l-16.648,5.509a2.109,2.109,0,0,0,.662,4.111Z" transform="translate(0 -64.878)"/>
          <path id="パス_98" data-name="パス 98" class="cls-9" d="M142.413,8.074a2.126,2.126,0,0,0,.663-.107l11.655-3.856a2.109,2.109,0,1,0-1.326-4L141.751,3.963a2.109,2.109,0,0,0,.662,4.111Z" transform="translate(-16.465 0)"/>
        </g>
        <g id="CPUアイコン3" transform="translate(1395 3176)">
          <path id="パス_99" data-name="パス 99" class="cls-9" d="M134.608,1.171A1.171,1.171,0,0,0,133.437,0h-.431a1.171,1.171,0,0,0-1.17,1.171v3.24h2.772Z" transform="translate(-121.536)"/>
          <path id="パス_100" data-name="パス 100" class="cls-9" d="M205.563,1.171A1.171,1.171,0,0,0,204.392,0h-.43a1.171,1.171,0,0,0-1.17,1.171v3.24h2.771Z" transform="translate(-186.949)"/>
          <path id="パス_101" data-name="パス 101" class="cls-9" d="M276.51,1.171A1.171,1.171,0,0,0,275.339,0h-.43a1.171,1.171,0,0,0-1.17,1.171v3.24h2.771Z" transform="translate(-252.353)"/>
          <path id="パス_102" data-name="パス 102" class="cls-9" d="M347.458,1.171A1.171,1.171,0,0,0,346.287,0h-.431a1.171,1.171,0,0,0-1.17,1.171v3.24h2.772Z" transform="translate(-317.757)"/>
          <path id="パス_103" data-name="パス 103" class="cls-9" d="M131.836,458.789a1.171,1.171,0,0,0,1.17,1.171h.431a1.171,1.171,0,0,0,1.17-1.171V455.55h-2.772Z" transform="translate(-121.536 -419.96)"/>
          <path id="パス_104" data-name="パス 104" class="cls-9" d="M202.792,458.789a1.171,1.171,0,0,0,1.17,1.171h.43a1.171,1.171,0,0,0,1.17-1.171V455.55h-2.771Z" transform="translate(-186.949 -419.96)"/>
          <path id="パス_105" data-name="パス 105" class="cls-9" d="M273.739,458.789a1.171,1.171,0,0,0,1.17,1.171h.43a1.171,1.171,0,0,0,1.17-1.171V455.55h-2.771Z" transform="translate(-252.353 -419.96)"/>
          <path id="パス_106" data-name="パス 106" class="cls-9" d="M344.686,458.789a1.171,1.171,0,0,0,1.17,1.171h.431a1.171,1.171,0,0,0,1.17-1.171V455.55h-2.772Z" transform="translate(-317.757 -419.96)"/>
          <path id="パス_107" data-name="パス 107" class="cls-9" d="M458.79,131.836h-3.24v2.772h3.24a1.171,1.171,0,0,0,1.17-1.171v-.429A1.171,1.171,0,0,0,458.79,131.836Z" transform="translate(-419.96 -121.536)"/>
          <path id="パス_108" data-name="パス 108" class="cls-9" d="M458.79,202.793h-3.24v2.771h3.24a1.171,1.171,0,0,0,1.17-1.17v-.429A1.171,1.171,0,0,0,458.79,202.793Z" transform="translate(-419.96 -186.95)"/>
          <path id="パス_109" data-name="パス 109" class="cls-9" d="M458.79,273.739h-3.24v2.771h3.24a1.171,1.171,0,0,0,1.17-1.171v-.429A1.171,1.171,0,0,0,458.79,273.739Z" transform="translate(-419.96 -252.353)"/>
          <path id="パス_110" data-name="パス 110" class="cls-9" d="M458.79,344.686h-3.24v2.772h3.24a1.171,1.171,0,0,0,1.17-1.171v-.429A1.171,1.171,0,0,0,458.79,344.686Z" transform="translate(-419.96 -317.757)"/>
          <path id="パス_111" data-name="パス 111" class="cls-9" d="M0,133.006v.429a1.171,1.171,0,0,0,1.17,1.171h3.24v-2.772H1.17A1.171,1.171,0,0,0,0,133.006Z" transform="translate(0 -121.535)"/>
          <path id="パス_112" data-name="パス 112" class="cls-9" d="M0,203.964v.429a1.171,1.171,0,0,0,1.17,1.17h3.24v-2.771H1.17A1.171,1.171,0,0,0,0,203.964Z" transform="translate(0 -186.95)"/>
          <path id="パス_113" data-name="パス 113" class="cls-9" d="M0,274.909v.429a1.171,1.171,0,0,0,1.17,1.171h3.24v-2.771H1.17A1.171,1.171,0,0,0,0,274.909Z" transform="translate(0 -252.353)"/>
          <path id="パス_114" data-name="パス 114" class="cls-9" d="M0,345.857v.429a1.171,1.171,0,0,0,1.17,1.171h3.24v-2.772H1.17A1.171,1.171,0,0,0,0,345.857Z" transform="translate(0 -317.757)"/>
          <path id="パス_115" data-name="パス 115" class="cls-9" d="M78.628,106.343h27.715V78.628H78.628ZM101.9,81.876a1.3,1.3,0,1,1-1.3,1.3A1.3,1.3,0,0,1,101.9,81.876Zm0,18.838a1.3,1.3,0,1,1-1.3,1.3A1.3,1.3,0,0,1,101.9,100.713ZM86.888,86.888H98.083V98.083H86.888Zm-3.822-5.013a1.3,1.3,0,1,1-1.3,1.3A1.3,1.3,0,0,1,83.066,81.876Zm0,18.838a1.3,1.3,0,1,1-1.3,1.3A1.3,1.3,0,0,1,83.066,100.713Z" transform="translate(-72.485 -72.485)"/>
        </g>
        <g id="無料の設定歯車アイコン" transform="translate(1394.996 3117)">
          <path id="パス_71" data-name="パス 71" class="cls-9" d="M39.023,16.407l-4.363-.2a1.025,1.025,0,0,1-.9-.633l-.9-2.164a1.03,1.03,0,0,1,.192-1.087l2.943-3.229a1.031,1.031,0,0,0-.033-1.42L32.333,4.043a1.031,1.031,0,0,0-1.422-.032L27.684,6.954a1.028,1.028,0,0,1-1.088.19l-2.164-.9a1.025,1.025,0,0,1-.632-.9L23.6.981A1.029,1.029,0,0,0,22.571,0H17.438A1.03,1.03,0,0,0,16.41.981l-.2,4.362a1.025,1.025,0,0,1-.632.9l-2.164.9a1.027,1.027,0,0,1-1.088-.19L9.1,4.011a1.03,1.03,0,0,0-1.422.032L4.048,7.672a1.028,1.028,0,0,0-.033,1.42l2.943,3.229a1.026,1.026,0,0,1,.189,1.087l-.9,2.164a1.027,1.027,0,0,1-.9.633l-4.362.2A1.029,1.029,0,0,0,0,17.434v5.133a1.03,1.03,0,0,0,.981,1.027l4.362.2a1.027,1.027,0,0,1,.9.633l.9,2.164a1.026,1.026,0,0,1-.189,1.087L4.015,30.906a1.03,1.03,0,0,0,.031,1.422l3.631,3.628a1.029,1.029,0,0,0,1.42.033l3.227-2.944a1.029,1.029,0,0,1,1.088-.19l2.164.9a1.027,1.027,0,0,1,.632.9l.2,4.362A1.03,1.03,0,0,0,17.438,40h5.133a1.029,1.029,0,0,0,1.026-.981l.2-4.362a1.027,1.027,0,0,1,.632-.9l2.164-.9a1.03,1.03,0,0,1,1.088.19l3.227,2.944a1.031,1.031,0,0,0,1.422-.033l3.628-3.628a1.033,1.033,0,0,0,.033-1.422L33.05,27.679a1.027,1.027,0,0,1-.192-1.087l.9-2.164a1.025,1.025,0,0,1,.9-.633l4.363-.2A1.028,1.028,0,0,0,40,22.566V17.434A1.027,1.027,0,0,0,39.023,16.407ZM20,26.533A6.533,6.533,0,1,1,26.536,20,6.534,6.534,0,0,1,20,26.533Z"/>
        </g>
      </g>
      <g id="グループ化_72" data-name="グループ化 72" transform="translate(464 1878.396)">
        <path id="長方形_47" data-name="長方形 47" class="cls-15" d="M10,0H93.773a10,10,0,0,1,10,10V118.6a0,0,0,0,1,0,0H0a0,0,0,0,1,0,0V10A10,10,0,0,1,10,0Z" transform="translate(0 326.93)"/>
        <rect id="長方形_48" data-name="長方形 48" class="cls-16" width="103.773" height="11.86" transform="translate(0 433.668)"/>
        <rect id="長方形_49" data-name="長方形 49" class="cls-17" width="91.913" height="83.018" rx="10" transform="translate(5.93 332.86)"/>
        <path id="長方形_50" data-name="長方形 50" class="cls-16" d="M5.93,0H53.369A5.93,5.93,0,0,1,59.3,5.93v0a0,0,0,0,1,0,0H0a0,0,0,0,1,0,0v0A5.93,5.93,0,0,1,5.93,0Z" transform="translate(22.237 321)"/>
        <g id="グループ化_16" data-name="グループ化 16" transform="translate(8.598 417.657)">
          <rect id="長方形_15" data-name="長方形 15" class="cls-18" width="34.393" height="13.935" rx="4" transform="translate(0)"/>
          <rect id="長方形_16" data-name="長方形 16" class="cls-19" width="31.428" height="10.97" rx="4" transform="translate(1.482 1.482)"/>
          <rect id="長方形_17" data-name="長方形 17" class="cls-20" width="11.86" height="1.186" transform="translate(2.965 2.668)"/>
          <rect id="長方形_18" data-name="長方形 18" class="cls-20" width="23.719" height="1.186" transform="translate(2.965 7.412)"/>
          <rect id="長方形_19" data-name="長方形 19" class="cls-20" width="11.86" height="1.186" transform="translate(2.965 5.04)"/>
          <rect id="長方形_20" data-name="長方形 20" class="cls-20" width="23.719" height="1.186" transform="translate(2.965 9.784)"/>
          <rect id="長方形_21" data-name="長方形 21" class="cls-20" width="4.151" height="1.186" transform="translate(27.574 7.412)"/>
          <rect id="長方形_22" data-name="長方形 22" class="cls-20" width="4.151" height="1.186" transform="translate(27.574 9.784)"/>
          <ellipse id="楕円形_4" data-name="楕円形 4" class="cls-20" cx="1.927" cy="1.927" rx="1.927" ry="1.927" transform="translate(22.237 2.372)"/>
          <g id="グループ化_6" data-name="グループ化 6" transform="translate(24.016 2.668)">
            <g id="長方形_23" data-name="長方形 23" class="cls-21">
              <rect id="fill" class="cls-31" width="0.296" height="1.779"/>
              <path class="cls-33" d="M0,0.5h0.29649364948272705M0.5,0v1.7789617776870728M0.29649364948272705,1.2789617776870728h-0.29649364948272705M-0.20350635051727295,1.7789617776870728v-1.7789617776870728"/>
            </g>
            <g id="長方形_24" data-name="長方形 24" class="cls-21" transform="translate(1.779 1.482) rotate(90)">
              <rect id="fill-2" class="cls-31" width="0.296" height="1.779"/>
              <path class="cls-34" d="M0,0.5h0.29649364948272705M0.5,0v1.7789621353149414M0.29649364948272705,1.2789621353149414h-0.29649364948272705M-0.20350635051727295,1.7789621353149414v-1.7789621353149414"/>
            </g>
          </g>
          <ellipse id="楕円形_5" data-name="楕円形 5" class="cls-20" cx="1.927" cy="1.927" rx="1.927" ry="1.927" transform="translate(27.574 2.372)"/>
          <g id="グループ化_7" data-name="グループ化 7" transform="translate(29.353 2.668)">
            <g id="長方形_23-2" data-name="長方形 23" class="cls-21">
              <rect id="fill-3" class="cls-31" width="0.296" height="1.779"/>
              <path class="cls-35" d="M0,0.5h0.29649364948272705M0.5,0v1.7789617776870728M0.29649364948272705,1.2789617776870728h-0.29649364948272705M-0.20350635051727295,1.7789617776870728v-1.7789617776870728"/>
            </g>
            <g id="長方形_24-2" data-name="長方形 24" class="cls-21" transform="translate(1.779 1.482) rotate(90)">
              <rect id="fill-4" class="cls-31" width="0.296" height="1.779"/>
              <path class="cls-36" d="M0,0.5h0.29649364948272705M0.5,0v1.7789621353149414M0.29649364948272705,1.2789621353149414h-0.29649364948272705M-0.20350635051727295,1.7789621353149414v-1.7789621353149414"/>
            </g>
          </g>
        </g>
        <path id="パス_12" data-name="パス 12" class="cls-22" d="M0,.06,58.053,0,57.52,3.025H0Z" transform="translate(40.753 349.265) rotate(-10)"/>
        <g id="無料の設定歯車アイコン-2" data-name="無料の設定歯車アイコン" transform="translate(16.604 373.183)">
          <path id="パス_2" data-name="パス 2" class="cls-22" d="M28.926,12.161l-3.234-.149a.76.76,0,0,1-.669-.469l-.666-1.6a.763.763,0,0,1,.142-.806l2.181-2.393a.764.764,0,0,0-.024-1.053L23.967,3a.764.764,0,0,0-1.054-.024L20.521,5.155a.762.762,0,0,1-.806.141l-1.6-.665a.76.76,0,0,1-.469-.67L17.492.728A.763.763,0,0,0,16.732,0H12.926a.763.763,0,0,0-.762.727l-.149,3.233a.76.76,0,0,1-.469.67l-1.6.665a.761.761,0,0,1-.806-.141L6.743,2.973A.764.764,0,0,0,5.689,3L3,5.687a.762.762,0,0,0-.024,1.053L5.159,9.133a.76.76,0,0,1,.14.806l-.664,1.6a.761.761,0,0,1-.67.469l-3.233.149A.763.763,0,0,0,0,12.922v3.8a.763.763,0,0,0,.727.761l3.233.149a.761.761,0,0,1,.67.469l.664,1.6a.76.76,0,0,1-.14.806L2.977,22.909A.763.763,0,0,0,3,23.963l2.691,2.689a.763.763,0,0,0,1.053.024l2.392-2.182a.763.763,0,0,1,.806-.141l1.6.665a.761.761,0,0,1,.469.67l.149,3.233a.764.764,0,0,0,.762.727h3.805a.763.763,0,0,0,.761-.727l.15-3.233a.761.761,0,0,1,.469-.67l1.6-.665a.763.763,0,0,1,.806.141l2.392,2.182a.764.764,0,0,0,1.054-.024l2.689-2.689a.766.766,0,0,0,.024-1.054L24.5,20.516a.761.761,0,0,1-.142-.806l.666-1.6a.76.76,0,0,1,.669-.469l3.234-.149a.762.762,0,0,0,.726-.761v-3.8A.761.761,0,0,0,28.926,12.161Zm-14.1,7.506a4.842,4.842,0,1,1,4.841-4.842A4.843,4.843,0,0,1,14.829,19.667Z" transform="translate(-0.004 0)"/>
        </g>
        <path id="前面オブジェクトで型抜き_5" data-name="前面オブジェクトで型抜き 5" class="cls-23" d="M11.873,14.973H0v-.838a1.067,1.067,0,0,1,.983-1.051l1.8-.12a1.36,1.36,0,0,0,1.178-1.02l.143-.459.056-.178c.068-.192-.243-.595-.695-.9l-1.495-1a1.068,1.068,0,0,1-.326-1.4l.69-1.194a1.066,1.066,0,0,1,.925-.522,1.013,1.013,0,0,1,.452.1l1.617.794a.693.693,0,0,0,.307.061,2.886,2.886,0,0,0,1.5-.593,1.225,1.225,0,0,0,.06-1.336L6.4,3.708a1.071,1.071,0,0,1,.418-1.377l1.194-.69a1.031,1.031,0,0,1,.515-.136,1.073,1.073,0,0,1,.886.462l1,1.494a2.016,2.016,0,0,0,1.487.473,1.718,1.718,0,0,0,.342-.028,1.225,1.225,0,0,0,.724-1.128l.12-1.8A1.068,1.068,0,0,1,14.135,0h1.379a1.067,1.067,0,0,1,1.05.983l.12,1.8A1.357,1.357,0,0,0,17.7,3.958l.458.143.178.055a.174.174,0,0,0,.059.01c.209,0,.569-.3.837-.7l1-1.495a1.073,1.073,0,0,1,.885-.461,1.031,1.031,0,0,1,.515.136l1.194.689a1.071,1.071,0,0,1,.418,1.377l-.794,1.616a1.355,1.355,0,0,0,.083.984,2.872,2.872,0,0,0,.449.824.867.867,0,0,0,.641.223,1.6,1.6,0,0,0,.694-.163L25.942,6.4a1.014,1.014,0,0,1,.452-.1,1.067,1.067,0,0,1,.925.522l.689,1.194a1.069,1.069,0,0,1-.326,1.4l-1.494,1c-.444.3-.53,1.445-.445,1.83a1.228,1.228,0,0,0,1.128.725l1.8.12a1.067,1.067,0,0,1,.983,1.05v.838H17.776c0-.047,0-.1,0-.148a2.913,2.913,0,0,0-.5-1.649,2.987,2.987,0,0,0-1.3-1.075,2.949,2.949,0,0,0-2.8.272,2.993,2.993,0,0,0-1.075,1.3,2.91,2.91,0,0,0-.231,1.149c0,.05,0,.1,0,.148Z" transform="translate(12.156 401.053)"/>
        <path id="パス_14" data-name="パス 14" class="cls-22" d="M.384,0,21.419.1l2.4,1.416L0,1.434Z" transform="translate(32.309 362.956) rotate(-22)"/>
        <circle id="楕円形_22" data-name="楕円形 22" class="cls-9" cx="5.93" cy="5.93" r="5.93" transform="translate(25.498 382.078)"/>
        <circle id="楕円形_23" data-name="楕円形 23" class="cls-22" cx="2.965" cy="2.965" r="2.965" transform="translate(28.463 385.043)"/>
        <ellipse id="楕円形_24" data-name="楕円形 24" class="cls-22" cx="13.342" cy="13.342" rx="13.342" ry="13.342" transform="translate(15.418 339.086)"/>
        <circle id="楕円形_25" data-name="楕円形 25" class="cls-23" cx="10.377" cy="10.377" r="10.377" transform="translate(18.383 341.755)"/>
        <ellipse id="楕円形_26" data-name="楕円形 26" class="cls-22" cx="4.447" cy="4.447" rx="4.447" ry="4.447" transform="translate(24.312 347.684)"/>
        <g id="グループ化_17" data-name="グループ化 17" transform="translate(27.574 359.841)">
          <ellipse id="楕円形_14" data-name="楕円形 14" class="cls-22" cx="4.447" cy="4.447" rx="4.447" ry="4.447" transform="translate(0 0)"/>
          <circle id="楕円形_15" data-name="楕円形 15" class="cls-9" cx="2.965" cy="2.965" r="2.965" transform="translate(1.482 1.482)"/>
          <circle id="楕円形_16" data-name="楕円形 16" class="cls-22" cx="1.482" cy="1.482" r="1.482" transform="translate(2.965 2.965)"/>
        </g>
        <rect id="長方形_52" data-name="長方形 52" class="cls-22" width="1.482" height="17.79" transform="matrix(0.966, -0.259, 0.259, 0.966, 25.813, 343.742)"/>
        <path id="パス_15" data-name="パス 15" class="cls-22" d="M.384,0,21.419.1l2.4,1.416L0,1.434Z" transform="matrix(0.966, -0.259, 0.259, 0.966, 5.548, 344.944)"/>
        <g id="グループ化_18" data-name="グループ化 18" transform="translate(21.051 335.825)">
          <ellipse id="楕円形_14-2" data-name="楕円形 14" class="cls-22" cx="4.447" cy="4.447" rx="4.447" ry="4.447" transform="translate(0 0)"/>
          <circle id="楕円形_15-2" data-name="楕円形 15" class="cls-9" cx="2.965" cy="2.965" r="2.965" transform="translate(1.482 1.482)"/>
          <circle id="楕円形_16-2" data-name="楕円形 16" class="cls-22" cx="1.482" cy="1.482" r="1.482" transform="translate(2.965 2.965)"/>
        </g>
        <g id="グループ化_19" data-name="グループ化 19" transform="translate(41.806 344.72)">
          <ellipse id="楕円形_6" data-name="楕円形 6" class="cls-23" cx="26.684" cy="26.684" rx="26.684" ry="26.684" transform="translate(0 0)"/>
          <g id="無料の設定歯車アイコン-3" data-name="無料の設定歯車アイコン" transform="translate(2.965 2.965)">
            <path id="パス_2-2" data-name="パス 2" class="cls-22" d="M46.281,19.458l-5.175-.239a1.216,1.216,0,0,1-1.07-.751L38.97,15.9a1.221,1.221,0,0,1,.227-1.289l3.49-3.83A1.223,1.223,0,0,0,42.649,9.1l-4.3-4.3a1.222,1.222,0,0,0-1.686-.038l-3.828,3.49a1.219,1.219,0,0,1-1.29.226L28.976,7.409a1.216,1.216,0,0,1-.75-1.072l-.24-5.173A1.22,1.22,0,0,0,26.769,0H20.68a1.221,1.221,0,0,0-1.219,1.164l-.238,5.173a1.216,1.216,0,0,1-.75,1.072L15.907,8.473a1.218,1.218,0,0,1-1.29-.226l-3.83-3.49A1.222,1.222,0,0,0,9.1,4.8L4.8,9.1a1.219,1.219,0,0,0-.039,1.685l3.49,3.83A1.217,1.217,0,0,1,8.475,15.9L7.413,18.468a1.218,1.218,0,0,1-1.071.751l-5.173.239A1.22,1.22,0,0,0,0,20.676v6.087a1.221,1.221,0,0,0,1.164,1.218l5.173.239a1.218,1.218,0,0,1,1.071.751l1.063,2.566a1.217,1.217,0,0,1-.224,1.289l-3.49,3.828A1.221,1.221,0,0,0,4.8,38.341l4.306,4.3a1.221,1.221,0,0,0,1.685.039l3.828-3.491a1.22,1.22,0,0,1,1.29-.226l2.566,1.064a1.218,1.218,0,0,1,.75,1.073l.238,5.173A1.222,1.222,0,0,0,20.68,47.44h6.088a1.221,1.221,0,0,0,1.217-1.164l.24-5.173a1.218,1.218,0,0,1,.75-1.072l2.566-1.064a1.221,1.221,0,0,1,1.29.226l3.828,3.491a1.223,1.223,0,0,0,1.686-.039l4.3-4.3a1.225,1.225,0,0,0,.039-1.686L39.2,32.827a1.218,1.218,0,0,1-.227-1.289l1.066-2.566a1.216,1.216,0,0,1,1.07-.751l5.175-.239a1.219,1.219,0,0,0,1.162-1.218V20.676A1.218,1.218,0,0,0,46.281,19.458ZM23.725,31.468a7.748,7.748,0,1,1,7.746-7.747A7.749,7.749,0,0,1,23.725,31.468Z" transform="translate(-0.004)"/>
          </g>
          <circle id="楕円形_7" data-name="楕円形 7" class="cls-9" cx="5.93" cy="5.93" r="5.93" transform="translate(20.755 20.755)"/>
          <circle id="楕円形_8" data-name="楕円形 8" class="cls-22" cx="2.965" cy="2.965" r="2.965" transform="translate(23.719 23.719)"/>
        </g>
        <g id="グループ化_20" data-name="グループ化 20" transform="translate(54.851 393.937)">
          <rect id="長方形_25" data-name="長方形 25" class="cls-23" width="26.684" height="17.79" transform="translate(0 4.151)"/>
          <path id="長方形_26" data-name="長方形 26" class="cls-22" d="M8.895,0H17.79a8.895,8.895,0,0,1,8.895,8.895v0a0,0,0,0,1,0,0H0a0,0,0,0,1,0,0v0A8.895,8.895,0,0,1,8.895,0Z" transform="translate(0 0)"/>
          <path id="パス_4" data-name="パス 4" class="cls-22" d="M0,0H9.037V1.482H0Z" transform="translate(26.388 4.151)"/>
          <path id="パス_5" data-name="パス 5" class="cls-22" d="M0,0,17.625.03V1.513L0,1.5Z" transform="translate(33.918 21.924) rotate(-90)"/>
        </g>
        <path id="長方形_53" data-name="長方形 53" class="cls-24" d="M0,0H45.364a0,0,0,0,1,0,0V2.749a10,10,0,0,1-10,10H10a10,10,0,0,1-10-10V0A0,0,0,0,1,0,0Z" transform="translate(29.353 332.86)"/>
      </g>
    </g>
    <g id="グループ化_77" data-name="グループ化 77" transform="translate(53 983)">
      <g id="グループ化_74" data-name="グループ化 74">
        <g id="リピートグリッド_9" data-name="リピートグリッド 9" class="cls-25" transform="translate(1153 2976)">
          <g transform="translate(-1134 -3061)">
            <g id="長方形_134-2" data-name="長方形 134" class="cls-26" transform="translate(1134 3061)">
              <rect class="cls-31" width="443" height="25"/>
              <rect class="cls-1" x="0.5" y="0.5" width="442" height="24"/>
            </g>
          </g>
          <g transform="translate(-1134 -3037)">
            <g id="長方形_134-3" data-name="長方形 134" class="cls-26" transform="translate(1134 3061)">
              <rect class="cls-31" width="443" height="25"/>
              <rect class="cls-1" x="0.5" y="0.5" width="442" height="24"/>
            </g>
          </g>
          <g transform="translate(-1134 -3013)">
            <g id="長方形_134-4" data-name="長方形 134" class="cls-26" transform="translate(1134 3061)">
              <rect class="cls-31" width="443" height="25"/>
              <rect class="cls-1" x="0.5" y="0.5" width="442" height="24"/>
            </g>
          </g>
          <g transform="translate(-1134 -2989)">
            <g id="長方形_134-5" data-name="長方形 134" class="cls-26" transform="translate(1134 3061)">
              <rect class="cls-31" width="443" height="25"/>
              <rect class="cls-1" x="0.5" y="0.5" width="442" height="24"/>
            </g>
          </g>
          <g transform="translate(-1134 -2965)">
            <g id="長方形_134-6" data-name="長方形 134" class="cls-26" transform="translate(1134 3061)">
              <rect class="cls-31" width="443" height="25"/>
              <rect class="cls-1" x="0.5" y="0.5" width="442" height="24"/>
            </g>
          </g>
          <g transform="translate(-1134 -2941)">
            <g id="長方形_134-7" data-name="長方形 134" class="cls-26" transform="translate(1134 3061)">
              <rect class="cls-31" width="443" height="25"/>
              <rect class="cls-1" x="0.5" y="0.5" width="442" height="24"/>
            </g>
          </g>
        </g>
        <line id="線_28" data-name="線 28" class="cls-27" y2="120" transform="translate(1154.5 2976.5)"/>
        <line id="線_29" data-name="線 29" class="cls-27" x1="443" transform="translate(1153 3096)"/>
        <text id="_20_" data-name="20%" class="cls-28" transform="translate(1124 3078)"><tspan x="0" y="0">20%</tspan></text>
        <text id="_40_" data-name="40%" class="cls-28" transform="translate(1124 3053)"><tspan x="0" y="0">40%</tspan></text>
        <text id="_60_" data-name="60%" class="cls-28" transform="translate(1124 3028)"><tspan x="0" y="0">60%</tspan></text>
        <text id="_80_" data-name="80%" class="cls-28" transform="translate(1124 3006)"><tspan x="0" y="0">80%</tspan></text>
        <text id="_100_" data-name="100%" class="cls-28" transform="translate(1117 2981)"><tspan x="0" y="0">100%</tspan></text>
        <text id="_0_" data-name="0%" class="cls-28" transform="translate(1132 3103)"><tspan x="0" y="0">0%</tspan></text>
      </g>
      <g id="グループ化_73" data-name="グループ化 73" transform="translate(18 3)">
        <line id="線_11" data-name="線 11" class="cls-29" y1="42" x2="40" transform="translate(1146.5 3003.5)"/>
        <line id="線_12" data-name="線 12" class="cls-29" x2="25" y2="72" transform="translate(1186.5 3003.5)"/>
        <line id="線_13" data-name="線 13" class="cls-29" y1="42" x2="25" transform="translate(1211.5 3033.5)"/>
        <line id="線_14" data-name="線 14" class="cls-29" x1="10" y1="27" transform="translate(1236.5 3033.5)"/>
        <line id="線_15" data-name="線 15" class="cls-29" x2="39" y2="10" transform="translate(1246.5 3060.5)"/>
        <line id="線_16" data-name="線 16" class="cls-29" x1="21" y2="25" transform="translate(1285.5 3045.5)"/>
        <line id="線_17" data-name="線 17" class="cls-29" x2="20" transform="translate(1306.5 3045.5)"/>
        <line id="線_18" data-name="線 18" class="cls-29" x1="33" y2="29" transform="translate(1326.5 3016.5)"/>
        <line id="線_19" data-name="線 19" class="cls-29" x2="32" y2="15" transform="translate(1359.5 3016.5)"/>
        <line id="線_20" data-name="線 20" class="cls-29" x1="13" y1="31" transform="translate(1391.5 3031.5)"/>
        <line id="線_21" data-name="線 21" class="cls-29" y1="23" x2="27" transform="translate(1404.5 3039.5)"/>
        <line id="線_22" data-name="線 22" class="cls-29" x1="13" y1="15" transform="translate(1431.5 3039.5)"/>
        <line id="線_23" data-name="線 23" class="cls-29" y1="59" x2="30" transform="translate(1444.5 2995.5)"/>
        <line id="線_24" data-name="線 24" class="cls-29" x1="19" y1="65" transform="translate(1474.5 2995.5)"/>
        <line id="線_25" data-name="線 25" class="cls-29" y1="32" x2="19" transform="translate(1493.5 3028.5)"/>
        <line id="線_26" data-name="線 26" class="cls-29" x1="13" y1="23" transform="translate(1512.5 3028.5)"/>
        <line id="線_27" data-name="線 27" class="cls-29" y1="35" x2="39" transform="translate(1525.5 3016.5)"/>
        <circle id="楕円形_41" data-name="楕円形 41" class="cls-30" cx="3.5" cy="3.5" r="3.5" transform="translate(1183 3000)"/>
        <circle id="楕円形_42" data-name="楕円形 42" class="cls-30" cx="3.5" cy="3.5" r="3.5" transform="translate(1208 3071)"/>
        <circle id="楕円形_43" data-name="楕円形 43" class="cls-30" cx="3.5" cy="3.5" r="3.5" transform="translate(1233 3030)"/>
        <circle id="楕円形_44" data-name="楕円形 44" class="cls-30" cx="3.5" cy="3.5" r="3.5" transform="translate(1243 3057)"/>
        <circle id="楕円形_45" data-name="楕円形 45" class="cls-30" cx="3.5" cy="3.5" r="3.5" transform="translate(1282 3067)"/>
        <circle id="楕円形_46" data-name="楕円形 46" class="cls-30" cx="3.5" cy="3.5" r="3.5" transform="translate(1303 3042)"/>
        <circle id="楕円形_47" data-name="楕円形 47" class="cls-30" cx="3.5" cy="3.5" r="3.5" transform="translate(1323 3042)"/>
        <circle id="楕円形_48" data-name="楕円形 48" class="cls-30" cx="3.5" cy="3.5" r="3.5" transform="translate(1356 3013)"/>
        <circle id="楕円形_49" data-name="楕円形 49" class="cls-30" cx="3.5" cy="3.5" r="3.5" transform="translate(1388 3028)"/>
        <circle id="楕円形_50" data-name="楕円形 50" class="cls-30" cx="3.5" cy="3.5" r="3.5" transform="translate(1401 3058)"/>
        <circle id="楕円形_51" data-name="楕円形 51" class="cls-30" cx="3.5" cy="3.5" r="3.5" transform="translate(1428 3036)"/>
        <circle id="楕円形_52" data-name="楕円形 52" class="cls-30" cx="3.5" cy="3.5" r="3.5" transform="translate(1441 3051)"/>
        <circle id="楕円形_53" data-name="楕円形 53" class="cls-30" cx="3.5" cy="3.5" r="3.5" transform="translate(1471 2992)"/>
        <circle id="楕円形_54" data-name="楕円形 54" class="cls-30" cx="3.5" cy="3.5" r="3.5" transform="translate(1490 3056)"/>
        <circle id="楕円形_55" data-name="楕円形 55" class="cls-30" cx="3.5" cy="3.5" r="3.5" transform="translate(1509 3025)"/>
        <circle id="楕円形_56" data-name="楕円形 56" class="cls-30" cx="3.5" cy="3.5" r="3.5" transform="translate(1522 3048)"/>
        <circle id="楕円形_57" data-name="楕円形 57" class="cls-30" cx="3.5" cy="3.5" r="3.5" transform="translate(1561 3013)"/>
        <circle id="楕円形_58" data-name="楕円形 58" class="cls-30" cx="3.5" cy="3.5" r="3.5" transform="translate(1144 3041)"/>
      </g>
    </g>
    <g id="グループ化_78" data-name="グループ化 78" transform="translate(52 969)">
      <rect id="長方形_135" data-name="長方形 135" class="cls-9" width="2" height="12" rx="1" transform="translate(1043.05 2916.464) rotate(-45)"/>
      <rect id="長方形_136" data-name="長方形 136" class="cls-9" width="2" height="12" rx="1" transform="translate(1051.536 2915.05) rotate(45)"/>
    </g>
  </g>
</svg>
