<svg xmlns="http://www.w3.org/2000/svg" xmlns:xlink="http://www.w3.org/1999/xlink" viewBox="4161.443 915 1837.044 200">
  <defs>
    <style>
      .cls-1 {
        fill: none;
      }

      .cls-2 {
        fill: #af906c;
      }

      .cls-3 {
        fill: #331a00;
      }

      .cls-4 {
        clip-path: url(#clip-path);
      }
    </style>
    <clipPath id="clip-path">
      <rect class="cls-1" width="1635" height="15"/>
    </clipPath>
  </defs>
  <g id="グループ化_65" data-name="グループ化 65" transform="translate(3704 245)">
    <g id="グループ化_14" data-name="グループ化 14" transform="translate(202.443 192)">
      <path id="前面オブジェクトで型抜き_2" data-name="前面オブジェクトで型抜き 2" class="cls-2" d="M1787.044,100H50A50.013,50.013,0,0,1,30.537,3.929,49.687,49.687,0,0,1,50,0H1787.044a50.013,50.013,0,0,1,19.463,96.071A49.69,49.69,0,0,1,1787.044,100ZM82.487,20a30,30,0,0,0,0,60h1672.07a30,30,0,0,0,0-60Z" transform="translate(255 478)"/>
      <path id="前面オブジェクトで型抜き_1" data-name="前面オブジェクトで型抜き 1" class="cls-3" d="M1744.557,80H40A40.011,40.011,0,0,1,24.43,3.144,39.749,39.749,0,0,1,40,0H1744.557a40.011,40.011,0,0,1,15.57,76.857A39.751,39.751,0,0,1,1744.557,80ZM56.244,10a30,30,0,1,0,0,60h1672.07a30,30,0,0,0,0-60Z" transform="translate(281.244 488)"/>
      <g id="シンボル_1_3" data-name="シンボル 1 – 3" transform="translate(76.344)">
        <g id="リピートグリッド_1" data-name="リピートグリッド 1" class="cls-4" transform="translate(302 489)">
          <g transform="translate(-302 -489)">
            <rect id="長方形_6" data-name="長方形 6" class="cls-3" width="15" height="15" transform="translate(302 489)"/>
          </g>
          <g transform="translate(-272 -489)">
            <rect id="長方形_6-2" data-name="長方形 6" class="cls-3" width="15" height="15" transform="translate(302 489)"/>
          </g>
          <g transform="translate(-242 -489)">
            <rect id="長方形_6-3" data-name="長方形 6" class="cls-3" width="15" height="15" transform="translate(302 489)"/>
          </g>
          <g transform="translate(-212 -489)">
            <rect id="長方形_6-4" data-name="長方形 6" class="cls-3" width="15" height="15" transform="translate(302 489)"/>
          </g>
          <g transform="translate(-182 -489)">
            <rect id="長方形_6-5" data-name="長方形 6" class="cls-3" width="15" height="15" transform="translate(302 489)"/>
          </g>
          <g transform="translate(-152 -489)">
            <rect id="長方形_6-6" data-name="長方形 6" class="cls-3" width="15" height="15" transform="translate(302 489)"/>
          </g>
          <g transform="translate(-122 -489)">
            <rect id="長方形_6-7" data-name="長方形 6" class="cls-3" width="15" height="15" transform="translate(302 489)"/>
          </g>
          <g transform="translate(-92 -489)">
            <rect id="長方形_6-8" data-name="長方形 6" class="cls-3" width="15" height="15" transform="translate(302 489)"/>
          </g>
          <g transform="translate(-62 -489)">
            <rect id="長方形_6-9" data-name="長方形 6" class="cls-3" width="15" height="15" transform="translate(302 489)"/>
          </g>
          <g transform="translate(-32 -489)">
            <rect id="長方形_6-10" data-name="長方形 6" class="cls-3" width="15" height="15" transform="translate(302 489)"/>
          </g>
          <g transform="translate(-2 -489)">
            <rect id="長方形_6-11" data-name="長方形 6" class="cls-3" width="15" height="15" transform="translate(302 489)"/>
          </g>
          <g transform="translate(28 -489)">
            <rect id="長方形_6-12" data-name="長方形 6" class="cls-3" width="15" height="15" transform="translate(302 489)"/>
          </g>
          <g transform="translate(58 -489)">
            <rect id="長方形_6-13" data-name="長方形 6" class="cls-3" width="15" height="15" transform="translate(302 489)"/>
          </g>
          <g transform="translate(88 -489)">
            <rect id="長方形_6-14" data-name="長方形 6" class="cls-3" width="15" height="15" transform="translate(302 489)"/>
          </g>
          <g transform="translate(118 -489)">
            <rect id="長方形_6-15" data-name="長方形 6" class="cls-3" width="15" height="15" transform="translate(302 489)"/>
          </g>
          <g transform="translate(148 -489)">
            <rect id="長方形_6-16" data-name="長方形 6" class="cls-3" width="15" height="15" transform="translate(302 489)"/>
          </g>
          <g transform="translate(178 -489)">
            <rect id="長方形_6-17" data-name="長方形 6" class="cls-3" width="15" height="15" transform="translate(302 489)"/>
          </g>
          <g transform="translate(208 -489)">
            <rect id="長方形_6-18" data-name="長方形 6" class="cls-3" width="15" height="15" transform="translate(302 489)"/>
          </g>
          <g transform="translate(238 -489)">
            <rect id="長方形_6-19" data-name="長方形 6" class="cls-3" width="15" height="15" transform="translate(302 489)"/>
          </g>
          <g transform="translate(268 -489)">
            <rect id="長方形_6-20" data-name="長方形 6" class="cls-3" width="15" height="15" transform="translate(302 489)"/>
          </g>
          <g transform="translate(298 -489)">
            <rect id="長方形_6-21" data-name="長方形 6" class="cls-3" width="15" height="15" transform="translate(302 489)"/>
          </g>
          <g transform="translate(328 -489)">
            <rect id="長方形_6-22" data-name="長方形 6" class="cls-3" width="15" height="15" transform="translate(302 489)"/>
          </g>
          <g transform="translate(358 -489)">
            <rect id="長方形_6-23" data-name="長方形 6" class="cls-3" width="15" height="15" transform="translate(302 489)"/>
          </g>
          <g transform="translate(388 -489)">
            <rect id="長方形_6-24" data-name="長方形 6" class="cls-3" width="15" height="15" transform="translate(302 489)"/>
          </g>
          <g transform="translate(418 -489)">
            <rect id="長方形_6-25" data-name="長方形 6" class="cls-3" width="15" height="15" transform="translate(302 489)"/>
          </g>
          <g transform="translate(448 -489)">
            <rect id="長方形_6-26" data-name="長方形 6" class="cls-3" width="15" height="15" transform="translate(302 489)"/>
          </g>
          <g transform="translate(478 -489)">
            <rect id="長方形_6-27" data-name="長方形 6" class="cls-3" width="15" height="15" transform="translate(302 489)"/>
          </g>
          <g transform="translate(508 -489)">
            <rect id="長方形_6-28" data-name="長方形 6" class="cls-3" width="15" height="15" transform="translate(302 489)"/>
          </g>
          <g transform="translate(538 -489)">
            <rect id="長方形_6-29" data-name="長方形 6" class="cls-3" width="15" height="15" transform="translate(302 489)"/>
          </g>
          <g transform="translate(568 -489)">
            <rect id="長方形_6-30" data-name="長方形 6" class="cls-3" width="15" height="15" transform="translate(302 489)"/>
          </g>
          <g transform="translate(598 -489)">
            <rect id="長方形_6-31" data-name="長方形 6" class="cls-3" width="15" height="15" transform="translate(302 489)"/>
          </g>
          <g transform="translate(628 -489)">
            <rect id="長方形_6-32" data-name="長方形 6" class="cls-3" width="15" height="15" transform="translate(302 489)"/>
          </g>
          <g transform="translate(658 -489)">
            <rect id="長方形_6-33" data-name="長方形 6" class="cls-3" width="15" height="15" transform="translate(302 489)"/>
          </g>
          <g transform="translate(688 -489)">
            <rect id="長方形_6-34" data-name="長方形 6" class="cls-3" width="15" height="15" transform="translate(302 489)"/>
          </g>
          <g transform="translate(718 -489)">
            <rect id="長方形_6-35" data-name="長方形 6" class="cls-3" width="15" height="15" transform="translate(302 489)"/>
          </g>
          <g transform="translate(748 -489)">
            <rect id="長方形_6-36" data-name="長方形 6" class="cls-3" width="15" height="15" transform="translate(302 489)"/>
          </g>
          <g transform="translate(778 -489)">
            <rect id="長方形_6-37" data-name="長方形 6" class="cls-3" width="15" height="15" transform="translate(302 489)"/>
          </g>
          <g transform="translate(808 -489)">
            <rect id="長方形_6-38" data-name="長方形 6" class="cls-3" width="15" height="15" transform="translate(302 489)"/>
          </g>
          <g transform="translate(838 -489)">
            <rect id="長方形_6-39" data-name="長方形 6" class="cls-3" width="15" height="15" transform="translate(302 489)"/>
          </g>
          <g transform="translate(868 -489)">
            <rect id="長方形_6-40" data-name="長方形 6" class="cls-3" width="15" height="15" transform="translate(302 489)"/>
          </g>
          <g transform="translate(898 -489)">
            <rect id="長方形_6-41" data-name="長方形 6" class="cls-3" width="15" height="15" transform="translate(302 489)"/>
          </g>
          <g transform="translate(928 -489)">
            <rect id="長方形_6-42" data-name="長方形 6" class="cls-3" width="15" height="15" transform="translate(302 489)"/>
          </g>
          <g transform="translate(958 -489)">
            <rect id="長方形_6-43" data-name="長方形 6" class="cls-3" width="15" height="15" transform="translate(302 489)"/>
          </g>
          <g transform="translate(988 -489)">
            <rect id="長方形_6-44" data-name="長方形 6" class="cls-3" width="15" height="15" transform="translate(302 489)"/>
          </g>
          <g transform="translate(1018 -489)">
            <rect id="長方形_6-45" data-name="長方形 6" class="cls-3" width="15" height="15" transform="translate(302 489)"/>
          </g>
          <g transform="translate(1048 -489)">
            <rect id="長方形_6-46" data-name="長方形 6" class="cls-3" width="15" height="15" transform="translate(302 489)"/>
          </g>
          <g transform="translate(1078 -489)">
            <rect id="長方形_6-47" data-name="長方形 6" class="cls-3" width="15" height="15" transform="translate(302 489)"/>
          </g>
          <g transform="translate(1108 -489)">
            <rect id="長方形_6-48" data-name="長方形 6" class="cls-3" width="15" height="15" transform="translate(302 489)"/>
          </g>
          <g transform="translate(1138 -489)">
            <rect id="長方形_6-49" data-name="長方形 6" class="cls-3" width="15" height="15" transform="translate(302 489)"/>
          </g>
          <g transform="translate(1168 -489)">
            <rect id="長方形_6-50" data-name="長方形 6" class="cls-3" width="15" height="15" transform="translate(302 489)"/>
          </g>
          <g transform="translate(1198 -489)">
            <rect id="長方形_6-51" data-name="長方形 6" class="cls-3" width="15" height="15" transform="translate(302 489)"/>
          </g>
          <g transform="translate(1228 -489)">
            <rect id="長方形_6-52" data-name="長方形 6" class="cls-3" width="15" height="15" transform="translate(302 489)"/>
          </g>
          <g transform="translate(1258 -489)">
            <rect id="長方形_6-53" data-name="長方形 6" class="cls-3" width="15" height="15" transform="translate(302 489)"/>
          </g>
          <g transform="translate(1288 -489)">
            <rect id="長方形_6-54" data-name="長方形 6" class="cls-3" width="15" height="15" transform="translate(302 489)"/>
          </g>
          <g transform="translate(1318 -489)">
            <rect id="長方形_6-55" data-name="長方形 6" class="cls-3" width="15" height="15" transform="translate(302 489)"/>
          </g>
        </g>
      </g>
      <g id="シンボル_1_4" data-name="シンボル 1 – 4" transform="translate(76.344 62)">
        <g id="リピートグリッド_1-2" data-name="リピートグリッド 1" class="cls-4" transform="translate(302 489)">
          <g transform="translate(-302 -489)">
            <rect id="長方形_6-56" data-name="長方形 6" class="cls-3" width="15" height="15" transform="translate(302 489)"/>
          </g>
          <g transform="translate(-272 -489)">
            <rect id="長方形_6-57" data-name="長方形 6" class="cls-3" width="15" height="15" transform="translate(302 489)"/>
          </g>
          <g transform="translate(-242 -489)">
            <rect id="長方形_6-58" data-name="長方形 6" class="cls-3" width="15" height="15" transform="translate(302 489)"/>
          </g>
          <g transform="translate(-212 -489)">
            <rect id="長方形_6-59" data-name="長方形 6" class="cls-3" width="15" height="15" transform="translate(302 489)"/>
          </g>
          <g transform="translate(-182 -489)">
            <rect id="長方形_6-60" data-name="長方形 6" class="cls-3" width="15" height="15" transform="translate(302 489)"/>
          </g>
          <g transform="translate(-152 -489)">
            <rect id="長方形_6-61" data-name="長方形 6" class="cls-3" width="15" height="15" transform="translate(302 489)"/>
          </g>
          <g transform="translate(-122 -489)">
            <rect id="長方形_6-62" data-name="長方形 6" class="cls-3" width="15" height="15" transform="translate(302 489)"/>
          </g>
          <g transform="translate(-92 -489)">
            <rect id="長方形_6-63" data-name="長方形 6" class="cls-3" width="15" height="15" transform="translate(302 489)"/>
          </g>
          <g transform="translate(-62 -489)">
            <rect id="長方形_6-64" data-name="長方形 6" class="cls-3" width="15" height="15" transform="translate(302 489)"/>
          </g>
          <g transform="translate(-32 -489)">
            <rect id="長方形_6-65" data-name="長方形 6" class="cls-3" width="15" height="15" transform="translate(302 489)"/>
          </g>
          <g transform="translate(-2 -489)">
            <rect id="長方形_6-66" data-name="長方形 6" class="cls-3" width="15" height="15" transform="translate(302 489)"/>
          </g>
          <g transform="translate(28 -489)">
            <rect id="長方形_6-67" data-name="長方形 6" class="cls-3" width="15" height="15" transform="translate(302 489)"/>
          </g>
          <g transform="translate(58 -489)">
            <rect id="長方形_6-68" data-name="長方形 6" class="cls-3" width="15" height="15" transform="translate(302 489)"/>
          </g>
          <g transform="translate(88 -489)">
            <rect id="長方形_6-69" data-name="長方形 6" class="cls-3" width="15" height="15" transform="translate(302 489)"/>
          </g>
          <g transform="translate(118 -489)">
            <rect id="長方形_6-70" data-name="長方形 6" class="cls-3" width="15" height="15" transform="translate(302 489)"/>
          </g>
          <g transform="translate(148 -489)">
            <rect id="長方形_6-71" data-name="長方形 6" class="cls-3" width="15" height="15" transform="translate(302 489)"/>
          </g>
          <g transform="translate(178 -489)">
            <rect id="長方形_6-72" data-name="長方形 6" class="cls-3" width="15" height="15" transform="translate(302 489)"/>
          </g>
          <g transform="translate(208 -489)">
            <rect id="長方形_6-73" data-name="長方形 6" class="cls-3" width="15" height="15" transform="translate(302 489)"/>
          </g>
          <g transform="translate(238 -489)">
            <rect id="長方形_6-74" data-name="長方形 6" class="cls-3" width="15" height="15" transform="translate(302 489)"/>
          </g>
          <g transform="translate(268 -489)">
            <rect id="長方形_6-75" data-name="長方形 6" class="cls-3" width="15" height="15" transform="translate(302 489)"/>
          </g>
          <g transform="translate(298 -489)">
            <rect id="長方形_6-76" data-name="長方形 6" class="cls-3" width="15" height="15" transform="translate(302 489)"/>
          </g>
          <g transform="translate(328 -489)">
            <rect id="長方形_6-77" data-name="長方形 6" class="cls-3" width="15" height="15" transform="translate(302 489)"/>
          </g>
          <g transform="translate(358 -489)">
            <rect id="長方形_6-78" data-name="長方形 6" class="cls-3" width="15" height="15" transform="translate(302 489)"/>
          </g>
          <g transform="translate(388 -489)">
            <rect id="長方形_6-79" data-name="長方形 6" class="cls-3" width="15" height="15" transform="translate(302 489)"/>
          </g>
          <g transform="translate(418 -489)">
            <rect id="長方形_6-80" data-name="長方形 6" class="cls-3" width="15" height="15" transform="translate(302 489)"/>
          </g>
          <g transform="translate(448 -489)">
            <rect id="長方形_6-81" data-name="長方形 6" class="cls-3" width="15" height="15" transform="translate(302 489)"/>
          </g>
          <g transform="translate(478 -489)">
            <rect id="長方形_6-82" data-name="長方形 6" class="cls-3" width="15" height="15" transform="translate(302 489)"/>
          </g>
          <g transform="translate(508 -489)">
            <rect id="長方形_6-83" data-name="長方形 6" class="cls-3" width="15" height="15" transform="translate(302 489)"/>
          </g>
          <g transform="translate(538 -489)">
            <rect id="長方形_6-84" data-name="長方形 6" class="cls-3" width="15" height="15" transform="translate(302 489)"/>
          </g>
          <g transform="translate(568 -489)">
            <rect id="長方形_6-85" data-name="長方形 6" class="cls-3" width="15" height="15" transform="translate(302 489)"/>
          </g>
          <g transform="translate(598 -489)">
            <rect id="長方形_6-86" data-name="長方形 6" class="cls-3" width="15" height="15" transform="translate(302 489)"/>
          </g>
          <g transform="translate(628 -489)">
            <rect id="長方形_6-87" data-name="長方形 6" class="cls-3" width="15" height="15" transform="translate(302 489)"/>
          </g>
          <g transform="translate(658 -489)">
            <rect id="長方形_6-88" data-name="長方形 6" class="cls-3" width="15" height="15" transform="translate(302 489)"/>
          </g>
          <g transform="translate(688 -489)">
            <rect id="長方形_6-89" data-name="長方形 6" class="cls-3" width="15" height="15" transform="translate(302 489)"/>
          </g>
          <g transform="translate(718 -489)">
            <rect id="長方形_6-90" data-name="長方形 6" class="cls-3" width="15" height="15" transform="translate(302 489)"/>
          </g>
          <g transform="translate(748 -489)">
            <rect id="長方形_6-91" data-name="長方形 6" class="cls-3" width="15" height="15" transform="translate(302 489)"/>
          </g>
          <g transform="translate(778 -489)">
            <rect id="長方形_6-92" data-name="長方形 6" class="cls-3" width="15" height="15" transform="translate(302 489)"/>
          </g>
          <g transform="translate(808 -489)">
            <rect id="長方形_6-93" data-name="長方形 6" class="cls-3" width="15" height="15" transform="translate(302 489)"/>
          </g>
          <g transform="translate(838 -489)">
            <rect id="長方形_6-94" data-name="長方形 6" class="cls-3" width="15" height="15" transform="translate(302 489)"/>
          </g>
          <g transform="translate(868 -489)">
            <rect id="長方形_6-95" data-name="長方形 6" class="cls-3" width="15" height="15" transform="translate(302 489)"/>
          </g>
          <g transform="translate(898 -489)">
            <rect id="長方形_6-96" data-name="長方形 6" class="cls-3" width="15" height="15" transform="translate(302 489)"/>
          </g>
          <g transform="translate(928 -489)">
            <rect id="長方形_6-97" data-name="長方形 6" class="cls-3" width="15" height="15" transform="translate(302 489)"/>
          </g>
          <g transform="translate(958 -489)">
            <rect id="長方形_6-98" data-name="長方形 6" class="cls-3" width="15" height="15" transform="translate(302 489)"/>
          </g>
          <g transform="translate(988 -489)">
            <rect id="長方形_6-99" data-name="長方形 6" class="cls-3" width="15" height="15" transform="translate(302 489)"/>
          </g>
          <g transform="translate(1018 -489)">
            <rect id="長方形_6-100" data-name="長方形 6" class="cls-3" width="15" height="15" transform="translate(302 489)"/>
          </g>
          <g transform="translate(1048 -489)">
            <rect id="長方形_6-101" data-name="長方形 6" class="cls-3" width="15" height="15" transform="translate(302 489)"/>
          </g>
          <g transform="translate(1078 -489)">
            <rect id="長方形_6-102" data-name="長方形 6" class="cls-3" width="15" height="15" transform="translate(302 489)"/>
          </g>
          <g transform="translate(1108 -489)">
            <rect id="長方形_6-103" data-name="長方形 6" class="cls-3" width="15" height="15" transform="translate(302 489)"/>
          </g>
          <g transform="translate(1138 -489)">
            <rect id="長方形_6-104" data-name="長方形 6" class="cls-3" width="15" height="15" transform="translate(302 489)"/>
          </g>
          <g transform="translate(1168 -489)">
            <rect id="長方形_6-105" data-name="長方形 6" class="cls-3" width="15" height="15" transform="translate(302 489)"/>
          </g>
          <g transform="translate(1198 -489)">
            <rect id="長方形_6-106" data-name="長方形 6" class="cls-3" width="15" height="15" transform="translate(302 489)"/>
          </g>
          <g transform="translate(1228 -489)">
            <rect id="長方形_6-107" data-name="長方形 6" class="cls-3" width="15" height="15" transform="translate(302 489)"/>
          </g>
          <g transform="translate(1258 -489)">
            <rect id="長方形_6-108" data-name="長方形 6" class="cls-3" width="15" height="15" transform="translate(302 489)"/>
          </g>
          <g transform="translate(1288 -489)">
            <rect id="長方形_6-109" data-name="長方形 6" class="cls-3" width="15" height="15" transform="translate(302 489)"/>
          </g>
          <g transform="translate(1318 -489)">
            <rect id="長方形_6-110" data-name="長方形 6" class="cls-3" width="15" height="15" transform="translate(302 489)"/>
          </g>
        </g>
      </g>
    </g>
    <g id="グループ化_15" data-name="グループ化 15" transform="translate(258 192)">
      <rect id="長方形_7" data-name="長方形 7" class="cls-3" width="1811.487" height="10" transform="translate(225 578)"/>
      <g id="グループ化_2" data-name="グループ化 2" transform="translate(399.537 578)">
        <rect id="長方形_8" data-name="長方形 8" class="cls-3" width="26.667" height="100" transform="translate(6.667)"/>
        <rect id="長方形_9" data-name="長方形 9" class="cls-3" width="40" height="10" transform="translate(0 90)"/>
      </g>
      <g id="グループ化_2-2" data-name="グループ化 2" transform="translate(936.372 578)">
        <rect id="長方形_8-2" data-name="長方形 8" class="cls-3" width="26.667" height="100" transform="translate(6.667)"/>
        <rect id="長方形_9-2" data-name="長方形 9" class="cls-3" width="40" height="10" transform="translate(0 90)"/>
      </g>
      <g id="グループ化_2-3" data-name="グループ化 2" transform="translate(1452.051 578)">
        <rect id="長方形_8-3" data-name="長方形 8" class="cls-3" width="26.667" height="100" transform="translate(6.667)"/>
        <rect id="長方形_9-3" data-name="長方形 9" class="cls-3" width="40" height="10" transform="translate(0 90)"/>
      </g>
      <g id="グループ化_2-4" data-name="グループ化 2" transform="translate(1978.308 578)">
        <rect id="長方形_8-4" data-name="長方形 8" class="cls-3" width="26.667" height="100" transform="translate(6.667)"/>
        <rect id="長方形_9-4" data-name="長方形 9" class="cls-3" width="40" height="10" transform="translate(0 90)"/>
      </g>
      <rect id="長方形_10" data-name="長方形 10" class="cls-3" width="1808.843" height="10" transform="translate(225 600)"/>
    </g>
  </g>
</svg>
