<svg xmlns="http://www.w3.org/2000/svg" viewBox="3464.5 1808 1528 254">
  <defs>
    <style>
      .cls-1 {
        fill: #666;
      }

      .cls-2 {
        fill: #314e8a;
      }

      .cls-3 {
        fill: #333;
      }

      .cls-4 {
        fill: #4d4d4d;
      }

      .cls-5 {
        fill: none;
      }
    </style>
  </defs>
  <g id="三連チェア" transform="translate(2885 -523)">
    <g id="手前の椅子たち" transform="translate(819)">
      <g id="isu">
        <path id="パス_31" data-name="パス 31" class="cls-1" d="M30,0H130a30,30,0,0,1,30,30l-10,98H10L0,30A30,30,0,0,1,30,0Z" transform="translate(381 2331)"/>
        <path id="前面オブジェクトで型抜き_6" data-name="前面オブジェクトで型抜き 6" class="cls-2" d="M-3384.293,553H-3386a29.813,29.813,0,0,1,2.357-11.677,29.9,29.9,0,0,1,6.429-9.536,29.9,29.9,0,0,1,9.536-6.429A29.813,29.813,0,0,1-3356,523h100a29.815,29.815,0,0,1,11.678,2.358,29.9,29.9,0,0,1,9.536,6.429,29.9,29.9,0,0,1,6.429,9.536A29.816,29.816,0,0,1-3226,553h-1.707A30.053,30.053,0,0,0-3256,533h-100a30.053,30.053,0,0,0-28.292,20Z" transform="translate(3767 1808)"/>
        <path id="パス_34" data-name="パス 34" class="cls-2" d="M0,0H1.7l8.649,97.816H9.689Z" transform="translate(381 2361)"/>
        <path id="パス_35" data-name="パス 35" class="cls-2" d="M10.35,0h-1.7L0,97.8H.663Z" transform="translate(530.65 2361)"/>
        <g id="グループ化_28" data-name="グループ化 28" transform="translate(0 30)">
          <circle id="楕円形_32" data-name="楕円形 32" class="cls-3" cx="10" cy="10" r="10" transform="translate(516 2511)"/>
          <circle id="楕円形_33" data-name="楕円形 33" class="cls-3" cx="10" cy="10" r="10" transform="translate(386 2511)"/>
          <circle id="楕円形_30" data-name="楕円形 30" class="cls-4" cx="10" cy="10" r="10" transform="translate(391 2525)"/>
          <circle id="楕円形_29" data-name="楕円形 29" class="cls-4" cx="10" cy="10" r="10" transform="translate(450 2535)"/>
          <circle id="楕円形_31" data-name="楕円形 31" class="cls-4" cx="10" cy="10" r="10" transform="translate(511 2525)"/>
          <ellipse id="楕円形_28" data-name="楕円形 28" class="cls-1" cx="75" cy="30" rx="75" ry="30" transform="translate(386 2481)"/>
          <ellipse id="楕円形_34" data-name="楕円形 34" class="cls-4" cx="43" cy="16" rx="43" ry="16" transform="translate(417 2479)"/>
          <path id="長方形_61" data-name="長方形 61" class="cls-1" d="M0,0H30a0,0,0,0,1,0,0V66A10,10,0,0,1,20,76H10A10,10,0,0,1,0,66V0A0,0,0,0,1,0,0Z" transform="translate(446 2415)"/>
          <path id="長方形_62" data-name="長方形 62" class="cls-4" d="M0,0H30a0,0,0,0,1,0,0V4A10,10,0,0,1,20,14H10A10,10,0,0,1,0,4V0A0,0,0,0,1,0,0Z" transform="translate(446 2429)"/>
        </g>
      </g>
      <g id="isu-2" data-name="isu" transform="translate(-502)">
        <path id="パス_31-2" data-name="パス 31" class="cls-1" d="M30,0H130a30,30,0,0,1,30,30l-10,98H10L0,30A30,30,0,0,1,30,0Z" transform="translate(381 2331)"/>
        <path id="前面オブジェクトで型抜き_6-2" data-name="前面オブジェクトで型抜き 6" class="cls-2" d="M-3384.293,553H-3386a29.813,29.813,0,0,1,2.357-11.677,29.9,29.9,0,0,1,6.429-9.536,29.9,29.9,0,0,1,9.536-6.429A29.813,29.813,0,0,1-3356,523h100a29.815,29.815,0,0,1,11.678,2.358,29.9,29.9,0,0,1,9.536,6.429,29.9,29.9,0,0,1,6.429,9.536A29.816,29.816,0,0,1-3226,553h-1.707A30.053,30.053,0,0,0-3256,533h-100a30.053,30.053,0,0,0-28.292,20Z" transform="translate(3767 1808)"/>
        <path id="パス_34-2" data-name="パス 34" class="cls-2" d="M0,0H1.7l8.649,97.816H9.689Z" transform="translate(381 2361)"/>
        <path id="パス_35-2" data-name="パス 35" class="cls-2" d="M10.35,0h-1.7L0,97.8H.663Z" transform="translate(530.65 2361)"/>
        <g id="グループ化_28-2" data-name="グループ化 28" transform="translate(0 30)">
          <circle id="楕円形_32-2" data-name="楕円形 32" class="cls-3" cx="10" cy="10" r="10" transform="translate(516 2511)"/>
          <circle id="楕円形_33-2" data-name="楕円形 33" class="cls-3" cx="10" cy="10" r="10" transform="translate(386 2511)"/>
          <circle id="楕円形_30-2" data-name="楕円形 30" class="cls-4" cx="10" cy="10" r="10" transform="translate(391 2525)"/>
          <circle id="楕円形_31-2" data-name="楕円形 31" class="cls-4" cx="10" cy="10" r="10" transform="translate(511 2525)"/>
          <ellipse id="楕円形_28-2" data-name="楕円形 28" class="cls-1" cx="75" cy="30" rx="75" ry="30" transform="translate(386 2481)"/>
          <circle id="楕円形_29-2" data-name="楕円形 29" class="cls-1" cx="10" cy="10" r="10" transform="translate(450 2535)"/>
          <ellipse id="楕円形_34-2" data-name="楕円形 34" class="cls-4" cx="43" cy="16" rx="43" ry="16" transform="translate(417 2479)"/>
          <path id="長方形_61-2" data-name="長方形 61" class="cls-1" d="M0,0H30a0,0,0,0,1,0,0V66A10,10,0,0,1,20,76H10A10,10,0,0,1,0,66V0A0,0,0,0,1,0,0Z" transform="translate(446 2415)"/>
          <path id="長方形_62-2" data-name="長方形 62" class="cls-4" d="M0,0H30a0,0,0,0,1,0,0V4A10,10,0,0,1,20,14H10A10,10,0,0,1,0,4V0A0,0,0,0,1,0,0Z" transform="translate(446 2429)"/>
        </g>
      </g>
      <g id="isu-3" data-name="isu" transform="translate(612)">
        <path id="パス_31-3" data-name="パス 31" class="cls-1" d="M30,0H130a30,30,0,0,1,30,30l-10,98H10L0,30A30,30,0,0,1,30,0Z" transform="translate(381 2331)"/>
        <path id="前面オブジェクトで型抜き_6-3" data-name="前面オブジェクトで型抜き 6" class="cls-2" d="M-3384.293,553H-3386a29.813,29.813,0,0,1,2.357-11.677,29.9,29.9,0,0,1,6.429-9.536,29.9,29.9,0,0,1,9.536-6.429A29.813,29.813,0,0,1-3356,523h100a29.815,29.815,0,0,1,11.678,2.358,29.9,29.9,0,0,1,9.536,6.429,29.9,29.9,0,0,1,6.429,9.536A29.816,29.816,0,0,1-3226,553h-1.707A30.053,30.053,0,0,0-3256,533h-100a30.053,30.053,0,0,0-28.292,20Z" transform="translate(3767 1808)"/>
        <path id="パス_34-3" data-name="パス 34" class="cls-2" d="M0,0H1.7l8.649,97.816H9.689Z" transform="translate(381 2361)"/>
        <path id="パス_35-3" data-name="パス 35" class="cls-2" d="M10.35,0h-1.7L0,97.8H.663Z" transform="translate(530.65 2361)"/>
        <g id="グループ化_28-3" data-name="グループ化 28" transform="translate(0 30)">
          <circle id="楕円形_32-3" data-name="楕円形 32" class="cls-3" cx="10" cy="10" r="10" transform="translate(516 2511)"/>
          <circle id="楕円形_33-3" data-name="楕円形 33" class="cls-3" cx="10" cy="10" r="10" transform="translate(386 2511)"/>
          <circle id="楕円形_30-3" data-name="楕円形 30" class="cls-4" cx="10" cy="10" r="10" transform="translate(391 2525)"/>
          <circle id="楕円形_29-3" data-name="楕円形 29" class="cls-4" cx="10" cy="10" r="10" transform="translate(450 2535)"/>
          <circle id="楕円形_31-3" data-name="楕円形 31" class="cls-4" cx="10" cy="10" r="10" transform="translate(511 2525)"/>
          <ellipse id="楕円形_28-3" data-name="楕円形 28" class="cls-1" cx="75" cy="30" rx="75" ry="30" transform="translate(386 2481)"/>
          <ellipse id="楕円形_34-3" data-name="楕円形 34" class="cls-4" cx="43" cy="16" rx="43" ry="16" transform="translate(417 2479)"/>
          <path id="長方形_61-3" data-name="長方形 61" class="cls-1" d="M0,0H30a0,0,0,0,1,0,0V66A10,10,0,0,1,20,76H10A10,10,0,0,1,0,66V0A0,0,0,0,1,0,0Z" transform="translate(446 2415)"/>
          <path id="長方形_62-3" data-name="長方形 62" class="cls-4" d="M0,0H30a0,0,0,0,1,0,0V4A10,10,0,0,1,20,14H10A10,10,0,0,1,0,4V0A0,0,0,0,1,0,0Z" transform="translate(446 2429)"/>
        </g>
      </g>
    </g>
    <line id="線_11" data-name="線 11" class="cls-5" y2="91" transform="translate(2107.5 2458.5)"/>
    <line id="線_12" data-name="線 12" class="cls-5" y2="48" transform="translate(579.5 2469.5)"/>
  </g>
</svg>
