<svg xmlns="http://www.w3.org/2000/svg" xmlns:xlink="http://www.w3.org/1999/xlink" viewBox="4414.595 1897 187.598 330">
  <defs>
    <style>
      .cls-1 {
        fill: none;
      }

      .cls-2 {
        fill: #fedea0;
      }

      .cls-3 {
        fill: #314e8a;
      }

      .cls-4 {
        fill: #5e4c3a;
      }

      .cls-5 {
        fill: #fff;
      }

      .cls-6 {
        fill: #f5c972;
      }

      .cls-7 {
        fill: #462d14;
      }

      .cls-8 {
        clip-path: url(#clip-path);
      }

      .cls-9 {
        fill: #331a00;
      }

      .cls-10 {
        fill: #333;
      }
    </style>
    <clipPath id="clip-path">
      <rect class="cls-1" width="102" height="5"/>
    </clipPath>
  </defs>
  <g id="人-後ろ" transform="translate(3889 -1026)">
    <rect id="長方形_108" data-name="長方形 108" class="cls-2" width="43" height="94" rx="21.5" transform="translate(596 3007)"/>
    <rect id="長方形_107" data-name="長方形 107" class="cls-2" width="110" height="110" rx="35" transform="translate(564 2923)"/>
    <rect id="長方形_89" data-name="長方形 89" class="cls-3" width="20" height="82" transform="translate(583 3171)"/>
    <path id="長方形_90" data-name="長方形 90" class="cls-4" d="M8,0H22a8,8,0,0,1,8,8v2a0,0,0,0,1,0,0H0a0,0,0,0,1,0,0V8A8,8,0,0,1,8,0Z" transform="translate(578 3243)"/>
    <path id="長方形_91" data-name="長方形 91" class="cls-3" d="M0,0H110a0,0,0,0,1,0,0V19A30,30,0,0,1,80,49H30A30,30,0,0,1,0,19V0A0,0,0,0,1,0,0Z" transform="translate(564 3128)"/>
    <rect id="長方形_92" data-name="長方形 92" class="cls-3" width="20" height="82" transform="translate(635 3171)"/>
    <path id="長方形_93" data-name="長方形 93" class="cls-4" d="M8,0H22a8,8,0,0,1,8,8v2a0,0,0,0,1,0,0H0a0,0,0,0,1,0,0V8A8,8,0,0,1,8,0Z" transform="translate(630 3243)"/>
    <path id="前面オブジェクトで型抜き_7" data-name="前面オブジェクトで型抜き 7" class="cls-5" d="M-3266,728.411h-110V653.054a19.871,19.871,0,0,1,5.858-14.143A19.869,19.869,0,0,1-3356,633.054h70a19.869,19.869,0,0,1,14.142,5.858A19.871,19.871,0,0,1-3266,653.054V728.41Z" transform="translate(3940 2399.946)"/>
    <path id="長方形_104" data-name="長方形 104" class="cls-6" d="M7,0H7A0,0,0,0,1,7,0V23a0,0,0,0,1,0,0H7a7,7,0,0,1-7-7V7A7,7,0,0,1,7,0Z" transform="translate(557 2979)"/>
    <g id="グループ化_56" data-name="グループ化 56" transform="matrix(0.978, 0.208, -0.208, 0.978, 659.332, -39.477)">
      <rect id="長方形_94" data-name="長方形 94" class="cls-2" width="28" height="20" rx="6" transform="translate(524.29 3109.833) rotate(-71)"/>
      <rect id="長方形_105" data-name="長方形 105" class="cls-5" width="70" height="20" transform="translate(527.545 3100.378) rotate(-71)"/>
    </g>
    <path id="長方形_106" data-name="長方形 106" class="cls-6" d="M0,0H0A7,7,0,0,1,7,7v9a7,7,0,0,1-7,7H0a0,0,0,0,1,0,0V0A0,0,0,0,1,0,0Z" transform="translate(674 2979)"/>
    <g id="グループ化_57" data-name="グループ化 57" transform="matrix(0.978, -0.208, 0.208, 0.978, -490.454, 188.286)">
      <path id="パス_73" data-name="パス 73" class="cls-2" d="M6.611,20.993l16.011-.032a6.049,6.049,0,0,0,6.016-6.047l.016-8.047A5.991,5.991,0,0,0,22.662.845L6.651.877A6.049,6.049,0,0,0,.635,6.924L.619,14.97A5.991,5.991,0,0,0,6.611,20.993Z" transform="translate(549.875 3117.245) rotate(-109)"/>
      <path id="パス_74" data-name="パス 74" class="cls-5" d="M.937,22.889l70.048-.14.04-20.116L.977,2.773Z" transform="translate(544.924 3108.716) rotate(-109)"/>
    </g>
    <rect id="長方形_109" data-name="長方形 109" class="cls-7" width="110" height="5" transform="translate(564 3125)"/>
    <g id="リピートグリッド_8" data-name="リピートグリッド 8" class="cls-8" transform="translate(567 3125)">
      <g transform="translate(-574 -3125)">
        <rect id="長方形_110" data-name="長方形 110" class="cls-9" width="3" height="5" transform="translate(574 3125)"/>
      </g>
      <g transform="translate(-541 -3125)">
        <rect id="長方形_110-2" data-name="長方形 110" class="cls-9" width="3" height="5" transform="translate(574 3125)"/>
      </g>
      <g transform="translate(-508 -3125)">
        <rect id="長方形_110-3" data-name="長方形 110" class="cls-9" width="3" height="5" transform="translate(574 3125)"/>
      </g>
      <g transform="translate(-475 -3125)">
        <rect id="長方形_110-4" data-name="長方形 110" class="cls-9" width="3" height="5" transform="translate(574 3125)"/>
      </g>
    </g>
    <rect id="長方形_133" data-name="長方形 133" class="cls-10" width="110" height="110" rx="35" transform="translate(564 2923)"/>
  </g>
</svg>
