<svg xmlns="http://www.w3.org/2000/svg" viewBox="4343.5 1344.08 351.389 361.599">
  <defs>
    <style>
      .cls-1 {
        fill: #fff;
        stroke: #333;
      }

      .cls-2 {
        fill: none;
      }

      .cls-3 {
        fill: #96c9ba;
      }

      .cls-4 {
        fill: #b8c6c6;
      }

      .cls-5, .cls-9 {
        fill: #040000;
      }

      .cls-5 {
        opacity: 0.1;
      }

      .cls-6 {
        fill: #b4b3b3;
      }

      .cls-7 {
        fill: #f2f2f2;
      }

      .cls-8 {
        fill: #88bbc0;
      }

      .cls-9 {
        opacity: 0.06;
      }
    </style>
  </defs>
  <g id="dreaming-in-cloud" transform="translate(4329.949 1344.58)">
    <ellipse id="楕円形_39" data-name="楕円形 39" class="cls-1" cx="35.791" cy="35.791" rx="35.791" ry="35.791" transform="translate(83.017 252.862)"/>
    <ellipse id="楕円形_40" data-name="楕円形 40" class="cls-1" cx="26.053" cy="26.053" rx="26.053" ry="26.053" transform="translate(14.051 308.493)"/>
    <path id="パス_121" data-name="パス 121" class="cls-1" d="M14.051,150.031A54.916,54.916,0,0,1,57.8,96.29a7.407,7.407,0,0,0,5.923-6.4A102.494,102.494,0,0,1,259.21,61.117a7.46,7.46,0,0,0,8.575,4.215,71.465,71.465,0,0,1,17.768-2.107,70.855,70.855,0,0,1,39.933,128.957A48.787,48.787,0,0,1,256.7,213.655a7.439,7.439,0,0,0-10.247,2.653,72.961,72.961,0,0,1-116.929,13.044,7.513,7.513,0,0,0-9.665-1.053,36.167,36.167,0,0,1-54.468-19.185,7.368,7.368,0,0,0-5.741-5.015A54.841,54.841,0,0,1,14.051,150.031Z" transform="translate(8.648)"/>
    <g id="f_f_traffic_29_svg_f_traffic_29_2nbg" transform="translate(104.051 56.421)">
      <path id="パス_56" data-name="パス 56" class="cls-2" d="M309.329,164.945l-4.233,4.233,4.233,2.728Z" transform="translate(-211.339 -114.257)"/>
      <g id="グループ化_55" data-name="グループ化 55" transform="translate(0 -0.001)">
        <g id="グループ化_54" data-name="グループ化 54">
          <g id="グループ化_49" data-name="グループ化 49" transform="translate(30.321)">
            <g id="グループ化_48" data-name="グループ化 48">
              <path id="パス_57" data-name="パス 57" class="cls-3" d="M232.818,49.951v67.531a11.714,11.714,0,0,1-6.334,10.38,11.047,11.047,0,0,1-2.745,1.011,10.577,10.577,0,0,1-2.625.313,11.509,11.509,0,0,1-5.371-1.325,11.713,11.713,0,0,1-6.334-10.38V49.951a11.759,11.759,0,0,1,11.7-11.7,11.341,11.341,0,0,1,4.459.928l.063.024a11.4,11.4,0,0,1,1.715.9c.193.12.385.241.554.361s.337.241.506.385a12.474,12.474,0,0,1,1.036.939,6.5,6.5,0,0,1,.675.747,8.287,8.287,0,0,1,.675.867,7.809,7.809,0,0,1,.506.843c.1.168.193.337.289.53a7.99,7.99,0,0,1,.578,1.421c.1.241.169.482.241.723.072.265.144.506.193.77a7.992,7.992,0,0,1,.144,1.06A10.091,10.091,0,0,1,232.818,49.951Z" transform="translate(-175.377 -26.493)"/>
              <path id="パス_58" data-name="パス 58" class="cls-3" d="M122.078,49.951v67.531a11.492,11.492,0,0,1-2.457,7.1,11.373,11.373,0,0,1-3.878,3.275,11.549,11.549,0,0,1-10.742,0,11.713,11.713,0,0,1-6.334-10.38V49.9a11.76,11.76,0,0,1,11.681-11.657h.024A11.748,11.748,0,0,1,122.078,49.951Z" transform="translate(-98.668 -26.493)"/>
              <path id="パス_59" data-name="パス 59" class="cls-4" d="M347.722,13.149V96.335a13.545,13.545,0,0,1-.939,5.034,11.594,11.594,0,0,1-1.3,2.625,14.43,14.43,0,0,1-12.186,6.743,13.748,13.748,0,0,1-4.48-.723,14.434,14.434,0,0,1-9.561-10.525,13.621,13.621,0,0,1-.361-3.155V13.149a13.144,13.144,0,0,1,.169-2.168,14.23,14.23,0,0,1,3.059-6.888,11.094,11.094,0,0,1,1.012-1.108A14.125,14.125,0,0,1,327.443,0h11.729a14.841,14.841,0,0,1,5.323,4.095,14.23,14.23,0,0,1,3.059,6.888A16.463,16.463,0,0,1,347.722,13.149Z" transform="translate(-251.217 0.001)"/>
            </g>
            <path id="パス_60" data-name="パス 60" class="cls-5" d="M347.721,22.379v1.83a1.047,1.047,0,0,1-.169.12,4.955,4.955,0,0,1-2.577.747H321.638a4.955,4.955,0,0,1-2.577-.747,1.048,1.048,0,0,1-.169-.12v-1.83a13.15,13.15,0,0,1,.169-2.168,14.23,14.23,0,0,1,3.059-6.888h22.374a14.23,14.23,0,0,1,3.059,6.888A16.412,16.412,0,0,1,347.721,22.379Z" transform="translate(-251.216 -9.228)"/>
            <path id="パス_61" data-name="パス 61" class="cls-4" d="M345.154,4.793V6.961a4.835,4.835,0,0,1-4.793,4.792H317.024a4.835,4.835,0,0,1-4.793-4.792V4.793A4.806,4.806,0,0,1,317.024,0h23.337A4.821,4.821,0,0,1,345.154,4.793Z" transform="translate(-246.602 0)"/>
          </g>
          <path id="パス_62" data-name="パス 62" class="cls-6" d="M157.34,174.109l-.458,6v.048l-.6,8.381-.506,6.96-1.012,13.728-1.71,23.169-.41,5.515H6.551L3.42,195.327,2.336,180.588.554,156.456l-.072-.963v-.072L0,149.062l4.913,3.011L30.322,167.7l10.38,6.406h.024l-.674-18.641v-.048l-.241-6.358,13.92,8.767,10.621,6.695,14.33,9.007.915.578V149.062l8.164,5.251L98,160.911l20.447,13.2h.024l.674-18.737.241-6.311,7.442,4.914Z" transform="translate(0 -103.254)"/>
          <path id="パス_63" data-name="パス 63" class="cls-7" d="M157.938,194.4l-.626,8.357-.506,6.96-1.012,13.728-1.686,23.169h-.024l-.41,5.515-.409,5.347H7.992l-.337-4.7-.048-.65-3.155-42.58L3.368,194.813,1.561,170.681l-.072-.987.024.024v-.072l.674.409,29.166,17.822,10.621,6.5-.241-6.045-.7-18.665.048.024v-.048l13.679,8.55,10.621,6.647,14.33,8.959.915.578v-6.045L80.6,169.645h.024l8.164,5.226,8.309,5.322,1.927,1.228,20.23,12.933.217-6.021.7-18.737,7.683,5.033,30.057,19.7v.048Z" transform="translate(-1.031 -117.479)"/>
          <g id="グループ化_53" data-name="グループ化 53" transform="translate(13.764 89.254)">
            <g id="グループ化_50" data-name="グループ化 50">
              <rect id="長方形_98" data-name="長方形 98" class="cls-8" width="37.515" height="12.124"/>
              <rect id="長方形_99" data-name="長方形 99" class="cls-8" width="37.515" height="12.124" transform="translate(0 14.74)"/>
            </g>
            <g id="グループ化_51" data-name="グループ化 51" transform="translate(47.078)">
              <rect id="長方形_100" data-name="長方形 100" class="cls-8" width="37.515" height="12.124"/>
              <rect id="長方形_101" data-name="長方形 101" class="cls-8" width="37.515" height="12.124" transform="translate(0 14.74)"/>
            </g>
            <g id="グループ化_52" data-name="グループ化 52" transform="translate(94.156)">
              <rect id="長方形_102" data-name="長方形 102" class="cls-8" width="37.515" height="12.124"/>
              <rect id="長方形_103" data-name="長方形 103" class="cls-8" width="37.515" height="12.124" transform="translate(0 14.74)"/>
            </g>
          </g>
        </g>
        <path id="パス_64" data-name="パス 64" class="cls-9" d="M334.7,70.855l-.434,6.069-.626,8.357-.506,6.96-2.7,36.9h-.024L330,134.653,329.591,140H256.039V12.09a11.408,11.408,0,0,1,3.613,1.517c.193.12.385.241.554.361s.337.241.506.385a12.473,12.473,0,0,1,1.036.939,6.5,6.5,0,0,1,.675.747,10.62,10.62,0,0,1,.674.867,7.809,7.809,0,0,1,.506.843c.1.168.193.337.289.53a7.989,7.989,0,0,1,.578,1.421c.1.241.169.482.241.723.072.265.144.506.193.77a8,8,0,0,1,.144,1.06,10.162,10.162,0,0,1,.072,1.2v27.6l10.236,6.6V13.15a13.144,13.144,0,0,1,.169-2.168,4.723,4.723,0,0,1-2.216-4.022V4.792A4.8,4.8,0,0,1,278.1,0h23.337a4.821,4.821,0,0,1,4.793,4.793V6.961a4.778,4.778,0,0,1-2.216,4.022,16.45,16.45,0,0,1,.169,2.168V50.7Z" transform="translate(-177.357 0)"/>
      </g>
    </g>
  </g>
</svg>
