<svg xmlns="http://www.w3.org/2000/svg" viewBox="5085 2802 350 243">
  <defs>
    <style>
      .cls-1 {
        fill: #f5c972;
      }

      .cls-2 {
        fill: #1a0d00;
      }

      .cls-3 {
        fill: #331a00;
      }

      .cls-4 {
        fill: #ccc;
      }

      .cls-5 {
        fill: #666;
      }

      .cls-6 {
        fill: #333;
      }

      .cls-7 {
        fill: #4d4d4d;
      }
    </style>
  </defs>
  <g id="グループ化_78" data-name="グループ化 78" transform="translate(2885 -523)">
    <path id="長方形_132" data-name="長方形 132" class="cls-1" d="M10,0H340a10,10,0,0,1,10,10V223a0,0,0,0,1,0,0H0a0,0,0,0,1,0,0V10A10,10,0,0,1,10,0Z" transform="translate(2200 3345)"/>
    <path id="長方形_134" data-name="長方形 134" class="cls-2" d="M10,0H300a10,10,0,0,1,10,10V203a0,0,0,0,1,0,0H0a0,0,0,0,1,0,0V10A10,10,0,0,1,10,0Z" transform="translate(2220 3365)"/>
    <path id="長方形_135" data-name="長方形 135" class="cls-3" d="M10,0H190a10,10,0,0,1,10,10V20a0,0,0,0,1,0,0H0a0,0,0,0,1,0,0V10A10,10,0,0,1,10,0Z" transform="translate(2275 3325)"/>
    <path id="パス_80" data-name="パス 80" class="cls-4" d="M0,0,195.8-.2,194,10H0Z" transform="translate(2337.484 3420.531) rotate(-10)"/>
    <path id="パス_82" data-name="パス 82" class="cls-4" d="M3.335-.052,74.281.286l8.1,4.777L2.038,4.785Z" transform="translate(2307.101 3467.319) rotate(-22)"/>
    <circle id="楕円形_42" data-name="楕円形 42" class="cls-4" cx="45" cy="45" r="45" transform="translate(2252 3386)"/>
    <circle id="楕円形_43" data-name="楕円形 43" class="cls-5" cx="35" cy="35" r="35" transform="translate(2262 3395)"/>
    <circle id="楕円形_44" data-name="楕円形 44" class="cls-4" cx="15" cy="15" r="15" transform="translate(2282 3415)"/>
    <g id="グループ化_74" data-name="グループ化 74" transform="translate(2213 3212)">
      <circle id="楕円形_14" data-name="楕円形 14" class="cls-4" cx="15" cy="15" r="15" transform="translate(80 244)"/>
      <circle id="楕円形_15" data-name="楕円形 15" class="cls-6" cx="10" cy="10" r="10" transform="translate(85 249)"/>
      <circle id="楕円形_16" data-name="楕円形 16" class="cls-4" cx="5" cy="5" r="5" transform="translate(90 254)"/>
    </g>
    <rect id="長方形_137" data-name="長方形 137" class="cls-4" width="5" height="60" transform="matrix(0.966, -0.259, 0.259, 0.966, 2287.062, 3401.703)"/>
    <path id="パス_83" data-name="パス 83" class="cls-4" d="M3.335-.052,74.281.286l8.1,4.777L2.038,4.785Z" transform="matrix(0.966, -0.259, 0.259, 0.966, 2216.756, 3406.335)"/>
    <g id="グループ化_75" data-name="グループ化 75" transform="translate(2191 3131)">
      <circle id="楕円形_14-2" data-name="楕円形 14" class="cls-4" cx="15" cy="15" r="15" transform="translate(80 244)"/>
      <circle id="楕円形_15-2" data-name="楕円形 15" class="cls-6" cx="10" cy="10" r="10" transform="translate(85 249)"/>
      <circle id="楕円形_16-2" data-name="楕円形 16" class="cls-4" cx="5" cy="5" r="5" transform="translate(90 254)"/>
    </g>
    <path id="長方形_138" data-name="長方形 138" class="cls-7" d="M0,0H153a0,0,0,0,1,0,0V33a10,10,0,0,1-10,10H10A10,10,0,0,1,0,33V0A0,0,0,0,1,0,0Z" transform="translate(2299 3365)"/>
  </g>
</svg>
