<svg xmlns="http://www.w3.org/2000/svg" viewBox="4723 2982 350 243">
  <defs>
    <style>
      .cls-1 {
        fill: #f5c972;
      }

      .cls-2 {
        fill: #331a00;
      }

      .cls-3 {
        fill: #1a0d00;
      }

      .cls-4 {
        fill: #e2994d;
      }

      .cls-5 {
        fill: #af906c;
      }

      .cls-6, .cls-7 {
        fill: #fff;
      }

      .cls-7 {
        stroke: #331a00;
      }

      .cls-8 {
        fill: #666;
      }

      .cls-9 {
        fill: #ccc;
      }

      .cls-10 {
        stroke: none;
      }

      .cls-11 {
        fill: none;
      }
    </style>
  </defs>
  <g id="グループ化_77" data-name="グループ化 77" transform="translate(2885 -523)">
    <rect id="長方形_125" data-name="長方形 125" class="cls-1" width="350" height="243" transform="translate(1838 3505)"/>
    <rect id="長方形_126" data-name="長方形 126" class="cls-2" width="350" height="40" transform="translate(1838 3708)"/>
    <rect id="長方形_127" data-name="長方形 127" class="cls-3" width="310" height="143" transform="translate(1858 3505)"/>
    <g id="グループ化_69" data-name="グループ化 69" transform="translate(1830 3134)">
      <rect id="長方形_15" data-name="長方形 15" class="cls-4" width="116" height="47" rx="4" transform="translate(37 520)"/>
      <rect id="長方形_16" data-name="長方形 16" class="cls-5" width="106" height="37" rx="4" transform="translate(42 525)"/>
      <rect id="長方形_17" data-name="長方形 17" class="cls-6" width="40" height="4" transform="translate(47 529)"/>
      <rect id="長方形_18" data-name="長方形 18" class="cls-6" width="80" height="4" transform="translate(47 545)"/>
      <rect id="長方形_19" data-name="長方形 19" class="cls-6" width="40" height="4" transform="translate(47 537)"/>
      <rect id="長方形_20" data-name="長方形 20" class="cls-6" width="80" height="4" transform="translate(47 553)"/>
      <rect id="長方形_21" data-name="長方形 21" class="cls-6" width="14" height="4" transform="translate(130 545)"/>
      <rect id="長方形_22" data-name="長方形 22" class="cls-6" width="14" height="4" transform="translate(130 553)"/>
      <circle id="楕円形_4" data-name="楕円形 4" class="cls-6" cx="6.5" cy="6.5" r="6.5" transform="translate(112 528)"/>
      <g id="グループ化_6" data-name="グループ化 6" transform="translate(-1)">
        <g id="長方形_23" data-name="長方形 23" class="cls-7" transform="translate(119 529)">
          <rect class="cls-10" width="1" height="6"/>
          <rect class="cls-11" x="0.5" y="0.5" height="5"/>
        </g>
        <g id="長方形_24" data-name="長方形 24" class="cls-7" transform="translate(125 534) rotate(90)">
          <rect class="cls-10" width="1" height="6"/>
          <rect class="cls-11" x="0.5" y="0.5" height="5"/>
        </g>
      </g>
      <circle id="楕円形_5" data-name="楕円形 5" class="cls-6" cx="6.5" cy="6.5" r="6.5" transform="translate(130 528)"/>
      <g id="グループ化_7" data-name="グループ化 7" transform="translate(17)">
        <g id="長方形_23-2" data-name="長方形 23" class="cls-7" transform="translate(119 529)">
          <rect class="cls-10" width="1" height="6"/>
          <rect class="cls-11" x="0.5" y="0.5" height="5"/>
        </g>
        <g id="長方形_24-2" data-name="長方形 24" class="cls-7" transform="translate(125 534) rotate(90)">
          <rect class="cls-10" width="1" height="6"/>
          <rect class="cls-11" x="0.5" y="0.5" height="5"/>
        </g>
      </g>
    </g>
    <path id="前面オブジェクトで型抜き_8" data-name="前面オブジェクトで型抜き 8" class="cls-8" d="M52.045,50.5H12V47.675a3.6,3.6,0,0,1,3.315-3.543l6.061-.4a4.586,4.586,0,0,0,3.973-3.439l.482-1.547.189-.6c.231-.649-.821-2.005-2.344-3.024l-5.042-3.379a3.6,3.6,0,0,1-1.1-4.724l2.326-4.028a3.6,3.6,0,0,1,3.118-1.761,3.415,3.415,0,0,1,1.524.351l5.453,2.679a2.338,2.338,0,0,0,1.034.206,9.734,9.734,0,0,0,5.063-2c.919-.843,1.01-2.864.2-4.5l-2.679-5.45a3.611,3.611,0,0,1,1.409-4.645l4.028-2.326a3.476,3.476,0,0,1,1.737-.458,3.618,3.618,0,0,1,2.987,1.557l3.375,5.038c.737,1.1,3.117,1.6,5.016,1.6a5.8,5.8,0,0,0,1.154-.094c1.228-.272,2.323-1.979,2.442-3.805l.406-6.054A3.6,3.6,0,0,1,59.675,0h4.651a3.6,3.6,0,0,1,3.542,3.315l.406,6.061a4.578,4.578,0,0,0,3.436,3.973l1.544.482.6.186a.586.586,0,0,0,.2.033c.705,0,1.919-1.02,2.824-2.374l3.382-5.042a3.619,3.619,0,0,1,2.986-1.556,3.479,3.479,0,0,1,1.738.458l4.028,2.325a3.612,3.612,0,0,1,1.409,4.645l-2.679,5.45a4.569,4.569,0,0,0,.28,3.319,9.688,9.688,0,0,0,1.514,2.778A2.925,2.925,0,0,0,91.7,24.8a5.408,5.408,0,0,0,2.342-.549l5.45-2.679a3.421,3.421,0,0,1,1.526-.351,3.6,3.6,0,0,1,3.119,1.761l2.325,4.028a3.6,3.6,0,0,1-1.1,4.724l-5.039,3.375c-1.5,1.007-1.786,4.874-1.5,6.171.272,1.225,1.979,2.322,3.805,2.444l6.055.4A3.6,3.6,0,0,1,112,47.674V50.5H71.954c.008-.159.012-.327.013-.5a9.826,9.826,0,0,0-1.7-5.563,10.076,10.076,0,0,0-4.395-3.626,9.947,9.947,0,0,0-9.439.916,10.1,10.1,0,0,0-3.625,4.4A9.815,9.815,0,0,0,52.033,50c0,.167,0,.335.012.5Z" transform="translate(1867 3598)"/>
    <g id="グループ化_72" data-name="グループ化 72" transform="translate(1828 3135)">
      <rect id="長方形_25" data-name="長方形 25" class="cls-8" width="90" height="60" transform="translate(195 453)"/>
      <path id="長方形_26" data-name="長方形 26" class="cls-9" d="M10,0H80A10,10,0,0,1,90,10V30a0,0,0,0,1,0,0H0a0,0,0,0,1,0,0V10A10,10,0,0,1,10,0Z" transform="translate(195 439)"/>
      <path id="パス_4" data-name="パス 4" class="cls-9" d="M0,0H30.479V5H0Z" transform="translate(284 453)"/>
      <path id="パス_5" data-name="パス 5" class="cls-9" d="M.555-.1,60,0V5L.555,4.95Z" transform="translate(309.5 513.5) rotate(-90)"/>
    </g>
  </g>
</svg>
