<svg xmlns="http://www.w3.org/2000/svg" viewBox="3845 646 180 180">
  <defs>
    <style>
      .cls-1 {
        fill: #666;
      }

      .cls-2 {
        fill: #ccc;
      }

      .cls-3 {
        fill: #333;
      }
    </style>
  </defs>
  <g id="グループ化_19" data-name="グループ化 19" transform="translate(3725 370)">
    <circle id="楕円形_6" data-name="楕円形 6" class="cls-1" cx="90" cy="90" r="90" transform="translate(120 276)"/>
    <g id="無料の設定歯車アイコン" transform="translate(253.996 133)">
      <path id="パス_2" data-name="パス 2" class="cls-2" d="M156.085,65.628l-17.454-.806a4.1,4.1,0,0,1-3.608-2.532l-3.6-8.655a4.12,4.12,0,0,1,.767-4.348L143.966,36.37a4.124,4.124,0,0,0-.132-5.682L129.323,16.174a4.122,4.122,0,0,0-5.688-.129l-12.91,11.772a4.113,4.113,0,0,1-4.351.761l-8.655-3.59a4.1,4.1,0,0,1-2.529-3.614L94.381,3.926A4.116,4.116,0,0,0,90.275,0H69.741a4.12,4.12,0,0,0-4.111,3.926l-.8,17.448A4.1,4.1,0,0,1,62.3,24.987l-8.655,3.59a4.109,4.109,0,0,1-4.351-.761L36.374,16.045a4.12,4.12,0,0,0-5.688.129L16.181,30.688a4.113,4.113,0,0,0-.132,5.682L27.821,49.286a4.1,4.1,0,0,1,.755,4.348l-3.584,8.655a4.109,4.109,0,0,1-3.614,2.532L3.93,65.628A4.115,4.115,0,0,0,0,69.736V90.268A4.118,4.118,0,0,0,3.93,94.377l17.448.806a4.108,4.108,0,0,1,3.614,2.532l3.584,8.655a4.1,4.1,0,0,1-.755,4.348L16.049,123.628a4.12,4.12,0,0,0,.126,5.688L30.7,143.83a4.118,4.118,0,0,0,5.682.132l12.91-11.774a4.116,4.116,0,0,1,4.351-.761l8.655,3.587a4.109,4.109,0,0,1,2.529,3.617l.8,17.448A4.122,4.122,0,0,0,69.74,160H90.274a4.117,4.117,0,0,0,4.106-3.926l.809-17.448a4.11,4.11,0,0,1,2.529-3.617l8.655-3.587a4.118,4.118,0,0,1,4.351.761l12.91,11.774a4.125,4.125,0,0,0,5.688-.132l14.511-14.514a4.132,4.132,0,0,0,.132-5.688l-11.772-12.911a4.107,4.107,0,0,1-.767-4.348l3.6-8.655a4.1,4.1,0,0,1,3.608-2.532l17.454-.806A4.113,4.113,0,0,0,160,90.268V69.736A4.109,4.109,0,0,0,156.085,65.628ZM80.008,106.133A26.131,26.131,0,1,1,106.134,80,26.135,26.135,0,0,1,80.008,106.133Z" transform="translate(-124 153)"/>
    </g>
    <circle id="楕円形_7" data-name="楕円形 7" class="cls-3" cx="20" cy="20" r="20" transform="translate(190 346)"/>
    <circle id="楕円形_8" data-name="楕円形 8" class="cls-2" cx="10" cy="10" r="10" transform="translate(200 356)"/>
  </g>
</svg>
