<svg xmlns="http://www.w3.org/2000/svg" viewBox="3386 244.93 350 749.07">
  <defs>
    <style>
      .cls-1 {
        fill: #f5c972;
      }

      .cls-2 {
        fill: #331a00;
      }

      .cls-3 {
        fill: #1a0d00;
      }

      .cls-4 {
        fill: #e2994d;
      }

      .cls-5 {
        fill: #af906c;
      }

      .cls-6, .cls-7 {
        fill: #fff;
      }

      .cls-7 {
        stroke: #331a00;
      }

      .cls-8 {
        fill: #ccc;
      }

      .cls-9 {
        fill: #666;
      }

      .cls-10 {
        fill: #333;
      }

      .cls-11 {
        fill: #4d4d4d;
      }

      .cls-12 {
        stroke: none;
      }

      .cls-13 {
        fill: none;
      }
    </style>
  </defs>
  <g id="工場生産機械" transform="translate(3386 -523)">
    <path id="長方形_47" data-name="長方形 47" class="cls-1" d="M10,0H340a10,10,0,0,1,10,10V400a0,0,0,0,1,0,0H0a0,0,0,0,1,0,0V10A10,10,0,0,1,10,0Z" transform="translate(0 1117)"/>
    <rect id="長方形_48" data-name="長方形 48" class="cls-2" width="350" height="40" transform="translate(0 1477)"/>
    <rect id="長方形_49" data-name="長方形 49" class="cls-3" width="310" height="280" rx="10" transform="translate(20 1137)"/>
    <path id="長方形_50" data-name="長方形 50" class="cls-2" d="M10,0H190a10,10,0,0,1,10,10V20a0,0,0,0,1,0,0H0a0,0,0,0,1,0,0V10A10,10,0,0,1,10,0Z" transform="translate(75 1097)"/>
    <g id="グループ化_16" data-name="グループ化 16" transform="translate(-8 903)">
      <rect id="長方形_15" data-name="長方形 15" class="cls-4" width="116" height="47" rx="4" transform="translate(37 520)"/>
      <rect id="長方形_16" data-name="長方形 16" class="cls-5" width="106" height="37" rx="4" transform="translate(42 525)"/>
      <rect id="長方形_17" data-name="長方形 17" class="cls-6" width="40" height="4" transform="translate(47 529)"/>
      <rect id="長方形_18" data-name="長方形 18" class="cls-6" width="80" height="4" transform="translate(47 545)"/>
      <rect id="長方形_19" data-name="長方形 19" class="cls-6" width="40" height="4" transform="translate(47 537)"/>
      <rect id="長方形_20" data-name="長方形 20" class="cls-6" width="80" height="4" transform="translate(47 553)"/>
      <rect id="長方形_21" data-name="長方形 21" class="cls-6" width="14" height="4" transform="translate(130 545)"/>
      <rect id="長方形_22" data-name="長方形 22" class="cls-6" width="14" height="4" transform="translate(130 553)"/>
      <circle id="楕円形_4" data-name="楕円形 4" class="cls-6" cx="6.5" cy="6.5" r="6.5" transform="translate(112 528)"/>
      <g id="グループ化_6" data-name="グループ化 6" transform="translate(-1)">
        <g id="長方形_23" data-name="長方形 23" class="cls-7" transform="translate(119 529)">
          <rect class="cls-12" width="1" height="6"/>
          <rect class="cls-13" x="0.5" y="0.5" height="5"/>
        </g>
        <g id="長方形_24" data-name="長方形 24" class="cls-7" transform="translate(125 534) rotate(90)">
          <rect class="cls-12" width="1" height="6"/>
          <rect class="cls-13" x="0.5" y="0.5" height="5"/>
        </g>
      </g>
      <circle id="楕円形_5" data-name="楕円形 5" class="cls-6" cx="6.5" cy="6.5" r="6.5" transform="translate(130 528)"/>
      <g id="グループ化_7" data-name="グループ化 7" transform="translate(17)">
        <g id="長方形_23-2" data-name="長方形 23" class="cls-7" transform="translate(119 529)">
          <rect class="cls-12" width="1" height="6"/>
          <rect class="cls-13" x="0.5" y="0.5" height="5"/>
        </g>
        <g id="長方形_24-2" data-name="長方形 24" class="cls-7" transform="translate(125 534) rotate(90)">
          <rect class="cls-12" width="1" height="6"/>
          <rect class="cls-13" x="0.5" y="0.5" height="5"/>
        </g>
      </g>
    </g>
    <path id="パス_12" data-name="パス 12" class="cls-8" d="M0,0,195.8-.2,194,10H0Z" transform="translate(137.484 1192.531) rotate(-10)"/>
    <g id="無料の設定歯車アイコン" transform="translate(179.996 1120)">
      <path id="パス_2" data-name="パス 2" class="cls-8" d="M97.552,41.016l-10.908-.5a2.563,2.563,0,0,1-2.255-1.583l-2.248-5.409a2.575,2.575,0,0,1,.479-2.718l7.357-8.073a2.578,2.578,0,0,0-.082-3.551l-9.069-9.071a2.576,2.576,0,0,0-3.555-.08L69.2,17.385a2.571,2.571,0,0,1-2.72.476l-5.409-2.244a2.563,2.563,0,0,1-1.581-2.259l-.506-10.9A2.572,2.572,0,0,0,56.422,0H43.588a2.575,2.575,0,0,0-2.57,2.454l-.5,10.9a2.564,2.564,0,0,1-1.581,2.259l-5.409,2.244a2.568,2.568,0,0,1-2.72-.476l-8.072-7.357a2.575,2.575,0,0,0-3.555.08l-9.065,9.071a2.571,2.571,0,0,0-.082,3.551L17.389,30.8a2.565,2.565,0,0,1,.472,2.718l-2.24,5.409a2.568,2.568,0,0,1-2.259,1.583l-10.9.5A2.572,2.572,0,0,0,0,43.584V56.416a2.574,2.574,0,0,0,2.454,2.568l10.9.5a2.568,2.568,0,0,1,2.259,1.583l2.24,5.409a2.565,2.565,0,0,1-.472,2.718l-7.357,8.069a2.575,2.575,0,0,0,.079,3.555l9.076,9.071a2.574,2.574,0,0,0,3.551.082l8.069-7.359a2.573,2.573,0,0,1,2.72-.476l5.409,2.242a2.568,2.568,0,0,1,1.581,2.261l.5,10.9A2.576,2.576,0,0,0,43.588,100H56.421a2.573,2.573,0,0,0,2.566-2.454l.506-10.9a2.568,2.568,0,0,1,1.581-2.261l5.409-2.242a2.574,2.574,0,0,1,2.72.476l8.069,7.359a2.578,2.578,0,0,0,3.555-.082L89.9,80.821a2.582,2.582,0,0,0,.082-3.555L82.62,69.2a2.567,2.567,0,0,1-.479-2.718l2.248-5.409a2.562,2.562,0,0,1,2.255-1.583l10.908-.5A2.57,2.57,0,0,0,100,56.416V43.584A2.568,2.568,0,0,0,97.552,41.016ZM50.005,66.332A16.331,16.331,0,1,1,66.334,50,16.334,16.334,0,0,1,50.005,66.332Z" transform="translate(-124 153)"/>
    </g>
    <path id="前面オブジェクトで型抜き_5" data-name="前面オブジェクトで型抜き 5" class="cls-9" d="M52.045,50.5H12V47.675a3.6,3.6,0,0,1,3.315-3.543l6.061-.4a4.586,4.586,0,0,0,3.973-3.439l.482-1.547.189-.6c.231-.649-.821-2.005-2.344-3.024l-5.042-3.379a3.6,3.6,0,0,1-1.1-4.724l2.326-4.028a3.6,3.6,0,0,1,3.118-1.761,3.415,3.415,0,0,1,1.524.351l5.453,2.679a2.338,2.338,0,0,0,1.034.206,9.734,9.734,0,0,0,5.063-2c.919-.843,1.01-2.864.2-4.5l-2.679-5.45a3.611,3.611,0,0,1,1.409-4.645l4.028-2.326a3.476,3.476,0,0,1,1.737-.458,3.618,3.618,0,0,1,2.987,1.557l3.375,5.038c.737,1.1,3.117,1.6,5.016,1.6a5.8,5.8,0,0,0,1.154-.094c1.228-.272,2.323-1.979,2.442-3.805l.406-6.054A3.6,3.6,0,0,1,59.675,0h4.651a3.6,3.6,0,0,1,3.542,3.315l.406,6.061a4.578,4.578,0,0,0,3.436,3.973l1.544.482.6.186a.586.586,0,0,0,.2.033c.705,0,1.919-1.02,2.824-2.374l3.382-5.042a3.619,3.619,0,0,1,2.986-1.556,3.479,3.479,0,0,1,1.738.458l4.028,2.325a3.612,3.612,0,0,1,1.409,4.645l-2.679,5.45a4.569,4.569,0,0,0,.28,3.319,9.688,9.688,0,0,0,1.514,2.778A2.925,2.925,0,0,0,91.7,24.8a5.408,5.408,0,0,0,2.342-.549l5.45-2.679a3.421,3.421,0,0,1,1.526-.351,3.6,3.6,0,0,1,3.119,1.761l2.325,4.028a3.6,3.6,0,0,1-1.1,4.724l-5.039,3.375c-1.5,1.007-1.786,4.874-1.5,6.171.272,1.225,1.979,2.322,3.805,2.444l6.055.4A3.6,3.6,0,0,1,112,47.674V50.5H71.954c.008-.159.012-.327.013-.5a9.826,9.826,0,0,0-1.7-5.563,10.076,10.076,0,0,0-4.395-3.626,9.947,9.947,0,0,0-9.439.916,10.1,10.1,0,0,0-3.625,4.4A9.815,9.815,0,0,0,52.033,50c0,.167,0,.335.012.5Z" transform="translate(29 1367)"/>
    <path id="パス_14" data-name="パス 14" class="cls-8" d="M3.335-.052,74.281.286l8.1,4.777L2.038,4.785Z" transform="translate(107.101 1239.319) rotate(-22)"/>
    <circle id="楕円形_22" data-name="楕円形 22" class="cls-10" cx="20" cy="20" r="20" transform="translate(86 1303)"/>
    <circle id="楕円形_23" data-name="楕円形 23" class="cls-8" cx="10" cy="10" r="10" transform="translate(96 1313)"/>
    <circle id="楕円形_24" data-name="楕円形 24" class="cls-8" cx="45" cy="45" r="45" transform="translate(52 1158)"/>
    <circle id="楕円形_25" data-name="楕円形 25" class="cls-9" cx="35" cy="35" r="35" transform="translate(62 1167)"/>
    <circle id="楕円形_26" data-name="楕円形 26" class="cls-8" cx="15" cy="15" r="15" transform="translate(82 1187)"/>
    <g id="グループ化_17" data-name="グループ化 17" transform="translate(13 984)">
      <circle id="楕円形_14" data-name="楕円形 14" class="cls-8" cx="15" cy="15" r="15" transform="translate(80 244)"/>
      <circle id="楕円形_15" data-name="楕円形 15" class="cls-10" cx="10" cy="10" r="10" transform="translate(85 249)"/>
      <circle id="楕円形_16" data-name="楕円形 16" class="cls-8" cx="5" cy="5" r="5" transform="translate(90 254)"/>
    </g>
    <rect id="長方形_52" data-name="長方形 52" class="cls-8" width="5" height="60" transform="matrix(0.966, -0.259, 0.259, 0.966, 87.062, 1173.703)"/>
    <path id="パス_15" data-name="パス 15" class="cls-8" d="M3.335-.052,74.281.286l8.1,4.777L2.038,4.785Z" transform="matrix(0.966, -0.259, 0.259, 0.966, 16.756, 1178.335)"/>
    <g id="グループ化_18" data-name="グループ化 18" transform="translate(-9 903)">
      <circle id="楕円形_14-2" data-name="楕円形 14" class="cls-8" cx="15" cy="15" r="15" transform="translate(80 244)"/>
      <circle id="楕円形_15-2" data-name="楕円形 15" class="cls-10" cx="10" cy="10" r="10" transform="translate(85 249)"/>
      <circle id="楕円形_16-2" data-name="楕円形 16" class="cls-8" cx="5" cy="5" r="5" transform="translate(90 254)"/>
    </g>
    <g id="グループ化_19" data-name="グループ化 19" transform="translate(21 901)">
      <circle id="楕円形_6" data-name="楕円形 6" class="cls-9" cx="90" cy="90" r="90" transform="translate(120 276)"/>
      <g id="無料の設定歯車アイコン-2" data-name="無料の設定歯車アイコン" transform="translate(253.996 133)">
        <path id="パス_2-2" data-name="パス 2" class="cls-8" d="M156.085,65.628l-17.454-.806a4.1,4.1,0,0,1-3.608-2.532l-3.6-8.655a4.12,4.12,0,0,1,.767-4.348L143.966,36.37a4.124,4.124,0,0,0-.132-5.682L129.323,16.174a4.122,4.122,0,0,0-5.688-.129l-12.91,11.772a4.113,4.113,0,0,1-4.351.761l-8.655-3.59a4.1,4.1,0,0,1-2.529-3.614L94.381,3.926A4.116,4.116,0,0,0,90.275,0H69.741a4.12,4.12,0,0,0-4.111,3.926l-.8,17.448A4.1,4.1,0,0,1,62.3,24.987l-8.655,3.59a4.109,4.109,0,0,1-4.351-.761L36.374,16.045a4.12,4.12,0,0,0-5.688.129L16.181,30.688a4.113,4.113,0,0,0-.132,5.682L27.821,49.286a4.1,4.1,0,0,1,.755,4.348l-3.584,8.655a4.109,4.109,0,0,1-3.614,2.532L3.93,65.628A4.115,4.115,0,0,0,0,69.736V90.268A4.118,4.118,0,0,0,3.93,94.377l17.448.806a4.108,4.108,0,0,1,3.614,2.532l3.584,8.655a4.1,4.1,0,0,1-.755,4.348L16.049,123.628a4.12,4.12,0,0,0,.126,5.688L30.7,143.83a4.118,4.118,0,0,0,5.682.132l12.91-11.774a4.116,4.116,0,0,1,4.351-.761l8.655,3.587a4.109,4.109,0,0,1,2.529,3.617l.8,17.448A4.122,4.122,0,0,0,69.74,160H90.274a4.117,4.117,0,0,0,4.106-3.926l.809-17.448a4.11,4.11,0,0,1,2.529-3.617l8.655-3.587a4.118,4.118,0,0,1,4.351.761l12.91,11.774a4.125,4.125,0,0,0,5.688-.132l14.511-14.514a4.132,4.132,0,0,0,.132-5.688l-11.772-12.911a4.107,4.107,0,0,1-.767-4.348l3.6-8.655a4.1,4.1,0,0,1,3.608-2.532l17.454-.806A4.113,4.113,0,0,0,160,90.268V69.736A4.109,4.109,0,0,0,156.085,65.628ZM80.008,106.133A26.131,26.131,0,1,1,106.134,80,26.135,26.135,0,0,1,80.008,106.133Z" transform="translate(-124 153)"/>
      </g>
      <circle id="楕円形_7" data-name="楕円形 7" class="cls-10" cx="20" cy="20" r="20" transform="translate(190 346)"/>
      <circle id="楕円形_8" data-name="楕円形 8" class="cls-8" cx="10" cy="10" r="10" transform="translate(200 356)"/>
    </g>
    <g id="グループ化_20" data-name="グループ化 20" transform="translate(-10 904)">
      <rect id="長方形_25" data-name="長方形 25" class="cls-9" width="90" height="60" transform="translate(195 453)"/>
      <path id="長方形_26" data-name="長方形 26" class="cls-8" d="M10,0H80A10,10,0,0,1,90,10V30a0,0,0,0,1,0,0H0a0,0,0,0,1,0,0V10A10,10,0,0,1,10,0Z" transform="translate(195 439)"/>
      <path id="パス_4" data-name="パス 4" class="cls-8" d="M0,0H30.479V5H0Z" transform="translate(284 453)"/>
      <path id="パス_5" data-name="パス 5" class="cls-8" d="M.555-.1,60,0V5L.555,4.95Z" transform="translate(309.5 513.5) rotate(-90)"/>
    </g>
    <path id="長方形_53" data-name="長方形 53" class="cls-11" d="M0,0H153a0,0,0,0,1,0,0V33a10,10,0,0,1-10,10H10A10,10,0,0,1,0,33V0A0,0,0,0,1,0,0Z" transform="translate(99 1137)"/>
    <g id="グループ化_21" data-name="グループ化 21" transform="translate(-279 768)">
      <g id="グループ化_12" data-name="グループ化 12" transform="translate(4 127)">
        <path id="長方形_30" data-name="長方形 30" class="cls-11" d="M10,0H30a0,0,0,0,1,0,0V180a0,0,0,0,1,0,0H0a0,0,0,0,1,0,0V10A10,10,0,0,1,10,0Z" transform="translate(436 22)"/>
        <rect id="長方形_31" data-name="長方形 31" class="cls-11" width="34" height="5" transform="translate(434 172)"/>
        <path id="長方形_32" data-name="長方形 32" class="cls-11" d="M10,0H30A10,10,0,0,1,40,10V20a0,0,0,0,1,0,0H0a0,0,0,0,1,0,0V10A10,10,0,0,1,10,0Z" transform="translate(431 182)"/>
        <rect id="長方形_33" data-name="長方形 33" class="cls-11" width="34" height="5" transform="translate(434 137)"/>
        <path id="長方形_34" data-name="長方形 34" class="cls-11" d="M0,0H20A10,10,0,0,1,30,10V242a10,10,0,0,1-10,10H0a0,0,0,0,1,0,0V0A0,0,0,0,1,0,0Z" transform="translate(576.5 15) rotate(90)"/>
        <path id="長方形_35" data-name="長方形 35" class="cls-11" d="M10,0H30a0,0,0,0,1,0,0V171a0,0,0,0,1,0,0H0a0,0,0,0,1,0,0V10A10,10,0,0,1,10,0Z" transform="translate(576.459 43.93) rotate(180)"/>
        <path id="長方形_36" data-name="長方形 36" class="cls-11" d="M0,0H20A10,10,0,0,1,30,10V171a0,0,0,0,1,0,0H0a0,0,0,0,1,0,0V0A0,0,0,0,1,0,0Z" transform="translate(354.459 43.93) rotate(180)"/>
        <rect id="長方形_38" data-name="長方形 38" class="cls-11" width="34" height="5" transform="translate(374.5 12.5) rotate(90)"/>
        <rect id="長方形_39" data-name="長方形 39" class="cls-11" width="34" height="5" transform="translate(528.5 12.5) rotate(90)"/>
        <rect id="長方形_40" data-name="長方形 40" class="cls-11" width="34" height="5" transform="translate(356 -2) rotate(180)"/>
        <rect id="長方形_41" data-name="長方形 41" class="cls-11" width="34" height="5" transform="translate(578 -2) rotate(180)"/>
        <rect id="長方形_43" data-name="長方形 43" class="cls-11" width="5" height="171" transform="translate(421.459 43.93) rotate(180)"/>
        <rect id="長方形_44" data-name="長方形 44" class="cls-11" width="5" height="171" transform="translate(485.459 43.93) rotate(180)"/>
      </g>
      <rect id="長方形_42" data-name="長方形 42" class="cls-1" width="120" height="70" rx="10" transform="translate(394 122)"/>
      <circle id="楕円形_17" data-name="楕円形 17" class="cls-4" cx="25" cy="25" r="25" transform="translate(429 132)"/>
      <circle id="楕円形_18" data-name="楕円形 18" class="cls-6" cx="20" cy="20" r="20" transform="translate(434 137)"/>
      <path id="前面オブジェクトで型抜き_4" data-name="前面オブジェクトで型抜き 4" class="cls-8" d="M9.282,14H8.262A17,17,0,0,1,37.021,4.98,16.861,16.861,0,0,1,41.738,14H40.718A16,16,0,0,0,9.282,14Z" transform="translate(429 140)"/>
      <rect id="長方形_23-3" data-name="長方形 23" class="cls-2" width="1" height="30" rx="0.5" transform="translate(464.978 142.579) rotate(23)"/>
      <circle id="楕円形_21" data-name="楕円形 21" class="cls-2" cx="3" cy="3" r="3" transform="translate(451 167)"/>
    </g>
  </g>
</svg>
