<svg xmlns="http://www.w3.org/2000/svg" viewBox="3751 236.93 256 329.07">
  <defs>
    <style>
      .cls-1 {
        fill: #4d4d4d;
      }

      .cls-2 {
        fill: #f5c972;
      }

      .cls-3 {
        fill: #e2994d;
      }

      .cls-4 {
        fill: #fff;
      }

      .cls-5 {
        fill: #ccc;
      }

      .cls-6 {
        fill: #331a00;
      }
    </style>
  </defs>
  <g id="グループ化_21" data-name="グループ化 21" transform="translate(3425 237)">
    <g id="グループ化_12" data-name="グループ化 12" transform="translate(4 127)">
      <path id="長方形_30" data-name="長方形 30" class="cls-1" d="M10,0H30a0,0,0,0,1,0,0V180a0,0,0,0,1,0,0H0a0,0,0,0,1,0,0V10A10,10,0,0,1,10,0Z" transform="translate(436 22)"/>
      <rect id="長方形_31" data-name="長方形 31" class="cls-1" width="34" height="5" transform="translate(434 172)"/>
      <path id="長方形_32" data-name="長方形 32" class="cls-1" d="M10,0H30A10,10,0,0,1,40,10V20a0,0,0,0,1,0,0H0a0,0,0,0,1,0,0V10A10,10,0,0,1,10,0Z" transform="translate(431 182)"/>
      <rect id="長方形_33" data-name="長方形 33" class="cls-1" width="34" height="5" transform="translate(434 137)"/>
      <path id="長方形_34" data-name="長方形 34" class="cls-1" d="M0,0H20A10,10,0,0,1,30,10V242a10,10,0,0,1-10,10H0a0,0,0,0,1,0,0V0A0,0,0,0,1,0,0Z" transform="translate(576.5 15) rotate(90)"/>
      <path id="長方形_35" data-name="長方形 35" class="cls-1" d="M10,0H30a0,0,0,0,1,0,0V171a0,0,0,0,1,0,0H0a0,0,0,0,1,0,0V10A10,10,0,0,1,10,0Z" transform="translate(576.459 43.93) rotate(180)"/>
      <path id="長方形_36" data-name="長方形 36" class="cls-1" d="M0,0H20A10,10,0,0,1,30,10V171a0,0,0,0,1,0,0H0a0,0,0,0,1,0,0V0A0,0,0,0,1,0,0Z" transform="translate(354.459 43.93) rotate(180)"/>
      <rect id="長方形_38" data-name="長方形 38" class="cls-1" width="34" height="5" transform="translate(374.5 12.5) rotate(90)"/>
      <rect id="長方形_39" data-name="長方形 39" class="cls-1" width="34" height="5" transform="translate(528.5 12.5) rotate(90)"/>
      <rect id="長方形_40" data-name="長方形 40" class="cls-1" width="34" height="5" transform="translate(356 -2) rotate(180)"/>
      <rect id="長方形_41" data-name="長方形 41" class="cls-1" width="34" height="5" transform="translate(578 -2) rotate(180)"/>
      <rect id="長方形_43" data-name="長方形 43" class="cls-1" width="5" height="171" transform="translate(421.459 43.93) rotate(180)"/>
      <rect id="長方形_44" data-name="長方形 44" class="cls-1" width="5" height="171" transform="translate(485.459 43.93) rotate(180)"/>
    </g>
    <rect id="長方形_42" data-name="長方形 42" class="cls-2" width="120" height="70" rx="10" transform="translate(394 122)"/>
    <circle id="楕円形_17" data-name="楕円形 17" class="cls-3" cx="25" cy="25" r="25" transform="translate(429 132)"/>
    <circle id="楕円形_18" data-name="楕円形 18" class="cls-4" cx="20" cy="20" r="20" transform="translate(434 137)"/>
    <path id="前面オブジェクトで型抜き_4" data-name="前面オブジェクトで型抜き 4" class="cls-5" d="M9.282,14H8.262A17,17,0,0,1,37.021,4.98,16.861,16.861,0,0,1,41.738,14H40.718A16,16,0,0,0,9.282,14Z" transform="translate(429 140)"/>
    <rect id="長方形_23" data-name="長方形 23" class="cls-6" width="1" height="30" rx="0.5" transform="translate(464.978 142.579) rotate(23)"/>
    <circle id="楕円形_21" data-name="楕円形 21" class="cls-6" cx="3" cy="3" r="3" transform="translate(451 167)"/>
  </g>
</svg>
