<svg id="工場アイコン" xmlns="http://www.w3.org/2000/svg" viewBox="2786 -1734 720.761 518.354">
  <defs>
    <style>
      .cls-1 {
        fill: #34cdd7;
      }

      .cls-2 {
        fill: #fff;
        font-size: 96px;
        font-family: UDDigiKyokashoNP-B, UD Digi Kyokasho NP-B;
      }

      .cls-3, .cls-4 {
        fill: none;
      }

      .cls-3 {
        stroke: #333;
        stroke-width: 15px;
      }

      .cls-5 {
        fill: #96c9ba;
      }

      .cls-6 {
        fill: #b8c6c6;
      }

      .cls-11, .cls-7 {
        fill: #040000;
      }

      .cls-7 {
        opacity: 0.1;
      }

      .cls-8 {
        fill: #b4b3b3;
      }

      .cls-9 {
        fill: #f2f2f2;
      }

      .cls-10 {
        fill: #88bbc0;
      }

      .cls-11 {
        opacity: 0.06;
      }
    </style>
  </defs>
  <g id="グループ化_47" data-name="グループ化 47">
    <g id="グループ化_45" data-name="グループ化 45" transform="translate(-117 -457)">
      <path id="SIS0001-Cloud_A" data-name="SIS0001-Cloud A" class="cls-1" d="M102.74,274.523h-.587C62.973,274.21,31.3,245.878,31.3,211.087c0-25,16.775-47.6,41.879-57.811,3.4-28.124,30.265-50,62.759-50A68.546,68.546,0,0,1,156,106.195C172.42,85.987,198.814,73.8,227.437,73.8c48.565,0,88.1,35.1,88.1,78.227v1.354c24.986,10.208,41.527,32.707,41.527,57.6,0,35-32.025,63.435-71.44,63.435Z" transform="translate(3266.7 -1350.8)"/>
      <text id="IoT" class="cls-2" transform="translate(3385.477 -1124.103)"><tspan x="0" y="0">IoT</tspan></text>
    </g>
    <g id="グループ化_46" data-name="グループ化 46" transform="matrix(0.998, -0.07, 0.07, 0.998, -204.398, 108.405)">
      <line id="線_2" data-name="線 2" class="cls-3" x2="62" y2="73" transform="translate(3420.5 -1415.5)"/>
      <line id="線_3" data-name="線 3" class="cls-3" x2="62" y2="73" transform="translate(3488 -1410) rotate(90)"/>
    </g>
  </g>
  <g id="f_f_traffic_29_svg_f_traffic_29_2nbg" transform="translate(2786 -1522.999)">
    <path id="パス_56" data-name="パス 56" class="cls-4" d="M314.39,164.945l-9.294,9.294,9.294,5.99Z" transform="translate(-99.262 -53.665)"/>
    <g id="グループ化_55" data-name="グループ化 55" transform="translate(0 -0.001)">
      <g id="グループ化_54" data-name="グループ化 54">
        <g id="グループ化_49" data-name="グループ化 49" transform="translate(66.567)">
          <g id="グループ化_48" data-name="グループ化 48">
            <path id="パス_57" data-name="パス 57" class="cls-5" d="M260.8,63.942V212.2A25.716,25.716,0,0,1,246.9,234.988a24.253,24.253,0,0,1-6.027,2.22,23.221,23.221,0,0,1-5.763.688,25.268,25.268,0,0,1-11.791-2.908A25.715,25.715,0,0,1,209.408,212.2V63.942a25.815,25.815,0,0,1,25.7-25.7,24.9,24.9,0,0,1,9.79,2.037c.046.02.093.034.138.053a25.026,25.026,0,0,1,3.766,1.981c.423.264.846.528,1.216.793s.74.529,1.11.846a27.386,27.386,0,0,1,2.274,2.062,14.261,14.261,0,0,1,1.481,1.639,18.192,18.192,0,0,1,1.481,1.9,17.15,17.15,0,0,1,1.11,1.851c.212.37.423.739.634,1.163a17.542,17.542,0,0,1,1.269,3.12c.212.529.37,1.058.529,1.587.159.582.317,1.11.423,1.691a17.54,17.54,0,0,1,.317,2.326A22.153,22.153,0,0,1,260.8,63.942Z" transform="translate(-134.697 -12.443)"/>
            <path id="パス_58" data-name="パス 58" class="cls-5" d="M150.062,63.942V212.2a25.23,25.23,0,0,1-5.393,15.6,24.968,24.968,0,0,1-8.513,7.19,25.355,25.355,0,0,1-23.582,0A25.715,25.715,0,0,1,98.668,212.2V63.837a25.817,25.817,0,0,1,25.644-25.591h.053A25.792,25.792,0,0,1,150.062,63.942Z" transform="translate(-98.668 -12.443)"/>
            <path id="パス_59" data-name="パス 59" class="cls-6" d="M382.183,28.869V211.493a29.736,29.736,0,0,1-2.062,11.051,25.453,25.453,0,0,1-2.855,5.763,31.68,31.68,0,0,1-26.754,14.8,30.182,30.182,0,0,1-9.834-1.587,31.688,31.688,0,0,1-20.99-23.105,29.9,29.9,0,0,1-.793-6.927V28.869a28.86,28.86,0,0,1,.37-4.759,31.241,31.241,0,0,1,6.715-15.122A24.35,24.35,0,0,1,328.2,6.555,31.01,31.01,0,0,1,337.663,0h25.749A32.582,32.582,0,0,1,375.1,8.988a31.24,31.24,0,0,1,6.715,15.122A36.141,36.141,0,0,1,382.183,28.869Z" transform="translate(-170.318 0.001)"/>
          </g>
          <path id="パス_60" data-name="パス 60" class="cls-7" d="M382.182,33.2v4.018a2.293,2.293,0,0,1-.37.264,10.877,10.877,0,0,1-5.658,1.639H324.92a10.877,10.877,0,0,1-5.658-1.639,2.3,2.3,0,0,1-.37-.264V33.2a28.864,28.864,0,0,1,.37-4.759,31.24,31.24,0,0,1,6.715-15.122H375.1a31.241,31.241,0,0,1,6.715,15.122A36.033,36.033,0,0,1,382.182,33.2Z" transform="translate(-170.318 -4.334)"/>
          <path id="パス_61" data-name="パス 61" class="cls-6" d="M384.509,10.522v4.76A10.615,10.615,0,0,1,373.987,25.8H322.753a10.615,10.615,0,0,1-10.522-10.521v-4.76A10.55,10.55,0,0,1,322.753,0h51.234A10.585,10.585,0,0,1,384.509,10.522Z" transform="translate(-168.15 0.001)"/>
        </g>
        <path id="パス_62" data-name="パス 62" class="cls-8" d="M345.422,204.051l-1,13.166v.105l-1.322,18.4L341.985,251l-2.221,30.137L336.01,332l-.9,12.108H14.382l-6.873-93.48L5.129,218.274,1.216,165.295l-.158-2.115v-.159L0,149.062l10.786,6.61,55.782,34.315,22.788,14.064h.053l-1.48-40.924v-.106L87.4,149.062l30.56,19.247,23.317,14.7,31.46,19.775,2.009,1.269V149.062l17.924,11.527,22.471,14.487,44.889,28.975h.053l1.48-41.135.529-13.854,16.338,10.787Z" transform="translate(0 -48.496)"/>
        <path id="パス_63" data-name="パス 63" class="cls-9" d="M344.954,224.056,343.58,242.4l-1.111,15.28-2.221,30.137-3.7,50.865h-.053l-.9,12.108-.9,11.738H15.765l-.74-10.311-.106-1.427-6.926-93.48L5.613,224.955,1.648,171.976l-.159-2.168.053.053V169.7l1.48.9,64.03,39.126L90.369,224l-.528-13.271-1.533-40.977.106.053V169.7l30.031,18.77,23.317,14.593,31.46,19.669L175.231,224V210.732l-.053-41.03h.053l17.924,11.474L211.4,192.86l4.23,2.7L260.04,223.95l.476-13.218,1.534-41.135,16.867,11.05L344.9,223.9V224Z" transform="translate(-0.484 -55.177)"/>
        <g id="グループ化_53" data-name="グループ化 53" transform="translate(30.217 195.947)">
          <g id="グループ化_50" data-name="グループ化 50">
            <rect id="長方形_98" data-name="長方形 98" class="cls-10" width="82.36" height="26.618"/>
            <rect id="長方形_99" data-name="長方形 99" class="cls-10" width="82.36" height="26.618" transform="translate(0 32.36)"/>
          </g>
          <g id="グループ化_51" data-name="グループ化 51" transform="translate(103.355)">
            <rect id="長方形_100" data-name="長方形 100" class="cls-10" width="82.36" height="26.618"/>
            <rect id="長方形_101" data-name="長方形 101" class="cls-10" width="82.36" height="26.618" transform="translate(0 32.36)"/>
          </g>
          <g id="グループ化_52" data-name="グループ化 52" transform="translate(206.709)">
            <rect id="長方形_102" data-name="長方形 102" class="cls-10" width="82.36" height="26.618"/>
            <rect id="長方形_103" data-name="長方形 103" class="cls-10" width="82.36" height="26.618" transform="translate(0 32.36)"/>
          </g>
        </g>
      </g>
      <path id="パス_64" data-name="パス 64" class="cls-11" d="M428.724,155.554l-.952,13.324L426.4,187.226l-1.11,15.28-5.922,81h-.053l-.9,12.108-.9,11.738H256.039V26.543a25.044,25.044,0,0,1,7.931,3.331c.423.264.846.528,1.216.793s.74.529,1.11.846a27.386,27.386,0,0,1,2.274,2.062,14.256,14.256,0,0,1,1.481,1.639,23.308,23.308,0,0,1,1.481,1.9,17.155,17.155,0,0,1,1.11,1.851c.212.37.423.739.634,1.163a17.542,17.542,0,0,1,1.269,3.12c.212.529.37,1.058.529,1.587.159.582.317,1.11.423,1.691a17.55,17.55,0,0,1,.317,2.326,22.3,22.3,0,0,1,.159,2.644v60.593l22.471,14.487V28.869a28.864,28.864,0,0,1,.37-4.759,10.368,10.368,0,0,1-4.864-8.829v-4.76A10.548,10.548,0,0,1,304.471,0h51.234a10.585,10.585,0,0,1,10.522,10.522v4.76a10.489,10.489,0,0,1-4.864,8.829,36.118,36.118,0,0,1,.37,4.759V111.3Z" transform="translate(-83.302 0.001)"/>
    </g>
  </g>
</svg>
