<svg xmlns="http://www.w3.org/2000/svg" xmlns:xlink="http://www.w3.org/1999/xlink" viewBox="3760 742 99.998 100">
  <defs>
    <style>
      .cls-1 {
        fill: none;
      }

      .cls-2 {
        clip-path: url(#clip-path);
      }

      .cls-3 {
        fill: #ccc;
      }

      .cls-4 {
        fill: #333;
      }
    </style>
    <clipPath id="clip-path">
      <rect class="cls-1" width="99.997" height="100"/>
    </clipPath>
  </defs>
  <g id="グループ化_68" data-name="グループ化 68" transform="translate(3704 245)">
    <g id="リピートグリッド_9" data-name="リピートグリッド 9" class="cls-2" transform="translate(56 497)">
      <g transform="translate(-56 -497)">
        <g id="グループ化_67" data-name="グループ化 67">
          <g id="無料の設定歯車アイコン" transform="translate(179.996 344)">
            <path id="パス_2" data-name="パス 2" class="cls-3" d="M97.552,41.016l-10.908-.5a2.563,2.563,0,0,1-2.255-1.583l-2.248-5.409a2.575,2.575,0,0,1,.479-2.718l7.357-8.073a2.578,2.578,0,0,0-.082-3.551l-9.069-9.071a2.576,2.576,0,0,0-3.555-.08L69.2,17.385a2.571,2.571,0,0,1-2.72.476l-5.409-2.244a2.563,2.563,0,0,1-1.581-2.259l-.506-10.9A2.572,2.572,0,0,0,56.422,0H43.588a2.575,2.575,0,0,0-2.57,2.454l-.5,10.9a2.564,2.564,0,0,1-1.581,2.259l-5.409,2.244a2.568,2.568,0,0,1-2.72-.476l-8.072-7.357a2.575,2.575,0,0,0-3.555.08l-9.065,9.071a2.571,2.571,0,0,0-.082,3.551L17.389,30.8a2.565,2.565,0,0,1,.472,2.718l-2.24,5.409a2.568,2.568,0,0,1-2.259,1.583l-10.9.5A2.572,2.572,0,0,0,0,43.584V56.416a2.574,2.574,0,0,0,2.454,2.568l10.9.5a2.568,2.568,0,0,1,2.259,1.583l2.24,5.409a2.565,2.565,0,0,1-.472,2.718l-7.357,8.069a2.575,2.575,0,0,0,.079,3.555l9.076,9.071a2.574,2.574,0,0,0,3.551.082l8.069-7.359a2.573,2.573,0,0,1,2.72-.476l5.409,2.242a2.568,2.568,0,0,1,1.581,2.261l.5,10.9A2.576,2.576,0,0,0,43.588,100H56.421a2.573,2.573,0,0,0,2.566-2.454l.506-10.9a2.568,2.568,0,0,1,1.581-2.261l5.409-2.242a2.574,2.574,0,0,1,2.72.476l8.069,7.359a2.578,2.578,0,0,0,3.555-.082L89.9,80.821a2.582,2.582,0,0,0,.082-3.555L82.62,69.2a2.567,2.567,0,0,1-.479-2.718l2.248-5.409a2.562,2.562,0,0,1,2.255-1.583l10.908-.5A2.57,2.57,0,0,0,100,56.416V43.584A2.568,2.568,0,0,0,97.552,41.016ZM50.005,66.332A16.331,16.331,0,1,1,66.334,50,16.334,16.334,0,0,1,50.005,66.332Z" transform="translate(-124 153)"/>
          </g>
          <circle id="楕円形_22" data-name="楕円形 22" class="cls-4" cx="20" cy="20" r="20" transform="translate(86 527)"/>
        </g>
        <circle id="楕円形_23" data-name="楕円形 23" class="cls-3" cx="10" cy="10" r="10" transform="translate(96 537)"/>
      </g>
    </g>
  </g>
</svg>
