<svg xmlns="http://www.w3.org/2000/svg" viewBox="4931 973 61 60.414">
  <defs>
    <style>
      .cls-1 {
        fill: #331a00;
      }

      .cls-2 {
        fill: #af906c;
      }
    </style>
  </defs>
  <g id="グループ化_84" data-name="グループ化 84" transform="translate(4066 485)">
    <ellipse id="楕円形_1" data-name="楕円形 1" class="cls-1" cx="30.5" cy="30.207" rx="30.5" ry="30.207" transform="translate(865 488)"/>
    <ellipse id="楕円形_2" data-name="楕円形 2" class="cls-2" cx="22.875" cy="22.655" rx="22.875" ry="22.655" transform="translate(872.625 495.552)"/>
    <g id="無料の設定歯車アイコン" transform="translate(898.484 488.151) rotate(51)">
      <path id="パス_1" data-name="パス 1" class="cls-1" d="M41.51,17.454l-4.642-.214a1.091,1.091,0,0,1-.96-.673l-.956-2.3a1.1,1.1,0,0,1,.2-1.156l3.131-3.435a1.1,1.1,0,0,0-.035-1.511L34.393,4.3a1.1,1.1,0,0,0-1.513-.034L29.446,7.4a1.094,1.094,0,0,1-1.157.2l-2.3-.955a1.091,1.091,0,0,1-.673-.961L25.1,1.044A1.1,1.1,0,0,0,24.008,0H18.547a1.1,1.1,0,0,0-1.093,1.044l-.214,4.64a1.091,1.091,0,0,1-.673.961l-2.3.955a1.093,1.093,0,0,1-1.157-.2L9.673,4.267A1.1,1.1,0,0,0,8.16,4.3L4.3,8.161a1.094,1.094,0,0,0-.035,1.511L7.4,13.108a1.091,1.091,0,0,1,.2,1.156l-.953,2.3a1.093,1.093,0,0,1-.961.673l-4.64.214A1.094,1.094,0,0,0,0,18.546v5.46A1.1,1.1,0,0,0,1.044,25.1l4.64.214a1.093,1.093,0,0,1,.961.673l.953,2.3a1.091,1.091,0,0,1-.2,1.156L4.267,32.879A1.1,1.1,0,0,0,4.3,34.392l3.862,3.86a1.1,1.1,0,0,0,1.511.035l3.434-3.131a1.1,1.1,0,0,1,1.157-.2l2.3.954a1.093,1.093,0,0,1,.673.962l.214,4.64a1.1,1.1,0,0,0,1.093,1.044h5.461A1.1,1.1,0,0,0,25.1,41.509l.215-4.64a1.093,1.093,0,0,1,.673-.962l2.3-.954a1.1,1.1,0,0,1,1.157.2l3.434,3.131a1.1,1.1,0,0,0,1.513-.035l3.859-3.86a1.1,1.1,0,0,0,.035-1.513l-3.131-3.434a1.092,1.092,0,0,1-.2-1.156l.956-2.3a1.09,1.09,0,0,1,.96-.673L41.51,25.1a1.094,1.094,0,0,0,1.042-1.093v-5.46A1.093,1.093,0,0,0,41.51,17.454ZM21.277,28.226a6.95,6.95,0,1,1,6.948-6.949A6.951,6.951,0,0,1,21.277,28.226Z" transform="translate(0 0)"/>
    </g>
  </g>
</svg>
