<svg xmlns="http://www.w3.org/2000/svg" viewBox="4025 796 80.775 80">
  <defs>
    <style>
      .cls-1 {
        fill: #331a00;
      }

      .cls-2 {
        fill: #af906c;
      }
    </style>
  </defs>
  <g id="グループ化_65" data-name="グループ化 65" transform="translate(3160 308)">
    <ellipse id="楕円形_1" data-name="楕円形 1" class="cls-1" cx="40.388" cy="40" rx="40.388" ry="40" transform="translate(865 488)"/>
    <ellipse id="楕円形_2" data-name="楕円形 2" class="cls-2" cx="30.291" cy="30" rx="30.291" ry="30" transform="translate(875.097 498)"/>
    <g id="無料の設定歯車アイコン" transform="translate(684.632 914.644) rotate(51)">
      <path id="パス_1" data-name="パス 1" class="cls-1" d="M54.971,23.112l-6.147-.284a1.444,1.444,0,0,1-1.271-.892l-1.267-3.048a1.451,1.451,0,0,1,.27-1.531L50.7,12.808a1.452,1.452,0,0,0-.046-2L45.546,5.7a1.452,1.452,0,0,0-2-.045L39,9.8a1.448,1.448,0,0,1-1.532.268L34.416,8.8a1.444,1.444,0,0,1-.891-1.273l-.285-6.145A1.449,1.449,0,0,0,31.795,0H24.563a1.451,1.451,0,0,0-1.448,1.383l-.283,6.145A1.445,1.445,0,0,1,21.941,8.8l-3.048,1.264A1.447,1.447,0,0,1,17.361,9.8L12.812,5.651a1.451,1.451,0,0,0-2,.045L5.7,10.807a1.448,1.448,0,0,0-.046,2L9.8,17.357a1.445,1.445,0,0,1,.266,1.531L8.8,21.936a1.447,1.447,0,0,1-1.273.892l-6.145.284A1.449,1.449,0,0,0,0,24.559v7.231a1.45,1.45,0,0,0,1.383,1.447l6.145.284a1.447,1.447,0,0,1,1.273.892l1.262,3.048A1.445,1.445,0,0,1,9.8,38.991L5.655,43.538a1.451,1.451,0,0,0,.044,2l5.114,5.111a1.45,1.45,0,0,0,2,.046l4.547-4.147a1.45,1.45,0,0,1,1.532-.268l3.048,1.263a1.447,1.447,0,0,1,.891,1.274l.283,6.145a1.451,1.451,0,0,0,1.448,1.383h7.232a1.45,1.45,0,0,0,1.446-1.383l.285-6.145a1.447,1.447,0,0,1,.891-1.274l3.048-1.263A1.45,1.45,0,0,1,39,46.552L43.543,50.7a1.453,1.453,0,0,0,2-.046l5.11-5.111a1.455,1.455,0,0,0,.046-2l-4.146-4.547a1.446,1.446,0,0,1-.27-1.531l1.267-3.048a1.444,1.444,0,0,1,1.271-.892l6.147-.284a1.448,1.448,0,0,0,1.38-1.447V24.559A1.447,1.447,0,0,0,54.971,23.112ZM28.179,37.377a9.2,9.2,0,1,1,9.2-9.2A9.2,9.2,0,0,1,28.179,37.377Z" transform="translate(-190 -443)"/>
    </g>
  </g>
</svg>
