<svg xmlns="http://www.w3.org/2000/svg" viewBox="3629.233 450.603 159.687 160.738">
  <defs>
    <style>
      .cls-1 {
        fill: #0ef;
      }
    </style>
  </defs>
  <g id="通信中のスマフォアイコン_センサ用_" data-name="通信中のスマフォアイコン(センサ用)" transform="translate(3359.979 450.603)">
    <path id="パス_18" data-name="パス 18" class="cls-1" d="M276.131,105.523l-6.877,16.184A79.906,79.906,0,0,1,312.438,166.1l16.419-6.4A97.54,97.54,0,0,0,276.131,105.523Z" transform="translate(0 -5.361)"/>
    <path id="パス_19" data-name="パス 19" class="cls-1" d="M281.172,52.313,276.05,69.128a129.222,129.222,0,0,1,86.544,87.925l16.949-4.8A146.811,146.811,0,0,0,281.172,52.313Z" transform="translate(-0.326 -2.658)"/>
    <path id="パス_20" data-name="パス 20" class="cls-1" d="M286.575,0l-4.288,17.048a178.647,178.647,0,0,1,130.13,131.473l17.149-4.049A196.248,196.248,0,0,0,286.575,0Z" transform="translate(-0.625)"/>
  </g>
</svg>
