<svg xmlns="http://www.w3.org/2000/svg" viewBox="3929.233 170 167.725 169.341">
  <defs>
    <style>
      .cls-1 {
        fill: #0ef;
      }
    </style>
  </defs>
  <g id="通信中のスマフォアイコン_雲用_" data-name="通信中のスマフォアイコン(雲用)" transform="translate(4366.212 339.341) rotate(180)">
    <path id="パス_18" data-name="パス 18" class="cls-1" d="M276.477,105.523l-7.223,17.05a84.065,84.065,0,0,1,45.358,46.768l17.245-6.739A102.618,102.618,0,0,0,276.477,105.523Z"/>
    <path id="パス_19" data-name="パス 19" class="cls-1" d="M281.43,52.313l-5.38,17.715a135.941,135.941,0,0,1,90.9,92.631l17.8-5.062A154.446,154.446,0,0,0,281.43,52.313Z"/>
    <path id="パス_20" data-name="パス 20" class="cls-1" d="M286.791,0l-4.5,17.96a187.933,187.933,0,0,1,136.68,138.51l18.012-4.266A206.449,206.449,0,0,0,286.791,0Z"/>
  </g>
</svg>
