<svg xmlns="http://www.w3.org/2000/svg" viewBox="3802 -256 608.411 380.476">
  <defs>
    <style>
      .cls-1 {
        fill: #fff;
      }
    </style>
  </defs>
  <g id="雲のアイコン素材" transform="translate(3802 -321.762)">
    <path id="パス_9" data-name="パス 9" class="cls-1" d="M554.975,283.344a117.256,117.256,0,0,0-30.4-9.559c.055-1.226.112-2.453.112-3.7,0-58.367-56.227-105.687-125.59-105.687a149.449,149.449,0,0,0-19.634,1.3c-13.544-56.992-73.317-99.938-145.028-99.938-81.691,0-147.917,55.73-147.917,124.477a106.959,106.959,0,0,0,10.318,45.488c.27.6.46,1.211.744,1.809a136.77,136.77,0,0,0-47.815,18.809c-1.119.714-2.164,1.5-3.254,2.242-1.523,1.039-3.073,2.047-4.536,3.145-2.042,1.531-3.982,3.152-5.9,4.789-.478.41-.993.786-1.466,1.2-1.908,1.684-3.7,3.454-5.469,5.238-.454.457-.947.886-1.393,1.351-1.323,1.383-2.535,2.84-3.773,4.278-.835.969-1.723,1.906-2.522,2.9-.566.707-1.058,1.457-1.605,2.176C7.334,300.094,0,319.582,0,340.55c0,58.367,56.227,105.688,125.588,105.688H505.15c57.029,0,103.261-38.906,103.261-86.9C608.412,326.574,586.805,298.137,554.975,283.344Z"/>
  </g>
</svg>
